<svg width="484" height="84" viewBox="0 0 484 84" fill="none" xmlns="http://www.w3.org/2000/svg">
<mask id="path-1-outside-1_27_6" maskUnits="userSpaceOnUse" x="0" y="0" width="484" height="84" fill="black">
<rect fill="white" width="484" height="84"/>
<path d="M18.5 24V42.5H50.9V55.5H18.5V81H2.3V11H55.2V24H18.5ZM117.9 27.2V81H103.1V74.6C101.033 76.9333 98.5667 78.7333 95.7 80C92.8333 81.2 89.7333 81.8 86.4 81.8C79.3333 81.8 73.7333 79.7667 69.6 75.7C65.4667 71.6333 63.4 65.6 63.4 57.6V27.2H79V55.3C79 63.9667 82.6333 68.3 89.9 68.3C93.6333 68.3 96.6333 67.1 98.9 64.7C101.167 62.2333 102.3 58.6 102.3 53.8V27.2H117.9ZM147.252 34.3C149.119 31.7 151.619 29.7333 154.752 28.4C157.952 27.0667 161.619 26.4 165.752 26.4V40.8C164.019 40.6667 162.852 40.6 162.252 40.6C157.786 40.6 154.286 41.8667 151.752 44.4C149.219 46.8667 147.952 50.6 147.952 55.6V81H132.352V27.2H147.252V34.3ZM207.728 26.4C214.395 26.4 219.761 28.4 223.828 32.4C227.961 36.4 230.028 42.3333 230.028 50.2V81H214.428V52.6C214.428 48.3333 213.495 45.1667 211.628 43.1C209.761 40.9667 207.061 39.9 203.528 39.9C199.595 39.9 196.461 41.1333 194.128 43.6C191.795 46 190.628 49.6 190.628 54.4V81H175.028V27.2H189.928V33.5C191.995 31.2333 194.561 29.5 197.628 28.3C200.695 27.0333 204.061 26.4 207.728 26.4ZM244.169 27.2H259.769V81H244.169V27.2ZM251.969 19.7C249.102 19.7 246.769 18.8667 244.969 17.2C243.169 15.5333 242.269 13.4667 242.269 11C242.269 8.53333 243.169 6.46666 244.969 4.8C246.769 3.13333 249.102 2.29999 251.969 2.29999C254.835 2.29999 257.169 3.1 258.969 4.7C260.769 6.3 261.669 8.3 261.669 10.7C261.669 13.3 260.769 15.4667 258.969 17.2C257.169 18.8667 254.835 19.7 251.969 19.7ZM308.947 78.4C307.414 79.5333 305.514 80.4 303.247 81C301.047 81.5333 298.714 81.8 296.247 81.8C289.847 81.8 284.88 80.1667 281.347 76.9C277.88 73.6333 276.147 68.8333 276.147 62.5V40.4H267.847V28.4H276.147V15.3H291.747V28.4H305.147V40.4H291.747V62.3C291.747 64.5667 292.314 66.3333 293.447 67.6C294.647 68.8 296.314 69.4 298.447 69.4C300.914 69.4 303.014 68.7333 304.747 67.4L308.947 78.4ZM371.904 27.2V81H357.104V74.6C355.037 76.9333 352.571 78.7333 349.704 80C346.837 81.2 343.737 81.8 340.404 81.8C333.337 81.8 327.737 79.7667 323.604 75.7C319.471 71.6333 317.404 65.6 317.404 57.6V27.2H333.004V55.3C333.004 63.9667 336.637 68.3 343.904 68.3C347.637 68.3 350.637 67.1 352.904 64.7C355.171 62.2333 356.304 58.6 356.304 53.8V27.2H371.904ZM401.256 34.3C403.123 31.7 405.623 29.7333 408.756 28.4C411.956 27.0667 415.623 26.4 419.756 26.4V40.8C418.023 40.6667 416.856 40.6 416.256 40.6C411.79 40.6 408.29 41.8667 405.756 44.4C403.223 46.8667 401.956 50.6 401.956 55.6V81H386.356V27.2H401.256V34.3ZM481.244 54.3C481.244 54.5 481.144 55.9 480.944 58.5H440.244C440.977 61.8333 442.71 64.4667 445.444 66.4C448.177 68.3333 451.577 69.3 455.644 69.3C458.444 69.3 460.91 68.9 463.044 68.1C465.244 67.2333 467.277 65.9 469.144 64.1L477.444 73.1C472.377 78.9 464.977 81.8 455.244 81.8C449.177 81.8 443.81 80.6333 439.144 78.3C434.477 75.9 430.877 72.6 428.344 68.4C425.81 64.2 424.544 59.4333 424.544 54.1C424.544 48.8333 425.777 44.1 428.244 39.9C430.777 35.6333 434.21 32.3333 438.544 30C442.944 27.6 447.844 26.4 453.244 26.4C458.51 26.4 463.277 27.5333 467.544 29.8C471.81 32.0667 475.144 35.3333 477.544 39.6C480.01 43.8 481.244 48.7 481.244 54.3ZM453.344 38.2C449.81 38.2 446.844 39.2 444.444 41.2C442.044 43.2 440.577 45.9333 440.044 49.4H466.544C466.01 46 464.544 43.3 462.144 41.3C459.744 39.2333 456.81 38.2 453.344 38.2Z"/>
</mask>
<path d="M18.5 24V22H16.5V24H18.5ZM18.5 42.5H16.5V44.5H18.5V42.5ZM50.9 42.5H52.9V40.5H50.9V42.5ZM50.9 55.5V57.5H52.9V55.5H50.9ZM18.5 55.5V53.5H16.5V55.5H18.5ZM18.5 81V83H20.5V81H18.5ZM2.3 81H0.3V83H2.3V81ZM2.3 11V9H0.3V11H2.3ZM55.2 11H57.2V9H55.2V11ZM55.2 24V26H57.2V24H55.2ZM16.5 24V42.5H20.5V24H16.5ZM18.5 44.5H50.9V40.5H18.5V44.5ZM48.9 42.5V55.5H52.9V42.5H48.9ZM50.9 53.5H18.5V57.5H50.9V53.5ZM16.5 55.5V81H20.5V55.5H16.5ZM18.5 79H2.3V83H18.5V79ZM4.3 81V11H0.3V81H4.3ZM2.3 13H55.2V9H2.3V13ZM53.2 11V24H57.2V11H53.2ZM55.2 22H18.5V26H55.2V22ZM117.9 27.2H119.9V25.2H117.9V27.2ZM117.9 81V83H119.9V81H117.9ZM103.1 81H101.1V83H103.1V81ZM103.1 74.6H105.1V69.3255L101.603 73.2739L103.1 74.6ZM95.7 80L96.4723 81.8449L96.4904 81.8373L96.5083 81.8294L95.7 80ZM69.6 75.7L71.0027 74.2743L69.6 75.7ZM63.4 27.2V25.2H61.4V27.2H63.4ZM79 27.2H81V25.2H79V27.2ZM98.9 64.7L100.354 66.0732L100.363 66.0633L100.373 66.0533L98.9 64.7ZM102.3 27.2V25.2H100.3V27.2H102.3ZM115.9 27.2V81H119.9V27.2H115.9ZM117.9 79H103.1V83H117.9V79ZM105.1 81V74.6H101.1V81H105.1ZM101.603 73.2739C99.728 75.3907 97.4967 77.0196 94.8917 78.1706L96.5083 81.8294C99.6367 80.4471 102.339 78.476 104.597 75.9261L101.603 73.2739ZM94.9277 78.1551C92.323 79.2455 89.4876 79.8 86.4 79.8V83.8C89.979 83.8 93.3437 83.1545 96.4723 81.8449L94.9277 78.1551ZM86.4 79.8C79.7362 79.8 74.6832 77.8955 71.0027 74.2743L68.1973 77.1257C72.7835 81.6379 78.9305 83.8 86.4 83.8V79.8ZM71.0027 74.2743C67.378 70.7081 65.4 65.2721 65.4 57.6H61.4C61.4 65.9279 63.5554 72.5586 68.1973 77.1257L71.0027 74.2743ZM65.4 57.6V27.2H61.4V57.6H65.4ZM63.4 29.2H79V25.2H63.4V29.2ZM77 27.2V55.3H81V27.2H77ZM77 55.3C77 59.8641 77.9494 63.6598 80.1924 66.335C82.4921 69.0777 85.8568 70.3 89.9 70.3V66.3C86.6765 66.3 84.5912 65.3556 83.2576 63.765C81.8673 62.1069 81 59.4025 81 55.3H77ZM89.9 70.3C94.1044 70.3 97.6584 68.9275 100.354 66.0732L97.446 63.3268C95.6083 65.2725 93.1623 66.3 89.9 66.3V70.3ZM100.373 66.0533C103.101 63.0847 104.3 58.8857 104.3 53.8H100.3C100.3 58.3143 99.2328 61.382 97.4273 63.3467L100.373 66.0533ZM104.3 53.8V27.2H100.3V53.8H104.3ZM102.3 29.2H117.9V25.2H102.3V29.2ZM147.252 34.3H145.252V40.515L148.877 35.4664L147.252 34.3ZM154.752 28.4L153.983 26.5538L153.976 26.5567L153.969 26.5597L154.752 28.4ZM165.752 26.4H167.752V24.4H165.752V26.4ZM165.752 40.8L165.599 42.7941L167.752 42.9598V40.8H165.752ZM151.752 44.4L153.148 45.8329L153.157 45.8236L153.167 45.8142L151.752 44.4ZM147.952 81V83H149.952V81H147.952ZM132.352 81H130.352V83H132.352V81ZM132.352 27.2V25.2H130.352V27.2H132.352ZM147.252 27.2H149.252V25.2H147.252V27.2ZM148.877 35.4664C150.516 33.183 152.717 31.4398 155.535 30.2403L153.969 26.5597C150.521 28.0268 147.722 30.217 145.628 33.1336L148.877 35.4664ZM155.522 30.2462C158.436 29.0319 161.833 28.4 165.752 28.4V24.4C161.405 24.4 157.469 25.1014 153.983 26.5538L155.522 30.2462ZM163.752 26.4V40.8H167.752V26.4H163.752ZM165.906 38.8059C164.183 38.6734 162.941 38.6 162.252 38.6V42.6C162.763 42.6 163.855 42.6599 165.599 42.7941L165.906 38.8059ZM162.252 38.6C157.394 38.6 153.334 39.9897 150.338 42.9858L153.167 45.8142C155.237 43.7436 158.178 42.6 162.252 42.6V38.6ZM150.357 42.9671C147.3 45.9435 145.952 50.2872 145.952 55.6H149.952C149.952 50.9128 151.138 47.7898 153.148 45.8329L150.357 42.9671ZM145.952 55.6V81H149.952V55.6H145.952ZM147.952 79H132.352V83H147.952V79ZM134.352 81V27.2H130.352V81H134.352ZM132.352 29.2H147.252V25.2H132.352V29.2ZM145.252 27.2V34.3H149.252V27.2H145.252ZM223.828 32.4L222.426 33.8259L222.431 33.8316L222.437 33.8372L223.828 32.4ZM230.028 81V83H232.028V81H230.028ZM214.428 81H212.428V83H214.428V81ZM211.628 43.1L210.123 44.417L210.133 44.4289L210.144 44.4406L211.628 43.1ZM194.128 43.6L195.562 44.9942L195.572 44.9843L195.581 44.9744L194.128 43.6ZM190.628 81V83H192.628V81H190.628ZM175.028 81H173.028V83H175.028V81ZM175.028 27.2V25.2H173.028V27.2H175.028ZM189.928 27.2H191.928V25.2H189.928V27.2ZM189.928 33.5H187.928V38.662L191.406 34.8475L189.928 33.5ZM197.628 28.3L198.357 30.1625L198.374 30.1557L198.392 30.1485L197.628 28.3ZM207.728 28.4C213.965 28.4 218.796 30.2556 222.426 33.8259L225.231 30.9741C220.727 26.5444 214.824 24.4 207.728 24.4V28.4ZM222.437 33.8372C226.055 37.3384 228.028 42.6702 228.028 50.2H232.028C232.028 41.9965 229.868 35.4616 225.219 30.9628L222.437 33.8372ZM228.028 50.2V81H232.028V50.2H228.028ZM230.028 79H214.428V83H230.028V79ZM216.428 81V52.6H212.428V81H216.428ZM216.428 52.6C216.428 48.0924 215.449 44.3466 213.112 41.7594L210.144 44.4406C211.54 45.9867 212.428 48.5742 212.428 52.6H216.428ZM213.133 41.783C210.796 39.1121 207.485 37.9 203.528 37.9V41.9C206.638 41.9 208.727 42.8213 210.123 44.417L213.133 41.783ZM203.528 37.9C199.14 37.9 195.447 39.2954 192.675 42.2256L195.581 44.9744C197.476 42.9713 200.049 41.9 203.528 41.9V37.9ZM192.694 42.2058C189.866 45.1149 188.628 49.3056 188.628 54.4H192.628C192.628 49.8944 193.724 46.8851 195.562 44.9942L192.694 42.2058ZM188.628 54.4V81H192.628V54.4H188.628ZM190.628 79H175.028V83H190.628V79ZM177.028 81V27.2H173.028V81H177.028ZM175.028 29.2H189.928V25.2H175.028V29.2ZM187.928 27.2V33.5H191.928V27.2H187.928ZM191.406 34.8475C193.251 32.8242 195.555 31.259 198.357 30.1625L196.899 26.4375C193.568 27.741 190.739 29.6425 188.45 32.1525L191.406 34.8475ZM198.392 30.1485C201.192 28.9919 204.296 28.4 207.728 28.4V24.4C203.827 24.4 200.198 25.0748 196.865 26.4515L198.392 30.1485ZM244.169 27.2V25.2H242.169V27.2H244.169ZM259.769 27.2H261.769V25.2H259.769V27.2ZM259.769 81V83H261.769V81H259.769ZM244.169 81H242.169V83H244.169V81ZM244.969 17.2L243.61 18.6675V18.6675L244.969 17.2ZM244.969 4.8L246.328 6.26752V6.26752L244.969 4.8ZM258.969 4.7L257.64 6.19482V6.19482L258.969 4.7ZM258.969 17.2L260.328 18.6675L260.342 18.6542L260.356 18.6406L258.969 17.2ZM244.169 29.2H259.769V25.2H244.169V29.2ZM257.769 27.2V81H261.769V27.2H257.769ZM259.769 79H244.169V83H259.769V79ZM246.169 81V27.2H242.169V81H246.169ZM251.969 17.7C249.515 17.7 247.696 16.9999 246.328 15.7325L243.61 18.6675C245.841 20.7334 248.689 21.7 251.969 21.7V17.7ZM246.328 15.7325C244.939 14.4467 244.269 12.913 244.269 11H240.269C240.269 14.0203 241.399 16.62 243.61 18.6675L246.328 15.7325ZM244.269 11C244.269 9.08695 244.939 7.55329 246.328 6.26752L243.61 3.33248C241.399 5.38003 240.269 7.97971 240.269 11H244.269ZM246.328 6.26752C247.696 5.00011 249.515 4.29999 251.969 4.29999V0.299994C248.689 0.299994 245.841 1.26655 243.61 3.33248L246.328 6.26752ZM251.969 4.29999C254.444 4.29999 256.273 4.9801 257.64 6.19482L260.297 3.20518C258.064 1.21989 255.227 0.299994 251.969 0.299994V4.29999ZM257.64 6.19482C259.015 7.41679 259.669 8.87354 259.669 10.7H263.669C263.669 7.72645 262.523 5.1832 260.297 3.20518L257.64 6.19482ZM259.669 10.7C259.669 12.7812 258.973 14.4198 257.581 15.7594L260.356 18.6406C262.565 16.5135 263.669 13.8188 263.669 10.7H259.669ZM257.61 15.7325C256.241 16.9999 254.422 17.7 251.969 17.7V21.7C255.249 21.7 258.096 20.7334 260.328 18.6675L257.61 15.7325ZM308.947 78.4L310.136 80.0084L311.357 79.1056L310.815 77.6866L308.947 78.4ZM303.247 81L303.718 82.9437L303.738 82.9388L303.759 82.9334L303.247 81ZM281.347 76.9L279.975 78.3556L279.982 78.3621L279.989 78.3685L281.347 76.9ZM276.147 40.4H278.147V38.4H276.147V40.4ZM267.847 40.4H265.847V42.4H267.847V40.4ZM267.847 28.4V26.4H265.847V28.4H267.847ZM276.147 28.4V30.4H278.147V28.4H276.147ZM276.147 15.3V13.3H274.147V15.3H276.147ZM291.747 15.3H293.747V13.3H291.747V15.3ZM291.747 28.4H289.747V30.4H291.747V28.4ZM305.147 28.4H307.147V26.4H305.147V28.4ZM305.147 40.4V42.4H307.147V40.4H305.147ZM291.747 40.4V38.4H289.747V40.4H291.747ZM293.447 67.6L291.956 68.9336L291.993 68.975L292.033 69.0142L293.447 67.6ZM304.747 67.4L306.615 66.6866L305.657 64.1767L303.527 65.8148L304.747 67.4ZM307.758 76.7916C306.469 77.7447 304.812 78.5168 302.735 79.0666L303.759 82.9334C306.215 82.2832 308.358 81.322 310.136 80.0084L307.758 76.7916ZM302.776 79.0563C300.743 79.5491 298.569 79.8 296.247 79.8V83.8C298.858 83.8 301.351 83.5176 303.718 82.9437L302.776 79.0563ZM296.247 79.8C290.18 79.8 285.76 78.2564 282.705 75.4315L279.989 78.3685C284 82.0769 289.513 83.8 296.247 83.8V79.8ZM282.718 75.4444C279.773 72.6685 278.147 68.4719 278.147 62.5H274.147C274.147 69.1948 275.988 74.5981 279.975 78.3556L282.718 75.4444ZM278.147 62.5V40.4H274.147V62.5H278.147ZM276.147 38.4H267.847V42.4H276.147V38.4ZM269.847 40.4V28.4H265.847V40.4H269.847ZM267.847 30.4H276.147V26.4H267.847V30.4ZM278.147 28.4V15.3H274.147V28.4H278.147ZM276.147 17.3H291.747V13.3H276.147V17.3ZM289.747 15.3V28.4H293.747V15.3H289.747ZM291.747 30.4H305.147V26.4H291.747V30.4ZM303.147 28.4V40.4H307.147V28.4H303.147ZM305.147 38.4H291.747V42.4H305.147V38.4ZM289.747 40.4V62.3H293.747V40.4H289.747ZM289.747 62.3C289.747 64.8919 290.399 67.1925 291.956 68.9336L294.937 66.2664C294.229 65.4742 293.747 64.2414 293.747 62.3H289.747ZM292.033 69.0142C293.698 70.68 295.927 71.4 298.447 71.4V67.4C296.7 67.4 295.595 66.92 294.861 66.1858L292.033 69.0142ZM298.447 71.4C301.295 71.4 303.839 70.6216 305.966 68.9852L303.527 65.8148C302.188 66.8451 300.532 67.4 298.447 67.4V71.4ZM302.878 68.1134L307.078 79.1134L310.815 77.6866L306.615 66.6866L302.878 68.1134ZM371.904 27.2H373.904V25.2H371.904V27.2ZM371.904 81V83H373.904V81H371.904ZM357.104 81H355.104V83H357.104V81ZM357.104 74.6H359.104V69.3255L355.607 73.2739L357.104 74.6ZM349.704 80L350.476 81.8449L350.494 81.8373L350.512 81.8294L349.704 80ZM323.604 75.7L325.007 74.2743L323.604 75.7ZM317.404 27.2V25.2H315.404V27.2H317.404ZM333.004 27.2H335.004V25.2H333.004V27.2ZM352.904 64.7L354.358 66.0732L354.367 66.0633L354.377 66.0533L352.904 64.7ZM356.304 27.2V25.2H354.304V27.2H356.304ZM369.904 27.2V81H373.904V27.2H369.904ZM371.904 79H357.104V83H371.904V79ZM359.104 81V74.6H355.104V81H359.104ZM355.607 73.2739C353.732 75.3907 351.501 77.0196 348.896 78.1706L350.512 81.8294C353.641 80.4471 356.343 78.476 358.601 75.9261L355.607 73.2739ZM348.932 78.1551C346.327 79.2455 343.492 79.8 340.404 79.8V83.8C343.983 83.8 347.348 83.1545 350.476 81.8449L348.932 78.1551ZM340.404 79.8C333.74 79.8 328.687 77.8955 325.007 74.2743L322.201 77.1257C326.787 81.6379 332.934 83.8 340.404 83.8V79.8ZM325.007 74.2743C321.382 70.7081 319.404 65.2721 319.404 57.6H315.404C315.404 65.9279 317.559 72.5586 322.201 77.1257L325.007 74.2743ZM319.404 57.6V27.2H315.404V57.6H319.404ZM317.404 29.2H333.004V25.2H317.404V29.2ZM331.004 27.2V55.3H335.004V27.2H331.004ZM331.004 55.3C331.004 59.8641 331.953 63.6598 334.196 66.335C336.496 69.0777 339.861 70.3 343.904 70.3V66.3C340.68 66.3 338.595 65.3556 337.261 63.765C335.871 62.1069 335.004 59.4025 335.004 55.3H331.004ZM343.904 70.3C348.108 70.3 351.662 68.9275 354.358 66.0732L351.45 63.3268C349.612 65.2725 347.166 66.3 343.904 66.3V70.3ZM354.377 66.0533C357.104 63.0847 358.304 58.8857 358.304 53.8H354.304C354.304 58.3143 353.237 61.382 351.431 63.3467L354.377 66.0533ZM358.304 53.8V27.2H354.304V53.8H358.304ZM356.304 29.2H371.904V25.2H356.304V29.2ZM401.256 34.3H399.256V40.515L402.881 35.4664L401.256 34.3ZM408.756 28.4L407.987 26.5538L407.98 26.5567L407.973 26.5597L408.756 28.4ZM419.756 26.4H421.756V24.4H419.756V26.4ZM419.756 40.8L419.603 42.7941L421.756 42.9598V40.8H419.756ZM405.756 44.4L407.151 45.8329L407.161 45.8236L407.17 45.8142L405.756 44.4ZM401.956 81V83H403.956V81H401.956ZM386.356 81H384.356V83H386.356V81ZM386.356 27.2V25.2H384.356V27.2H386.356ZM401.256 27.2H403.256V25.2H401.256V27.2ZM402.881 35.4664C404.52 33.183 406.721 31.4398 409.539 30.2403L407.973 26.5597C404.525 28.0268 401.726 30.217 399.632 33.1336L402.881 35.4664ZM409.525 30.2462C412.44 29.0319 415.837 28.4 419.756 28.4V24.4C415.409 24.4 411.473 25.1014 407.987 26.5538L409.525 30.2462ZM417.756 26.4V40.8H421.756V26.4H417.756ZM419.91 38.8059C418.187 38.6734 416.945 38.6 416.256 38.6V42.6C416.767 42.6 417.859 42.6599 419.603 42.7941L419.91 38.8059ZM416.256 38.6C411.398 38.6 407.338 39.9897 404.342 42.9858L407.17 45.8142C409.241 43.7436 412.182 42.6 416.256 42.6V38.6ZM404.361 42.9671C401.304 45.9435 399.956 50.2872 399.956 55.6H403.956C403.956 50.9128 405.142 47.7898 407.151 45.8329L404.361 42.9671ZM399.956 55.6V81H403.956V55.6H399.956ZM401.956 79H386.356V83H401.956V79ZM388.356 81V27.2H384.356V81H388.356ZM386.356 29.2H401.256V25.2H386.356V29.2ZM399.256 27.2V34.3H403.256V27.2H399.256ZM480.944 58.5V60.5H482.796L482.938 58.6534L480.944 58.5ZM440.244 58.5V56.5H437.756L438.29 58.9297L440.244 58.5ZM445.444 66.4L446.599 64.7672L445.444 66.4ZM463.044 68.1L463.746 69.9727L463.761 69.9669L463.777 69.9608L463.044 68.1ZM469.144 64.1L470.614 62.7441L469.228 61.2408L467.755 62.6603L469.144 64.1ZM477.444 73.1L478.95 74.4158L480.131 73.0638L478.914 71.7441L477.444 73.1ZM439.144 78.3L438.229 80.0786L438.239 80.0838L438.249 80.0889L439.144 78.3ZM428.344 68.4L426.631 69.433L428.344 68.4ZM428.244 39.9L426.524 38.8789L426.519 38.8872L428.244 39.9ZM438.544 30L439.492 31.761L439.501 31.7558L438.544 30ZM467.544 29.8L468.482 28.0338L467.544 29.8ZM477.544 39.6L475.801 40.5805L475.81 40.5968L475.819 40.6128L477.544 39.6ZM444.444 41.2L443.163 39.6636L444.444 41.2ZM440.044 49.4L438.067 49.0959L437.713 51.4H440.044V49.4ZM466.544 49.4V51.4H468.882L468.52 49.0901L466.544 49.4ZM462.144 41.3L460.839 42.8155L460.851 42.8261L460.863 42.8364L462.144 41.3ZM479.244 54.3C479.244 54.2734 479.243 54.3269 479.229 54.5502C479.217 54.7415 479.199 55.0098 479.174 55.3575C479.124 56.052 479.05 57.0477 478.95 58.3466L482.938 58.6534C483.132 56.1275 483.244 54.6014 483.244 54.3H479.244ZM480.944 56.5H440.244V60.5H480.944V56.5ZM438.29 58.9297C439.129 62.7391 441.14 65.8057 444.289 68.0328L446.599 64.7672C444.281 63.1276 442.826 60.9276 442.197 58.0703L438.29 58.9297ZM444.289 68.0328C447.427 70.2524 451.254 71.3 455.644 71.3V67.3C451.9 67.3 448.927 66.4143 446.599 64.7672L444.289 68.0328ZM455.644 71.3C458.631 71.3 461.343 70.8737 463.746 69.9727L462.341 66.2273C460.478 66.9263 458.257 67.3 455.644 67.3V71.3ZM463.777 69.9608C466.243 68.9892 468.495 67.504 470.532 65.5397L467.755 62.6603C466.059 64.296 464.244 65.4775 462.311 66.2392L463.777 69.9608ZM467.674 65.4559L475.974 74.4559L478.914 71.7441L470.614 62.7441L467.674 65.4559ZM475.938 71.7842C471.347 77.0396 464.564 79.8 455.244 79.8V83.8C465.391 83.8 473.408 80.7604 478.95 74.4158L475.938 71.7842ZM455.244 79.8C449.437 79.8 444.385 78.6847 440.038 76.5111L438.249 80.0889C443.236 82.582 448.917 83.8 455.244 83.8V79.8ZM440.058 76.5214C435.698 74.2788 432.385 71.2269 430.056 67.367L426.631 69.433C429.37 73.9731 433.256 77.5212 438.229 80.0786L440.058 76.5214ZM430.056 67.367C427.727 63.5058 426.544 59.1022 426.544 54.1H422.544C422.544 59.7645 423.893 64.8942 426.631 69.433L430.056 67.367ZM426.544 54.1C426.544 49.1595 427.697 44.781 429.968 40.9128L426.519 38.8872C423.858 43.419 422.544 48.5071 422.544 54.1H426.544ZM429.963 40.9211C432.313 36.9638 435.481 33.9207 439.492 31.7609L437.596 28.2391C432.94 30.7459 429.241 34.3029 426.524 38.8789L429.963 40.9211ZM439.501 31.7558C443.585 29.5283 448.152 28.4 453.244 28.4V24.4C447.536 24.4 442.302 25.6717 437.586 28.2442L439.501 31.7558ZM453.244 28.4C458.213 28.4 462.653 29.4666 466.605 31.5662L468.482 28.0338C463.901 25.6001 458.807 24.4 453.244 24.4V28.4ZM466.605 31.5662C470.529 33.6509 473.586 36.6427 475.801 40.5805L479.287 38.6195C476.702 34.024 473.091 30.4825 468.482 28.0338L466.605 31.5662ZM475.819 40.6128C478.08 44.4622 479.244 49.002 479.244 54.3H483.244C483.244 48.398 481.941 43.1378 479.268 38.5872L475.819 40.6128ZM453.344 36.2C449.408 36.2 445.97 37.3249 443.163 39.6636L445.724 42.7364C447.718 41.0751 450.213 40.2 453.344 40.2V36.2ZM443.163 39.6636C440.342 42.0145 438.665 45.2107 438.067 49.0959L442.021 49.7041C442.489 46.656 443.745 44.3855 445.724 42.7364L443.163 39.6636ZM440.044 51.4H466.544V47.4H440.044V51.4ZM468.52 49.0901C467.919 45.2629 466.236 42.1068 463.424 39.7636L460.863 42.8364C462.851 44.4932 464.102 46.7371 464.568 49.7099L468.52 49.0901ZM463.449 39.7845C460.651 37.3748 457.241 36.2 453.344 36.2V40.2C456.38 40.2 458.837 41.0918 460.839 42.8155L463.449 39.7845Z" fill="#282A30" fill-opacity="0.5" mask="url(#path-1-outside-1_27_6)"/>
</svg>
