<svg width="649" height="399" viewBox="0 0 649 399" fill="none" xmlns="http://www.w3.org/2000/svg">
<g filter="url(#filter0_d_27_27)">
<rect x="80" y="96" width="449" height="199" fill="white"/>
</g>
<circle cx="149.5" cy="165.5" r="25.5" fill="#F7515C" fill-opacity="0.05"/>
<path d="M153.92 162.78C153.92 163.287 153.82 163.773 153.62 164.24C153.42 164.707 153.16 165.16 152.84 165.6C152.52 166.027 152.16 166.44 151.76 166.84C151.36 167.24 150.967 167.62 150.58 167.98C150.38 168.167 150.16 168.38 149.92 168.62C149.693 168.847 149.473 169.08 149.26 169.32C149.047 169.56 148.853 169.787 148.68 170C148.52 170.2 148.42 170.367 148.38 170.5H154.34V173H145.1C145.073 172.853 145.06 172.667 145.06 172.44C145.06 172.213 145.06 172.053 145.06 171.96C145.06 171.32 145.16 170.733 145.36 170.2C145.573 169.667 145.847 169.173 146.18 168.72C146.513 168.253 146.887 167.82 147.3 167.42C147.727 167.02 148.147 166.62 148.56 166.22C148.88 165.913 149.18 165.627 149.46 165.36C149.74 165.08 149.987 164.813 150.2 164.56C150.413 164.293 150.58 164.033 150.7 163.78C150.82 163.513 150.88 163.247 150.88 162.98C150.88 162.393 150.713 161.98 150.38 161.74C150.047 161.5 149.633 161.38 149.14 161.38C148.78 161.38 148.44 161.44 148.12 161.56C147.813 161.667 147.527 161.8 147.26 161.96C147.007 162.107 146.787 162.26 146.6 162.42C146.413 162.567 146.273 162.687 146.18 162.78L144.7 160.7C145.287 160.153 145.967 159.707 146.74 159.36C147.527 159 148.367 158.82 149.26 158.82C150.073 158.82 150.773 158.913 151.36 159.1C151.947 159.287 152.427 159.553 152.8 159.9C153.187 160.233 153.467 160.647 153.64 161.14C153.827 161.62 153.92 162.167 153.92 162.78Z" fill="#F7515C"/>
<path d="M198.66 159H201.9V170.36H208.92V173H198.66V159ZM215.552 173.16C214.419 173.16 213.399 172.927 212.492 172.46C211.599 171.98 210.899 171.32 210.392 170.48C209.886 169.64 209.632 168.687 209.632 167.62C209.632 166.553 209.886 165.6 210.392 164.76C210.899 163.92 211.599 163.267 212.492 162.8C213.399 162.32 214.419 162.08 215.552 162.08C216.686 162.08 217.699 162.32 218.592 162.8C219.486 163.267 220.186 163.92 220.692 164.76C221.199 165.6 221.452 166.553 221.452 167.62C221.452 168.687 221.199 169.64 220.692 170.48C220.186 171.32 219.486 171.98 218.592 172.46C217.699 172.927 216.686 173.16 215.552 173.16ZM215.552 170.6C216.352 170.6 217.006 170.333 217.512 169.8C218.032 169.253 218.292 168.527 218.292 167.62C218.292 166.713 218.032 165.993 217.512 165.46C217.006 164.913 216.352 164.64 215.552 164.64C214.752 164.64 214.092 164.913 213.572 165.46C213.052 165.993 212.792 166.713 212.792 167.62C212.792 168.527 213.052 169.253 213.572 169.8C214.092 170.333 214.752 170.6 215.552 170.6ZM230.078 162.08C231.411 162.08 232.484 162.48 233.298 163.28C234.124 164.08 234.538 165.267 234.538 166.84V173H231.418V167.32C231.418 166.467 231.231 165.833 230.858 165.42C230.484 164.993 229.944 164.78 229.238 164.78C228.451 164.78 227.824 165.027 227.358 165.52C226.891 166 226.658 166.72 226.658 167.68V173H223.538V162.24H226.518V163.5C226.931 163.047 227.444 162.7 228.058 162.46C228.671 162.207 229.344 162.08 230.078 162.08ZM248.583 162.24V171.2C248.583 173.173 248.07 174.64 247.043 175.6C246.016 176.56 244.516 177.04 242.543 177.04C241.503 177.04 240.516 176.913 239.583 176.66C238.65 176.407 237.876 176.04 237.263 175.56L238.503 173.32C238.956 173.693 239.53 173.987 240.223 174.2C240.916 174.427 241.61 174.54 242.303 174.54C243.383 174.54 244.176 174.293 244.683 173.8C245.203 173.32 245.463 172.587 245.463 171.6V171.14C244.65 172.033 243.516 172.48 242.063 172.48C241.076 172.48 240.17 172.267 239.343 171.84C238.53 171.4 237.883 170.787 237.403 170C236.923 169.213 236.683 168.307 236.683 167.28C236.683 166.253 236.923 165.347 237.403 164.56C237.883 163.773 238.53 163.167 239.343 162.74C240.17 162.3 241.076 162.08 242.063 162.08C243.623 162.08 244.81 162.593 245.623 163.62V162.24H248.583ZM242.683 169.92C243.51 169.92 244.183 169.68 244.703 169.2C245.236 168.707 245.503 168.067 245.503 167.28C245.503 166.493 245.236 165.86 244.703 165.38C244.183 164.887 243.51 164.64 242.683 164.64C241.856 164.64 241.176 164.887 240.643 165.38C240.11 165.86 239.843 166.493 239.843 167.28C239.843 168.067 240.11 168.707 240.643 169.2C241.176 169.68 241.856 169.92 242.683 169.92ZM274.431 162.24L270.531 173H267.531L265.111 166.32L262.611 173H259.611L255.731 162.24H258.671L261.211 169.52L263.851 162.24H266.491L269.051 169.52L271.671 162.24H274.431ZM279.87 162.08C281.537 162.08 282.817 162.48 283.71 163.28C284.603 164.067 285.05 165.26 285.05 166.86V173H282.13V171.66C281.543 172.66 280.45 173.16 278.85 173.16C278.023 173.16 277.303 173.02 276.69 172.74C276.09 172.46 275.63 172.073 275.31 171.58C274.99 171.087 274.83 170.527 274.83 169.9C274.83 168.9 275.203 168.113 275.95 167.54C276.71 166.967 277.877 166.68 279.45 166.68H281.93C281.93 166 281.723 165.48 281.31 165.12C280.897 164.747 280.277 164.56 279.45 164.56C278.877 164.56 278.31 164.653 277.75 164.84C277.203 165.013 276.737 165.253 276.35 165.56L275.23 163.38C275.817 162.967 276.517 162.647 277.33 162.42C278.157 162.193 279.003 162.08 279.87 162.08ZM279.63 171.06C280.163 171.06 280.637 170.94 281.05 170.7C281.463 170.447 281.757 170.08 281.93 169.6V168.5H279.79C278.51 168.5 277.87 168.92 277.87 169.76C277.87 170.16 278.023 170.48 278.33 170.72C278.65 170.947 279.083 171.06 279.63 171.06ZM290.854 163.66C291.227 163.14 291.727 162.747 292.354 162.48C292.994 162.213 293.727 162.08 294.554 162.08V164.96C294.207 164.933 293.974 164.92 293.854 164.92C292.96 164.92 292.26 165.173 291.754 165.68C291.247 166.173 290.994 166.92 290.994 167.92V173H287.874V162.24H290.854V163.66ZM299.389 163.66C299.762 163.14 300.262 162.747 300.889 162.48C301.529 162.213 302.262 162.08 303.089 162.08V164.96C302.742 164.933 302.509 164.92 302.389 164.92C301.495 164.92 300.795 165.173 300.289 165.68C299.782 166.173 299.529 166.92 299.529 167.92V173H296.409V162.24H299.389V163.66ZM309.225 162.08C310.892 162.08 312.172 162.48 313.065 163.28C313.959 164.067 314.405 165.26 314.405 166.86V173H311.485V171.66C310.899 172.66 309.805 173.16 308.205 173.16C307.379 173.16 306.659 173.02 306.045 172.74C305.445 172.46 304.985 172.073 304.665 171.58C304.345 171.087 304.185 170.527 304.185 169.9C304.185 168.9 304.559 168.113 305.305 167.54C306.065 166.967 307.232 166.68 308.805 166.68H311.285C311.285 166 311.079 165.48 310.665 165.12C310.252 164.747 309.632 164.56 308.805 164.56C308.232 164.56 307.665 164.653 307.105 164.84C306.559 165.013 306.092 165.253 305.705 165.56L304.585 163.38C305.172 162.967 305.872 162.647 306.685 162.42C307.512 162.193 308.359 162.08 309.225 162.08ZM308.985 171.06C309.519 171.06 309.992 170.94 310.405 170.7C310.819 170.447 311.112 170.08 311.285 169.6V168.5H309.145C307.865 168.5 307.225 168.92 307.225 169.76C307.225 170.16 307.379 170.48 307.685 170.72C308.005 170.947 308.439 171.06 308.985 171.06ZM323.769 162.08C325.102 162.08 326.176 162.48 326.989 163.28C327.816 164.08 328.229 165.267 328.229 166.84V173H325.109V167.32C325.109 166.467 324.922 165.833 324.549 165.42C324.176 164.993 323.636 164.78 322.929 164.78C322.142 164.78 321.516 165.027 321.049 165.52C320.582 166 320.349 166.72 320.349 167.68V173H317.229V162.24H320.209V163.5C320.622 163.047 321.136 162.7 321.749 162.46C322.362 162.207 323.036 162.08 323.769 162.08ZM337.997 172.48C337.691 172.707 337.311 172.88 336.857 173C336.417 173.107 335.951 173.16 335.457 173.16C334.177 173.16 333.184 172.833 332.477 172.18C331.784 171.527 331.437 170.567 331.437 169.3V164.88H329.777V162.48H331.437V159.86H334.557V162.48H337.237V164.88H334.557V169.26C334.557 169.713 334.671 170.067 334.897 170.32C335.137 170.56 335.471 170.68 335.897 170.68C336.391 170.68 336.811 170.547 337.157 170.28L337.997 172.48ZM350.233 162.24L345.373 173.66C344.88 174.9 344.267 175.773 343.533 176.28C342.813 176.787 341.94 177.04 340.913 177.04C340.353 177.04 339.8 176.953 339.253 176.78C338.707 176.607 338.26 176.367 337.913 176.06L339.053 173.84C339.293 174.053 339.567 174.22 339.873 174.34C340.193 174.46 340.507 174.52 340.813 174.52C341.24 174.52 341.587 174.413 341.853 174.2C342.12 174 342.36 173.66 342.573 173.18L342.613 173.08L337.953 162.24H341.173L344.193 169.54L347.233 162.24H350.233ZM352.042 173.16C351.495 173.16 351.035 172.973 350.662 172.6C350.289 172.227 350.102 171.76 350.102 171.2C350.102 170.627 350.289 170.167 350.662 169.82C351.035 169.46 351.495 169.28 352.042 169.28C352.589 169.28 353.049 169.46 353.422 169.82C353.795 170.167 353.982 170.627 353.982 171.2C353.982 171.76 353.795 172.227 353.422 172.6C353.049 172.973 352.589 173.16 352.042 173.16Z" fill="#282A30"/>
<path d="M210.832 195.41C210.869 195.289 210.935 195.2 211.028 195.144C211.121 195.079 211.224 195.046 211.336 195.046C211.485 195.046 211.611 195.093 211.714 195.186C211.826 195.27 211.882 195.387 211.882 195.536C211.882 195.601 211.868 195.676 211.84 195.76L208.676 204.678C208.629 204.809 208.55 204.911 208.438 204.986C208.326 205.051 208.2 205.084 208.06 205.084C207.929 205.084 207.808 205.051 207.696 204.986C207.584 204.911 207.505 204.809 207.458 204.678L204.714 196.922L201.942 204.678C201.895 204.809 201.816 204.911 201.704 204.986C201.592 205.051 201.471 205.084 201.34 205.084C201.209 205.084 201.088 205.051 200.976 204.986C200.864 204.911 200.785 204.809 200.738 204.678L197.56 195.76C197.532 195.685 197.518 195.615 197.518 195.55C197.518 195.401 197.574 195.279 197.686 195.186C197.807 195.093 197.943 195.046 198.092 195.046C198.204 195.046 198.307 195.079 198.4 195.144C198.503 195.2 198.573 195.289 198.61 195.41L201.368 203.362L204.168 195.494C204.215 195.354 204.289 195.251 204.392 195.186C204.495 195.111 204.607 195.074 204.728 195.074C204.849 195.074 204.961 195.111 205.064 195.186C205.167 195.261 205.241 195.368 205.288 195.508L208.046 203.39L210.832 195.41ZM214.032 205.07C213.864 205.07 213.724 205.023 213.612 204.93C213.51 204.827 213.458 204.687 213.458 204.51V198.602C213.458 198.425 213.51 198.289 213.612 198.196C213.724 198.093 213.864 198.042 214.032 198.042C214.2 198.042 214.336 198.093 214.438 198.196C214.541 198.289 214.592 198.425 214.592 198.602V204.51C214.592 204.697 214.541 204.837 214.438 204.93C214.336 205.023 214.2 205.07 214.032 205.07ZM214.032 196.572C213.808 196.572 213.626 196.507 213.486 196.376C213.346 196.245 213.276 196.073 213.276 195.858C213.276 195.653 213.346 195.485 213.486 195.354C213.626 195.223 213.808 195.158 214.032 195.158C214.256 195.158 214.438 195.223 214.578 195.354C214.718 195.485 214.788 195.653 214.788 195.858C214.788 196.073 214.718 196.245 214.578 196.376C214.438 196.507 214.256 196.572 214.032 196.572ZM219.862 204.174C220.189 204.202 220.352 204.351 220.352 204.622C220.352 204.781 220.291 204.902 220.17 204.986C220.058 205.061 219.885 205.089 219.652 205.07L219.274 205.042C218.527 204.986 217.977 204.762 217.622 204.37C217.267 203.978 217.09 203.385 217.09 202.592V199.078H216.152C215.993 199.078 215.867 199.041 215.774 198.966C215.69 198.882 215.648 198.775 215.648 198.644C215.648 198.504 215.69 198.392 215.774 198.308C215.867 198.224 215.993 198.182 216.152 198.182H217.09V196.6C217.09 196.423 217.141 196.287 217.244 196.194C217.347 196.091 217.487 196.04 217.664 196.04C217.832 196.04 217.967 196.091 218.07 196.194C218.173 196.287 218.224 196.423 218.224 196.6V198.182H219.778C219.927 198.182 220.044 198.224 220.128 198.308C220.221 198.392 220.268 198.504 220.268 198.644C220.268 198.775 220.221 198.882 220.128 198.966C220.044 199.041 219.927 199.078 219.778 199.078H218.224V202.648C218.224 203.161 218.327 203.535 218.532 203.768C218.747 203.992 219.064 204.118 219.484 204.146L219.862 204.174ZM224.914 198.014C225.717 198.014 226.323 198.243 226.734 198.7C227.145 199.148 227.35 199.82 227.35 200.716V204.51C227.35 204.687 227.299 204.827 227.196 204.93C227.093 205.023 226.958 205.07 226.79 205.07C226.613 205.07 226.473 205.023 226.37 204.93C226.267 204.827 226.216 204.687 226.216 204.51V200.744C226.216 200.137 226.09 199.689 225.838 199.4C225.595 199.111 225.203 198.966 224.662 198.966C224.037 198.966 223.537 199.157 223.164 199.54C222.791 199.923 222.604 200.441 222.604 201.094V204.51C222.604 204.687 222.553 204.827 222.45 204.93C222.357 205.023 222.221 205.07 222.044 205.07C221.867 205.07 221.727 205.023 221.624 204.93C221.521 204.827 221.47 204.687 221.47 204.51V195.606C221.47 195.447 221.521 195.317 221.624 195.214C221.736 195.111 221.876 195.06 222.044 195.06C222.221 195.06 222.357 195.111 222.45 195.214C222.553 195.307 222.604 195.438 222.604 195.606V199.274C222.828 198.863 223.141 198.551 223.542 198.336C223.943 198.121 224.401 198.014 224.914 198.014ZM235.822 198.014C237.53 198.014 238.384 198.91 238.384 200.702V204.51C238.384 204.678 238.333 204.813 238.23 204.916C238.137 205.019 238.006 205.07 237.838 205.07C237.67 205.07 237.535 205.019 237.432 204.916C237.33 204.813 237.278 204.678 237.278 204.51V203.838C237.101 204.239 236.83 204.552 236.466 204.776C236.102 204.991 235.682 205.098 235.206 205.098C234.768 205.098 234.362 205.009 233.988 204.832C233.624 204.655 233.335 204.407 233.12 204.09C232.906 203.773 232.798 203.423 232.798 203.04C232.798 202.527 232.929 202.13 233.19 201.85C233.452 201.561 233.881 201.355 234.478 201.234C235.076 201.103 235.906 201.038 236.97 201.038H237.278V200.576C237.278 200.016 237.162 199.605 236.928 199.344C236.704 199.083 236.336 198.952 235.822 198.952C235.188 198.952 234.544 199.125 233.89 199.47C233.638 199.629 233.461 199.708 233.358 199.708C233.246 199.708 233.153 199.666 233.078 199.582C233.004 199.498 232.966 199.391 232.966 199.26C232.966 199.129 233.004 199.017 233.078 198.924C233.162 198.821 233.293 198.719 233.47 198.616C233.797 198.429 234.166 198.285 234.576 198.182C234.996 198.07 235.412 198.014 235.822 198.014ZM235.36 204.202C235.92 204.202 236.378 204.015 236.732 203.642C237.096 203.259 237.278 202.769 237.278 202.172V201.766H237.026C236.205 201.766 235.58 201.803 235.15 201.878C234.721 201.943 234.413 202.06 234.226 202.228C234.049 202.387 233.96 202.625 233.96 202.942C233.96 203.306 234.091 203.609 234.352 203.852C234.623 204.085 234.959 204.202 235.36 204.202ZM247.598 198.812C248.223 198.812 248.769 198.943 249.236 199.204C249.712 199.465 250.076 199.834 250.328 200.31C250.589 200.777 250.72 201.318 250.72 201.934C250.72 202.55 250.58 203.101 250.3 203.586C250.02 204.062 249.628 204.435 249.124 204.706C248.629 204.967 248.055 205.098 247.402 205.098C246.823 205.098 246.258 204.995 245.708 204.79C245.157 204.585 244.69 204.305 244.308 203.95C244.158 203.81 244.084 203.651 244.084 203.474C244.084 203.334 244.121 203.217 244.196 203.124C244.27 203.031 244.359 202.984 244.462 202.984C244.592 202.984 244.723 203.035 244.854 203.138C245.264 203.474 245.675 203.726 246.086 203.894C246.496 204.053 246.926 204.132 247.374 204.132C248.064 204.132 248.606 203.936 248.998 203.544C249.39 203.152 249.586 202.62 249.586 201.948C249.586 201.295 249.39 200.767 248.998 200.366C248.606 199.965 248.078 199.764 247.416 199.764C246.566 199.764 245.876 200.091 245.344 200.744C245.213 200.884 245.054 200.954 244.868 200.954C244.737 200.954 244.625 200.917 244.532 200.842C244.448 200.758 244.406 200.646 244.406 200.506V195.676C244.406 195.517 244.452 195.387 244.546 195.284C244.648 195.181 244.788 195.13 244.966 195.13H249.894C250.062 195.13 250.192 195.172 250.286 195.256C250.388 195.34 250.44 195.457 250.44 195.606C250.44 195.755 250.388 195.872 250.286 195.956C250.192 196.04 250.062 196.082 249.894 196.082H245.54V199.596C245.801 199.344 246.104 199.153 246.45 199.022C246.804 198.882 247.187 198.812 247.598 198.812ZM252.842 201.738C252.674 201.738 252.543 201.696 252.45 201.612C252.366 201.528 252.324 201.416 252.324 201.276C252.324 201.136 252.366 201.024 252.45 200.94C252.543 200.847 252.674 200.8 252.842 200.8H255.922C256.099 200.8 256.23 200.847 256.314 200.94C256.407 201.024 256.454 201.136 256.454 201.276C256.454 201.416 256.407 201.528 256.314 201.612C256.23 201.696 256.099 201.738 255.922 201.738H252.842ZM263.12 198.392C263.223 198.168 263.386 198.056 263.61 198.056C263.75 198.056 263.876 198.103 263.988 198.196C264.1 198.289 264.156 198.406 264.156 198.546C264.156 198.63 264.138 198.705 264.1 198.77L260.166 207.254C260.12 207.357 260.05 207.436 259.956 207.492C259.872 207.548 259.784 207.576 259.69 207.576C259.55 207.576 259.424 207.529 259.312 207.436C259.21 207.352 259.158 207.24 259.158 207.1C259.158 207.025 259.177 206.951 259.214 206.876L260.194 204.762L257.422 198.77C257.385 198.705 257.366 198.635 257.366 198.56C257.366 198.42 257.427 198.299 257.548 198.196C257.679 198.093 257.819 198.042 257.968 198.042C258.062 198.042 258.15 198.07 258.234 198.126C258.328 198.182 258.398 198.261 258.444 198.364L260.782 203.614L263.12 198.392ZM270.594 203.418C270.696 203.418 270.785 203.46 270.86 203.544C270.934 203.628 270.972 203.735 270.972 203.866C270.972 204.099 270.808 204.314 270.482 204.51C270.146 204.706 269.791 204.855 269.418 204.958C269.044 205.051 268.68 205.098 268.326 205.098C267.271 205.098 266.436 204.785 265.82 204.16C265.213 203.535 264.91 202.671 264.91 201.57C264.91 200.87 265.045 200.254 265.316 199.722C265.586 199.181 265.964 198.761 266.45 198.462C266.944 198.163 267.504 198.014 268.13 198.014C269.016 198.014 269.721 198.303 270.244 198.882C270.766 199.461 271.028 200.245 271.028 201.234C271.028 201.421 270.99 201.556 270.916 201.64C270.841 201.724 270.72 201.766 270.552 201.766H266.044C266.128 203.371 266.888 204.174 268.326 204.174C268.69 204.174 269.002 204.127 269.264 204.034C269.525 203.931 269.805 203.796 270.104 203.628C270.346 203.488 270.51 203.418 270.594 203.418ZM268.144 198.896C267.546 198.896 267.066 199.083 266.702 199.456C266.347 199.829 266.137 200.357 266.072 201.038H270.034C270.015 200.347 269.842 199.82 269.516 199.456C269.189 199.083 268.732 198.896 268.144 198.896ZM275.484 198.014C277.192 198.014 278.046 198.91 278.046 200.702V204.51C278.046 204.678 277.995 204.813 277.892 204.916C277.799 205.019 277.668 205.07 277.5 205.07C277.332 205.07 277.197 205.019 277.094 204.916C276.992 204.813 276.94 204.678 276.94 204.51V203.838C276.763 204.239 276.492 204.552 276.128 204.776C275.764 204.991 275.344 205.098 274.868 205.098C274.43 205.098 274.024 205.009 273.65 204.832C273.286 204.655 272.997 204.407 272.782 204.09C272.568 203.773 272.46 203.423 272.46 203.04C272.46 202.527 272.591 202.13 272.852 201.85C273.114 201.561 273.543 201.355 274.14 201.234C274.738 201.103 275.568 201.038 276.632 201.038H276.94V200.576C276.94 200.016 276.824 199.605 276.59 199.344C276.366 199.083 275.998 198.952 275.484 198.952C274.85 198.952 274.206 199.125 273.552 199.47C273.3 199.629 273.123 199.708 273.02 199.708C272.908 199.708 272.815 199.666 272.74 199.582C272.666 199.498 272.628 199.391 272.628 199.26C272.628 199.129 272.666 199.017 272.74 198.924C272.824 198.821 272.955 198.719 273.132 198.616C273.459 198.429 273.828 198.285 274.238 198.182C274.658 198.07 275.074 198.014 275.484 198.014ZM275.022 204.202C275.582 204.202 276.04 204.015 276.394 203.642C276.758 203.259 276.94 202.769 276.94 202.172V201.766H276.688C275.867 201.766 275.242 201.803 274.812 201.878C274.383 201.943 274.075 202.06 273.888 202.228C273.711 202.387 273.622 202.625 273.622 202.942C273.622 203.306 273.753 203.609 274.014 203.852C274.285 204.085 274.621 204.202 275.022 204.202ZM283.496 198.042C283.888 198.014 284.084 198.173 284.084 198.518C284.084 198.667 284.042 198.789 283.958 198.882C283.874 198.966 283.73 199.017 283.524 199.036L283.104 199.078C282.479 199.134 282.012 199.358 281.704 199.75C281.406 200.133 281.256 200.585 281.256 201.108V204.51C281.256 204.697 281.205 204.837 281.102 204.93C281 205.023 280.864 205.07 280.696 205.07C280.528 205.07 280.388 205.023 280.276 204.93C280.174 204.827 280.122 204.687 280.122 204.51V198.602C280.122 198.425 280.178 198.289 280.29 198.196C280.402 198.093 280.538 198.042 280.696 198.042C280.846 198.042 280.972 198.093 281.074 198.196C281.177 198.289 281.228 198.42 281.228 198.588V199.372C281.424 198.961 281.7 198.649 282.054 198.434C282.418 198.219 282.834 198.093 283.3 198.056L283.496 198.042ZM297.991 198.406C298.085 198.182 298.239 198.07 298.453 198.07C298.593 198.07 298.719 198.117 298.831 198.21C298.943 198.303 298.999 198.42 298.999 198.56C298.999 198.625 298.985 198.695 298.957 198.77L296.633 204.65C296.577 204.771 296.493 204.869 296.381 204.944C296.279 205.009 296.162 205.042 296.031 205.042C295.91 205.042 295.793 205.009 295.681 204.944C295.579 204.869 295.499 204.771 295.443 204.65L293.511 199.736L291.593 204.65C291.547 204.771 291.467 204.869 291.355 204.944C291.243 205.009 291.122 205.042 290.991 205.042C290.87 205.042 290.753 205.009 290.641 204.944C290.529 204.869 290.445 204.771 290.389 204.65L288.065 198.784C288.037 198.709 288.023 198.644 288.023 198.588C288.023 198.439 288.084 198.313 288.205 198.21C288.336 198.107 288.476 198.056 288.625 198.056C288.849 198.056 289.008 198.168 289.101 198.392L291.019 203.558L292.993 198.434C293.049 198.313 293.124 198.219 293.217 198.154C293.32 198.089 293.427 198.056 293.539 198.056C293.661 198.056 293.768 198.089 293.861 198.154C293.964 198.219 294.039 198.313 294.085 198.434L296.059 203.544L297.991 198.406ZM303.115 198.014C304.823 198.014 305.677 198.91 305.677 200.702V204.51C305.677 204.678 305.626 204.813 305.523 204.916C305.43 205.019 305.299 205.07 305.131 205.07C304.963 205.07 304.828 205.019 304.725 204.916C304.623 204.813 304.571 204.678 304.571 204.51V203.838C304.394 204.239 304.123 204.552 303.759 204.776C303.395 204.991 302.975 205.098 302.499 205.098C302.061 205.098 301.655 205.009 301.281 204.832C300.917 204.655 300.628 204.407 300.413 204.09C300.199 203.773 300.091 203.423 300.091 203.04C300.091 202.527 300.222 202.13 300.483 201.85C300.745 201.561 301.174 201.355 301.771 201.234C302.369 201.103 303.199 201.038 304.263 201.038H304.571V200.576C304.571 200.016 304.455 199.605 304.221 199.344C303.997 199.083 303.629 198.952 303.115 198.952C302.481 198.952 301.837 199.125 301.183 199.47C300.931 199.629 300.754 199.708 300.651 199.708C300.539 199.708 300.446 199.666 300.371 199.582C300.297 199.498 300.259 199.391 300.259 199.26C300.259 199.129 300.297 199.017 300.371 198.924C300.455 198.821 300.586 198.719 300.763 198.616C301.09 198.429 301.459 198.285 301.869 198.182C302.289 198.07 302.705 198.014 303.115 198.014ZM302.653 204.202C303.213 204.202 303.671 204.015 304.025 203.642C304.389 203.259 304.571 202.769 304.571 202.172V201.766H304.319C303.498 201.766 302.873 201.803 302.443 201.878C302.014 201.943 301.706 202.06 301.519 202.228C301.342 202.387 301.253 202.625 301.253 202.942C301.253 203.306 301.384 203.609 301.645 203.852C301.916 204.085 302.252 204.202 302.653 204.202ZM311.127 198.042C311.519 198.014 311.715 198.173 311.715 198.518C311.715 198.667 311.673 198.789 311.589 198.882C311.505 198.966 311.36 199.017 311.155 199.036L310.735 199.078C310.11 199.134 309.643 199.358 309.335 199.75C309.036 200.133 308.887 200.585 308.887 201.108V204.51C308.887 204.697 308.836 204.837 308.733 204.93C308.63 205.023 308.495 205.07 308.327 205.07C308.159 205.07 308.019 205.023 307.907 204.93C307.804 204.827 307.753 204.687 307.753 204.51V198.602C307.753 198.425 307.809 198.289 307.921 198.196C308.033 198.093 308.168 198.042 308.327 198.042C308.476 198.042 308.602 198.093 308.705 198.196C308.808 198.289 308.859 198.42 308.859 198.588V199.372C309.055 198.961 309.33 198.649 309.685 198.434C310.049 198.219 310.464 198.093 310.931 198.056L311.127 198.042ZM316.063 198.042C316.455 198.014 316.651 198.173 316.651 198.518C316.651 198.667 316.609 198.789 316.525 198.882C316.441 198.966 316.296 199.017 316.091 199.036L315.671 199.078C315.045 199.134 314.579 199.358 314.271 199.75C313.972 200.133 313.823 200.585 313.823 201.108V204.51C313.823 204.697 313.771 204.837 313.669 204.93C313.566 205.023 313.431 205.07 313.263 205.07C313.095 205.07 312.955 205.023 312.843 204.93C312.74 204.827 312.689 204.687 312.689 204.51V198.602C312.689 198.425 312.745 198.289 312.857 198.196C312.969 198.093 313.104 198.042 313.263 198.042C313.412 198.042 313.538 198.093 313.641 198.196C313.743 198.289 313.795 198.42 313.795 198.588V199.372C313.991 198.961 314.266 198.649 314.621 198.434C314.985 198.219 315.4 198.093 315.867 198.056L316.063 198.042ZM320.356 198.014C322.064 198.014 322.918 198.91 322.918 200.702V204.51C322.918 204.678 322.866 204.813 322.764 204.916C322.67 205.019 322.54 205.07 322.372 205.07C322.204 205.07 322.068 205.019 321.966 204.916C321.863 204.813 321.812 204.678 321.812 204.51V203.838C321.634 204.239 321.364 204.552 321 204.776C320.636 204.991 320.216 205.098 319.74 205.098C319.301 205.098 318.895 205.009 318.522 204.832C318.158 204.655 317.868 204.407 317.654 204.09C317.439 203.773 317.332 203.423 317.332 203.04C317.332 202.527 317.462 202.13 317.724 201.85C317.985 201.561 318.414 201.355 319.012 201.234C319.609 201.103 320.44 201.038 321.504 201.038H321.812V200.576C321.812 200.016 321.695 199.605 321.462 199.344C321.238 199.083 320.869 198.952 320.356 198.952C319.721 198.952 319.077 199.125 318.424 199.47C318.172 199.629 317.994 199.708 317.892 199.708C317.78 199.708 317.686 199.666 317.612 199.582C317.537 199.498 317.5 199.391 317.5 199.26C317.5 199.129 317.537 199.017 317.612 198.924C317.696 198.821 317.826 198.719 318.004 198.616C318.33 198.429 318.699 198.285 319.11 198.182C319.53 198.07 319.945 198.014 320.356 198.014ZM319.894 204.202C320.454 204.202 320.911 204.015 321.266 203.642C321.63 203.259 321.812 202.769 321.812 202.172V201.766H321.56C320.738 201.766 320.113 201.803 319.684 201.878C319.254 201.943 318.946 202.06 318.76 202.228C318.582 202.387 318.494 202.625 318.494 202.942C318.494 203.306 318.624 203.609 318.886 203.852C319.156 204.085 319.492 204.202 319.894 204.202ZM328.423 198.014C330.057 198.014 330.873 198.915 330.873 200.716V204.51C330.873 204.687 330.822 204.827 330.719 204.93C330.626 205.023 330.491 205.07 330.313 205.07C330.136 205.07 329.996 205.023 329.893 204.93C329.791 204.827 329.739 204.687 329.739 204.51V200.786C329.739 200.151 329.613 199.689 329.361 199.4C329.119 199.111 328.727 198.966 328.185 198.966C327.56 198.966 327.061 199.157 326.687 199.54C326.314 199.923 326.127 200.441 326.127 201.094V204.51C326.127 204.687 326.076 204.827 325.973 204.93C325.88 205.023 325.745 205.07 325.567 205.07C325.39 205.07 325.25 205.023 325.147 204.93C325.045 204.827 324.993 204.687 324.993 204.51V198.602C324.993 198.434 325.045 198.299 325.147 198.196C325.25 198.093 325.39 198.042 325.567 198.042C325.735 198.042 325.866 198.093 325.959 198.196C326.062 198.299 326.113 198.429 326.113 198.588V199.302C326.337 198.882 326.65 198.565 327.051 198.35C327.453 198.126 327.91 198.014 328.423 198.014ZM336.1 204.174C336.427 204.202 336.59 204.351 336.59 204.622C336.59 204.781 336.53 204.902 336.408 204.986C336.296 205.061 336.124 205.089 335.89 205.07L335.512 205.042C334.766 204.986 334.215 204.762 333.86 204.37C333.506 203.978 333.328 203.385 333.328 202.592V199.078H332.39C332.232 199.078 332.106 199.041 332.012 198.966C331.928 198.882 331.886 198.775 331.886 198.644C331.886 198.504 331.928 198.392 332.012 198.308C332.106 198.224 332.232 198.182 332.39 198.182H333.328V196.6C333.328 196.423 333.38 196.287 333.482 196.194C333.585 196.091 333.725 196.04 333.902 196.04C334.07 196.04 334.206 196.091 334.308 196.194C334.411 196.287 334.462 196.423 334.462 196.6V198.182H336.016C336.166 198.182 336.282 198.224 336.366 198.308C336.46 198.392 336.506 198.504 336.506 198.644C336.506 198.775 336.46 198.882 336.366 198.966C336.282 199.041 336.166 199.078 336.016 199.078H334.462V202.648C334.462 203.161 334.565 203.535 334.77 203.768C334.985 203.992 335.302 204.118 335.722 204.146L336.1 204.174ZM342.704 198.392C342.807 198.168 342.97 198.056 343.194 198.056C343.334 198.056 343.46 198.103 343.572 198.196C343.684 198.289 343.74 198.406 343.74 198.546C343.74 198.63 343.722 198.705 343.684 198.77L339.75 207.254C339.704 207.357 339.634 207.436 339.54 207.492C339.456 207.548 339.368 207.576 339.274 207.576C339.134 207.576 339.008 207.529 338.896 207.436C338.794 207.352 338.742 207.24 338.742 207.1C338.742 207.025 338.761 206.951 338.798 206.876L339.778 204.762L337.006 198.77C336.969 198.705 336.95 198.635 336.95 198.56C336.95 198.42 337.011 198.299 337.132 198.196C337.263 198.093 337.403 198.042 337.552 198.042C337.646 198.042 337.734 198.07 337.818 198.126C337.912 198.182 337.982 198.261 338.028 198.364L340.366 203.614L342.704 198.392ZM352.021 198.014C352.618 198.014 353.146 198.163 353.603 198.462C354.06 198.761 354.415 199.181 354.667 199.722C354.919 200.254 355.045 200.875 355.045 201.584C355.045 202.293 354.919 202.914 354.667 203.446C354.415 203.969 354.06 204.375 353.603 204.664C353.155 204.953 352.628 205.098 352.021 205.098C351.489 205.098 351.022 204.981 350.621 204.748C350.229 204.515 349.93 204.183 349.725 203.754V207.044C349.725 207.212 349.674 207.343 349.571 207.436C349.478 207.539 349.342 207.59 349.165 207.59C348.988 207.59 348.848 207.539 348.745 207.436C348.642 207.333 348.591 207.203 348.591 207.044V198.602C348.591 198.434 348.642 198.299 348.745 198.196C348.848 198.093 348.988 198.042 349.165 198.042C349.342 198.042 349.478 198.093 349.571 198.196C349.674 198.299 349.725 198.434 349.725 198.602V199.358C349.93 198.929 350.229 198.597 350.621 198.364C351.022 198.131 351.489 198.014 352.021 198.014ZM351.797 204.16C352.46 204.16 352.973 203.936 353.337 203.488C353.701 203.04 353.883 202.405 353.883 201.584C353.883 200.763 353.701 200.123 353.337 199.666C352.973 199.199 352.46 198.966 351.797 198.966C351.134 198.966 350.621 199.19 350.257 199.638C349.902 200.086 349.725 200.725 349.725 201.556C349.725 202.387 349.902 203.031 350.257 203.488C350.621 203.936 351.134 204.16 351.797 204.16ZM360.113 198.042C360.505 198.014 360.701 198.173 360.701 198.518C360.701 198.667 360.659 198.789 360.575 198.882C360.491 198.966 360.347 199.017 360.141 199.036L359.721 199.078C359.096 199.134 358.629 199.358 358.321 199.75C358.023 200.133 357.873 200.585 357.873 201.108V204.51C357.873 204.697 357.822 204.837 357.719 204.93C357.617 205.023 357.481 205.07 357.313 205.07C357.145 205.07 357.005 205.023 356.893 204.93C356.791 204.827 356.739 204.687 356.739 204.51V198.602C356.739 198.425 356.795 198.289 356.907 198.196C357.019 198.093 357.155 198.042 357.313 198.042C357.463 198.042 357.589 198.093 357.691 198.196C357.794 198.289 357.845 198.42 357.845 198.588V199.372C358.041 198.961 358.317 198.649 358.671 198.434C359.035 198.219 359.451 198.093 359.917 198.056L360.113 198.042ZM364.366 205.098C363.722 205.098 363.153 204.953 362.658 204.664C362.173 204.375 361.795 203.964 361.524 203.432C361.263 202.891 361.132 202.265 361.132 201.556C361.132 200.847 361.263 200.226 361.524 199.694C361.795 199.153 362.173 198.737 362.658 198.448C363.153 198.159 363.722 198.014 364.366 198.014C365.01 198.014 365.58 198.159 366.074 198.448C366.569 198.737 366.947 199.153 367.208 199.694C367.479 200.226 367.614 200.847 367.614 201.556C367.614 202.265 367.479 202.891 367.208 203.432C366.947 203.964 366.569 204.375 366.074 204.664C365.58 204.953 365.01 205.098 364.366 205.098ZM364.366 204.16C365.038 204.16 365.552 203.941 365.906 203.502C366.27 203.054 366.452 202.405 366.452 201.556C366.452 200.725 366.27 200.086 365.906 199.638C365.542 199.181 365.029 198.952 364.366 198.952C363.704 198.952 363.19 199.181 362.826 199.638C362.462 200.086 362.28 200.725 362.28 201.556C362.28 202.396 362.458 203.04 362.812 203.488C363.176 203.936 363.694 204.16 364.366 204.16ZM374.136 198.392C374.239 198.168 374.402 198.056 374.626 198.056C374.766 198.056 374.892 198.103 375.004 198.196C375.116 198.289 375.172 198.406 375.172 198.546C375.172 198.63 375.153 198.705 375.116 198.77L372.386 204.65C372.33 204.771 372.246 204.869 372.134 204.944C372.022 205.009 371.901 205.042 371.77 205.042C371.649 205.042 371.532 205.009 371.42 204.944C371.308 204.869 371.219 204.771 371.154 204.65L368.438 198.77C368.401 198.705 368.382 198.635 368.382 198.56C368.382 198.42 368.443 198.299 368.564 198.196C368.695 198.093 368.835 198.042 368.984 198.042C369.077 198.042 369.166 198.07 369.25 198.126C369.343 198.182 369.413 198.261 369.46 198.364L371.798 203.614L374.136 198.392ZM376.987 205.07C376.819 205.07 376.679 205.023 376.567 204.93C376.465 204.827 376.413 204.687 376.413 204.51V198.602C376.413 198.425 376.465 198.289 376.567 198.196C376.679 198.093 376.819 198.042 376.987 198.042C377.155 198.042 377.291 198.093 377.393 198.196C377.496 198.289 377.547 198.425 377.547 198.602V204.51C377.547 204.697 377.496 204.837 377.393 204.93C377.291 205.023 377.155 205.07 376.987 205.07ZM376.987 196.572C376.763 196.572 376.581 196.507 376.441 196.376C376.301 196.245 376.231 196.073 376.231 195.858C376.231 195.653 376.301 195.485 376.441 195.354C376.581 195.223 376.763 195.158 376.987 195.158C377.211 195.158 377.393 195.223 377.533 195.354C377.673 195.485 377.743 195.653 377.743 195.858C377.743 196.073 377.673 196.245 377.533 196.376C377.393 196.507 377.211 196.572 376.987 196.572ZM385.141 195.06C385.319 195.06 385.459 195.111 385.561 195.214C385.664 195.317 385.715 195.447 385.715 195.606V204.51C385.715 204.678 385.664 204.813 385.561 204.916C385.459 205.019 385.319 205.07 385.141 205.07C384.964 205.07 384.824 205.019 384.721 204.916C384.628 204.813 384.581 204.678 384.581 204.51V203.754C384.376 204.183 384.073 204.515 383.671 204.748C383.279 204.981 382.817 205.098 382.285 205.098C381.688 205.098 381.161 204.949 380.703 204.65C380.246 204.351 379.891 203.936 379.639 203.404C379.387 202.863 379.261 202.237 379.261 201.528C379.261 200.828 379.387 200.212 379.639 199.68C379.891 199.148 380.246 198.737 380.703 198.448C381.161 198.159 381.688 198.014 382.285 198.014C382.817 198.014 383.279 198.131 383.671 198.364C384.073 198.597 384.376 198.929 384.581 199.358V195.606C384.581 195.438 384.628 195.307 384.721 195.214C384.824 195.111 384.964 195.06 385.141 195.06ZM382.509 204.16C383.172 204.16 383.681 203.936 384.035 203.488C384.399 203.031 384.581 202.387 384.581 201.556C384.581 200.725 384.399 200.086 384.035 199.638C383.681 199.19 383.172 198.966 382.509 198.966C381.847 198.966 381.329 199.19 380.955 199.638C380.591 200.086 380.409 200.716 380.409 201.528C380.409 202.359 380.591 203.007 380.955 203.474C381.329 203.931 381.847 204.16 382.509 204.16ZM393.094 203.418C393.196 203.418 393.285 203.46 393.36 203.544C393.434 203.628 393.472 203.735 393.472 203.866C393.472 204.099 393.308 204.314 392.982 204.51C392.646 204.706 392.291 204.855 391.918 204.958C391.544 205.051 391.18 205.098 390.826 205.098C389.771 205.098 388.936 204.785 388.32 204.16C387.713 203.535 387.41 202.671 387.41 201.57C387.41 200.87 387.545 200.254 387.816 199.722C388.086 199.181 388.464 198.761 388.95 198.462C389.444 198.163 390.004 198.014 390.63 198.014C391.516 198.014 392.221 198.303 392.744 198.882C393.266 199.461 393.528 200.245 393.528 201.234C393.528 201.421 393.49 201.556 393.416 201.64C393.341 201.724 393.22 201.766 393.052 201.766H388.544C388.628 203.371 389.388 204.174 390.826 204.174C391.19 204.174 391.502 204.127 391.764 204.034C392.025 203.931 392.305 203.796 392.604 203.628C392.846 203.488 393.01 203.418 393.094 203.418ZM390.644 198.896C390.046 198.896 389.566 199.083 389.202 199.456C388.847 199.829 388.637 200.357 388.572 201.038H392.534C392.515 200.347 392.342 199.82 392.016 199.456C391.689 199.083 391.232 198.896 390.644 198.896ZM400.672 195.06C400.85 195.06 400.99 195.111 401.092 195.214C401.195 195.317 401.246 195.447 401.246 195.606V204.51C401.246 204.678 401.195 204.813 401.092 204.916C400.99 205.019 400.85 205.07 400.672 205.07C400.495 205.07 400.355 205.019 400.252 204.916C400.159 204.813 400.112 204.678 400.112 204.51V203.754C399.907 204.183 399.604 204.515 399.202 204.748C398.81 204.981 398.348 205.098 397.816 205.098C397.219 205.098 396.692 204.949 396.234 204.65C395.777 204.351 395.422 203.936 395.17 203.404C394.918 202.863 394.792 202.237 394.792 201.528C394.792 200.828 394.918 200.212 395.17 199.68C395.422 199.148 395.777 198.737 396.234 198.448C396.692 198.159 397.219 198.014 397.816 198.014C398.348 198.014 398.81 198.131 399.202 198.364C399.604 198.597 399.907 198.929 400.112 199.358V195.606C400.112 195.438 400.159 195.307 400.252 195.214C400.355 195.111 400.495 195.06 400.672 195.06ZM398.04 204.16C398.703 204.16 399.212 203.936 399.566 203.488C399.93 203.031 400.112 202.387 400.112 201.556C400.112 200.725 399.93 200.086 399.566 199.638C399.212 199.19 398.703 198.966 398.04 198.966C397.378 198.966 396.86 199.19 396.486 199.638C396.122 200.086 395.94 200.716 395.94 201.528C395.94 202.359 396.122 203.007 396.486 203.474C396.86 203.931 397.378 204.16 398.04 204.16ZM403.879 203.488C404.112 203.488 404.299 203.581 404.439 203.768C404.588 203.945 404.663 204.216 404.663 204.58C404.663 205.317 404.425 205.938 403.949 206.442C403.856 206.545 403.748 206.596 403.627 206.596C403.534 206.596 403.45 206.559 403.375 206.484C403.3 206.419 403.263 206.339 403.263 206.246C403.263 206.143 403.3 206.055 403.375 205.98C403.618 205.728 403.772 205.415 403.837 205.042C403.632 205.023 403.459 204.949 403.319 204.818C403.188 204.678 403.123 204.501 403.123 204.286C403.123 204.053 403.193 203.861 403.333 203.712C403.482 203.563 403.664 203.488 403.879 203.488ZM413.585 198.014C414.183 198.014 414.71 198.163 415.167 198.462C415.625 198.761 415.979 199.181 416.231 199.722C416.483 200.254 416.609 200.875 416.609 201.584C416.609 202.293 416.483 202.914 416.231 203.446C415.979 203.969 415.625 204.375 415.167 204.664C414.719 204.953 414.192 205.098 413.585 205.098C413.053 205.098 412.587 204.981 412.185 204.748C411.793 204.515 411.495 204.183 411.289 203.754V207.044C411.289 207.212 411.238 207.343 411.135 207.436C411.042 207.539 410.907 207.59 410.729 207.59C410.552 207.59 410.412 207.539 410.309 207.436C410.207 207.333 410.155 207.203 410.155 207.044V198.602C410.155 198.434 410.207 198.299 410.309 198.196C410.412 198.093 410.552 198.042 410.729 198.042C410.907 198.042 411.042 198.093 411.135 198.196C411.238 198.299 411.289 198.434 411.289 198.602V199.358C411.495 198.929 411.793 198.597 412.185 198.364C412.587 198.131 413.053 198.014 413.585 198.014ZM413.361 204.16C414.024 204.16 414.537 203.936 414.901 203.488C415.265 203.04 415.447 202.405 415.447 201.584C415.447 200.763 415.265 200.123 414.901 199.666C414.537 199.199 414.024 198.966 413.361 198.966C412.699 198.966 412.185 199.19 411.821 199.638C411.467 200.086 411.289 200.725 411.289 201.556C411.289 202.387 411.467 203.031 411.821 203.488C412.185 203.936 412.699 204.16 413.361 204.16ZM421.678 198.042C422.07 198.014 422.266 198.173 422.266 198.518C422.266 198.667 422.224 198.789 422.14 198.882C422.056 198.966 421.911 199.017 421.706 199.036L421.286 199.078C420.661 199.134 420.194 199.358 419.886 199.75C419.587 200.133 419.438 200.585 419.438 201.108V204.51C419.438 204.697 419.387 204.837 419.284 204.93C419.181 205.023 419.046 205.07 418.878 205.07C418.71 205.07 418.57 205.023 418.458 204.93C418.355 204.827 418.304 204.687 418.304 204.51V198.602C418.304 198.425 418.36 198.289 418.472 198.196C418.584 198.093 418.719 198.042 418.878 198.042C419.027 198.042 419.153 198.093 419.256 198.196C419.359 198.289 419.41 198.42 419.41 198.588V199.372C419.606 198.961 419.881 198.649 420.236 198.434C420.6 198.219 421.015 198.093 421.482 198.056L421.678 198.042ZM425.931 205.098C425.287 205.098 424.717 204.953 424.223 204.664C423.737 204.375 423.359 203.964 423.089 203.432C422.827 202.891 422.697 202.265 422.697 201.556C422.697 200.847 422.827 200.226 423.089 199.694C423.359 199.153 423.737 198.737 424.223 198.448C424.717 198.159 425.287 198.014 425.931 198.014C426.575 198.014 427.144 198.159 427.639 198.448C428.133 198.737 428.511 199.153 428.773 199.694C429.043 200.226 429.179 200.847 429.179 201.556C429.179 202.265 429.043 202.891 428.773 203.432C428.511 203.964 428.133 204.375 427.639 204.664C427.144 204.953 426.575 205.098 425.931 205.098ZM425.931 204.16C426.603 204.16 427.116 203.941 427.471 203.502C427.835 203.054 428.017 202.405 428.017 201.556C428.017 200.725 427.835 200.086 427.471 199.638C427.107 199.181 426.593 198.952 425.931 198.952C425.268 198.952 424.755 199.181 424.391 199.638C424.027 200.086 423.845 200.725 423.845 201.556C423.845 202.396 424.022 203.04 424.377 203.488C424.741 203.936 425.259 204.16 425.931 204.16ZM435.7 198.392C435.803 198.168 435.966 198.056 436.19 198.056C436.33 198.056 436.456 198.103 436.568 198.196C436.68 198.289 436.736 198.406 436.736 198.546C436.736 198.63 436.718 198.705 436.68 198.77L433.95 204.65C433.894 204.771 433.81 204.869 433.698 204.944C433.586 205.009 433.465 205.042 433.334 205.042C433.213 205.042 433.096 205.009 432.984 204.944C432.872 204.869 432.784 204.771 432.718 204.65L430.002 198.77C429.965 198.705 429.946 198.635 429.946 198.56C429.946 198.42 430.007 198.299 430.128 198.196C430.259 198.093 430.399 198.042 430.548 198.042C430.642 198.042 430.73 198.07 430.814 198.126C430.908 198.182 430.978 198.261 431.024 198.364L433.362 203.614L435.7 198.392ZM438.552 205.07C438.384 205.07 438.244 205.023 438.132 204.93C438.029 204.827 437.978 204.687 437.978 204.51V198.602C437.978 198.425 438.029 198.289 438.132 198.196C438.244 198.093 438.384 198.042 438.552 198.042C438.72 198.042 438.855 198.093 438.958 198.196C439.06 198.289 439.112 198.425 439.112 198.602V204.51C439.112 204.697 439.06 204.837 438.958 204.93C438.855 205.023 438.72 205.07 438.552 205.07ZM438.552 196.572C438.328 196.572 438.146 196.507 438.006 196.376C437.866 196.245 437.796 196.073 437.796 195.858C437.796 195.653 437.866 195.485 438.006 195.354C438.146 195.223 438.328 195.158 438.552 195.158C438.776 195.158 438.958 195.223 439.098 195.354C439.238 195.485 439.308 195.653 439.308 195.858C439.308 196.073 439.238 196.245 439.098 196.376C438.958 196.507 438.776 196.572 438.552 196.572ZM446.706 195.06C446.883 195.06 447.023 195.111 447.126 195.214C447.228 195.317 447.28 195.447 447.28 195.606V204.51C447.28 204.678 447.228 204.813 447.126 204.916C447.023 205.019 446.883 205.07 446.706 205.07C446.528 205.07 446.388 205.019 446.286 204.916C446.192 204.813 446.146 204.678 446.146 204.51V203.754C445.94 204.183 445.637 204.515 445.236 204.748C444.844 204.981 444.382 205.098 443.85 205.098C443.252 205.098 442.725 204.949 442.268 204.65C441.81 204.351 441.456 203.936 441.204 203.404C440.952 202.863 440.826 202.237 440.826 201.528C440.826 200.828 440.952 200.212 441.204 199.68C441.456 199.148 441.81 198.737 442.268 198.448C442.725 198.159 443.252 198.014 443.85 198.014C444.382 198.014 444.844 198.131 445.236 198.364C445.637 198.597 445.94 198.929 446.146 199.358V195.606C446.146 195.438 446.192 195.307 446.286 195.214C446.388 195.111 446.528 195.06 446.706 195.06ZM444.074 204.16C444.736 204.16 445.245 203.936 445.6 203.488C445.964 203.031 446.146 202.387 446.146 201.556C446.146 200.725 445.964 200.086 445.6 199.638C445.245 199.19 444.736 198.966 444.074 198.966C443.411 198.966 442.893 199.19 442.52 199.638C442.156 200.086 441.974 200.716 441.974 201.528C441.974 202.359 442.156 203.007 442.52 203.474C442.893 203.931 443.411 204.16 444.074 204.16ZM449.954 205.07C449.786 205.07 449.646 205.023 449.534 204.93C449.431 204.827 449.38 204.687 449.38 204.51V198.602C449.38 198.425 449.431 198.289 449.534 198.196C449.646 198.093 449.786 198.042 449.954 198.042C450.122 198.042 450.257 198.093 450.36 198.196C450.463 198.289 450.514 198.425 450.514 198.602V204.51C450.514 204.697 450.463 204.837 450.36 204.93C450.257 205.023 450.122 205.07 449.954 205.07ZM449.954 196.572C449.73 196.572 449.548 196.507 449.408 196.376C449.268 196.245 449.198 196.073 449.198 195.858C449.198 195.653 449.268 195.485 449.408 195.354C449.548 195.223 449.73 195.158 449.954 195.158C450.178 195.158 450.36 195.223 450.5 195.354C450.64 195.485 450.71 195.653 450.71 195.858C450.71 196.073 450.64 196.245 450.5 196.376C450.36 196.507 450.178 196.572 449.954 196.572ZM456.064 198.014C457.697 198.014 458.514 198.915 458.514 200.716V204.51C458.514 204.687 458.463 204.827 458.36 204.93C458.267 205.023 458.131 205.07 457.954 205.07C457.777 205.07 457.637 205.023 457.534 204.93C457.431 204.827 457.38 204.687 457.38 204.51V200.786C457.38 200.151 457.254 199.689 457.002 199.4C456.759 199.111 456.367 198.966 455.826 198.966C455.201 198.966 454.701 199.157 454.328 199.54C453.955 199.923 453.768 200.441 453.768 201.094V204.51C453.768 204.687 453.717 204.827 453.614 204.93C453.521 205.023 453.385 205.07 453.208 205.07C453.031 205.07 452.891 205.023 452.788 204.93C452.685 204.827 452.634 204.687 452.634 204.51V198.602C452.634 198.434 452.685 198.299 452.788 198.196C452.891 198.093 453.031 198.042 453.208 198.042C453.376 198.042 453.507 198.093 453.6 198.196C453.703 198.299 453.754 198.429 453.754 198.588V199.302C453.978 198.882 454.291 198.565 454.692 198.35C455.093 198.126 455.551 198.014 456.064 198.014ZM466.121 198.042C466.298 198.042 466.438 198.093 466.541 198.196C466.644 198.299 466.695 198.434 466.695 198.602V204.538C466.695 205.555 466.434 206.321 465.911 206.834C465.388 207.357 464.614 207.618 463.587 207.618C462.588 207.618 461.758 207.422 461.095 207.03C460.759 206.843 460.591 206.629 460.591 206.386C460.591 206.255 460.624 206.148 460.689 206.064C460.764 205.98 460.857 205.938 460.969 205.938C461.062 205.938 461.23 206.003 461.473 206.134C461.8 206.302 462.122 206.437 462.439 206.54C462.756 206.643 463.134 206.694 463.573 206.694C464.236 206.694 464.735 206.517 465.071 206.162C465.407 205.817 465.575 205.308 465.575 204.636V203.432C465.379 203.871 465.076 204.207 464.665 204.44C464.264 204.673 463.788 204.79 463.237 204.79C462.64 204.79 462.108 204.65 461.641 204.37C461.184 204.09 460.824 203.693 460.563 203.18C460.311 202.667 460.185 202.074 460.185 201.402C460.185 200.73 460.311 200.137 460.563 199.624C460.824 199.111 461.184 198.714 461.641 198.434C462.108 198.154 462.64 198.014 463.237 198.014C463.778 198.014 464.25 198.131 464.651 198.364C465.052 198.597 465.356 198.929 465.561 199.358V198.602C465.561 198.434 465.608 198.299 465.701 198.196C465.804 198.093 465.944 198.042 466.121 198.042ZM463.461 203.852C464.114 203.852 464.628 203.637 465.001 203.208C465.374 202.769 465.561 202.167 465.561 201.402C465.561 200.646 465.374 200.053 465.001 199.624C464.637 199.185 464.124 198.966 463.461 198.966C462.798 198.966 462.276 199.185 461.893 199.624C461.52 200.053 461.333 200.646 461.333 201.402C461.333 202.167 461.52 202.769 461.893 203.208C462.276 203.637 462.798 203.852 463.461 203.852ZM200.346 228.098C199.917 228.098 199.506 228.047 199.114 227.944C198.731 227.841 198.391 227.697 198.092 227.51C197.924 227.398 197.803 227.295 197.728 227.202C197.663 227.099 197.63 226.978 197.63 226.838C197.63 226.717 197.663 226.619 197.728 226.544C197.803 226.46 197.896 226.418 198.008 226.418C198.12 226.418 198.283 226.488 198.498 226.628C198.778 226.796 199.053 226.931 199.324 227.034C199.604 227.127 199.949 227.174 200.36 227.174C200.864 227.174 201.256 227.085 201.536 226.908C201.816 226.731 201.956 226.474 201.956 226.138C201.956 225.933 201.905 225.769 201.802 225.648C201.699 225.517 201.522 225.405 201.27 225.312C201.018 225.209 200.649 225.107 200.164 225.004C199.343 224.827 198.755 224.589 198.4 224.29C198.045 223.991 197.868 223.585 197.868 223.072C197.868 222.671 197.98 222.316 198.204 222.008C198.428 221.7 198.736 221.457 199.128 221.28C199.529 221.103 199.982 221.014 200.486 221.014C200.85 221.014 201.2 221.065 201.536 221.168C201.881 221.261 202.185 221.397 202.446 221.574C202.763 221.798 202.922 222.031 202.922 222.274C202.922 222.395 202.885 222.498 202.81 222.582C202.735 222.666 202.647 222.708 202.544 222.708C202.432 222.708 202.264 222.629 202.04 222.47C201.779 222.302 201.531 222.171 201.298 222.078C201.065 221.985 200.775 221.938 200.43 221.938C199.991 221.938 199.637 222.036 199.366 222.232C199.105 222.428 198.974 222.689 198.974 223.016C198.974 223.221 199.021 223.389 199.114 223.52C199.217 223.641 199.38 223.753 199.604 223.856C199.837 223.949 200.169 224.043 200.598 224.136C201.233 224.276 201.723 224.43 202.068 224.598C202.423 224.766 202.675 224.971 202.824 225.214C202.973 225.457 203.048 225.765 203.048 226.138C203.048 226.726 202.801 227.202 202.306 227.566C201.811 227.921 201.158 228.098 200.346 228.098ZM207.563 221.014C209.271 221.014 210.125 221.91 210.125 223.702V227.51C210.125 227.678 210.073 227.813 209.971 227.916C209.877 228.019 209.747 228.07 209.579 228.07C209.411 228.07 209.275 228.019 209.173 227.916C209.07 227.813 209.019 227.678 209.019 227.51V226.838C208.841 227.239 208.571 227.552 208.207 227.776C207.843 227.991 207.423 228.098 206.947 228.098C206.508 228.098 206.102 228.009 205.729 227.832C205.365 227.655 205.075 227.407 204.861 227.09C204.646 226.773 204.539 226.423 204.539 226.04C204.539 225.527 204.669 225.13 204.931 224.85C205.192 224.561 205.621 224.355 206.219 224.234C206.816 224.103 207.647 224.038 208.711 224.038H209.019V223.576C209.019 223.016 208.902 222.605 208.669 222.344C208.445 222.083 208.076 221.952 207.563 221.952C206.928 221.952 206.284 222.125 205.631 222.47C205.379 222.629 205.201 222.708 205.099 222.708C204.987 222.708 204.893 222.666 204.819 222.582C204.744 222.498 204.707 222.391 204.707 222.26C204.707 222.129 204.744 222.017 204.819 221.924C204.903 221.821 205.033 221.719 205.211 221.616C205.537 221.429 205.906 221.285 206.317 221.182C206.737 221.07 207.152 221.014 207.563 221.014ZM207.101 227.202C207.661 227.202 208.118 227.015 208.473 226.642C208.837 226.259 209.019 225.769 209.019 225.172V224.766H208.767C207.945 224.766 207.32 224.803 206.891 224.878C206.461 224.943 206.153 225.06 205.967 225.228C205.789 225.387 205.701 225.625 205.701 225.942C205.701 226.306 205.831 226.609 206.093 226.852C206.363 227.085 206.699 227.202 207.101 227.202ZM215.35 227.174C215.677 227.202 215.84 227.351 215.84 227.622C215.84 227.781 215.78 227.902 215.658 227.986C215.546 228.061 215.374 228.089 215.14 228.07L214.762 228.042C214.016 227.986 213.465 227.762 213.11 227.37C212.756 226.978 212.578 226.385 212.578 225.592V222.078H211.64C211.482 222.078 211.356 222.041 211.262 221.966C211.178 221.882 211.136 221.775 211.136 221.644C211.136 221.504 211.178 221.392 211.262 221.308C211.356 221.224 211.482 221.182 211.64 221.182H212.578V219.6C212.578 219.423 212.63 219.287 212.732 219.194C212.835 219.091 212.975 219.04 213.152 219.04C213.32 219.04 213.456 219.091 213.558 219.194C213.661 219.287 213.712 219.423 213.712 219.6V221.182H215.266C215.416 221.182 215.532 221.224 215.616 221.308C215.71 221.392 215.756 221.504 215.756 221.644C215.756 221.775 215.71 221.882 215.616 221.966C215.532 222.041 215.416 222.078 215.266 222.078H213.712V225.648C213.712 226.161 213.815 226.535 214.02 226.768C214.235 226.992 214.552 227.118 214.972 227.146L215.35 227.174ZM217.532 228.07C217.364 228.07 217.224 228.023 217.112 227.93C217.01 227.827 216.958 227.687 216.958 227.51V221.602C216.958 221.425 217.01 221.289 217.112 221.196C217.224 221.093 217.364 221.042 217.532 221.042C217.7 221.042 217.836 221.093 217.938 221.196C218.041 221.289 218.092 221.425 218.092 221.602V227.51C218.092 227.697 218.041 227.837 217.938 227.93C217.836 228.023 217.7 228.07 217.532 228.07ZM217.532 219.572C217.308 219.572 217.126 219.507 216.986 219.376C216.846 219.245 216.776 219.073 216.776 218.858C216.776 218.653 216.846 218.485 216.986 218.354C217.126 218.223 217.308 218.158 217.532 218.158C217.756 218.158 217.938 218.223 218.078 218.354C218.218 218.485 218.288 218.653 218.288 218.858C218.288 219.073 218.218 219.245 218.078 219.376C217.938 219.507 217.756 219.572 217.532 219.572ZM222.508 228.098C222.079 228.098 221.668 228.047 221.276 227.944C220.893 227.841 220.553 227.697 220.254 227.51C220.086 227.398 219.965 227.295 219.89 227.202C219.825 227.099 219.792 226.978 219.792 226.838C219.792 226.717 219.825 226.619 219.89 226.544C219.965 226.46 220.058 226.418 220.17 226.418C220.282 226.418 220.445 226.488 220.66 226.628C220.94 226.796 221.215 226.931 221.486 227.034C221.766 227.127 222.111 227.174 222.522 227.174C223.026 227.174 223.418 227.085 223.698 226.908C223.978 226.731 224.118 226.474 224.118 226.138C224.118 225.933 224.067 225.769 223.964 225.648C223.861 225.517 223.684 225.405 223.432 225.312C223.18 225.209 222.811 225.107 222.326 225.004C221.505 224.827 220.917 224.589 220.562 224.29C220.207 223.991 220.03 223.585 220.03 223.072C220.03 222.671 220.142 222.316 220.366 222.008C220.59 221.7 220.898 221.457 221.29 221.28C221.691 221.103 222.144 221.014 222.648 221.014C223.012 221.014 223.362 221.065 223.698 221.168C224.043 221.261 224.347 221.397 224.608 221.574C224.925 221.798 225.084 222.031 225.084 222.274C225.084 222.395 225.047 222.498 224.972 222.582C224.897 222.666 224.809 222.708 224.706 222.708C224.594 222.708 224.426 222.629 224.202 222.47C223.941 222.302 223.693 222.171 223.46 222.078C223.227 221.985 222.937 221.938 222.592 221.938C222.153 221.938 221.799 222.036 221.528 222.232C221.267 222.428 221.136 222.689 221.136 223.016C221.136 223.221 221.183 223.389 221.276 223.52C221.379 223.641 221.542 223.753 221.766 223.856C221.999 223.949 222.331 224.043 222.76 224.136C223.395 224.276 223.885 224.43 224.23 224.598C224.585 224.766 224.837 224.971 224.986 225.214C225.135 225.457 225.21 225.765 225.21 226.138C225.21 226.726 224.963 227.202 224.468 227.566C223.973 227.921 223.32 228.098 222.508 228.098ZM229.949 219.026C229.454 219.063 229.081 219.222 228.829 219.502C228.577 219.773 228.451 220.183 228.451 220.734V221.182H230.005C230.163 221.182 230.285 221.224 230.369 221.308C230.453 221.392 230.495 221.504 230.495 221.644C230.495 221.784 230.453 221.891 230.369 221.966C230.285 222.041 230.163 222.078 230.005 222.078H228.451V227.51C228.451 227.687 228.395 227.827 228.283 227.93C228.18 228.023 228.049 228.07 227.891 228.07C227.723 228.07 227.583 228.023 227.471 227.93C227.368 227.827 227.317 227.687 227.317 227.51V222.078H226.379C226.22 222.078 226.094 222.041 226.001 221.966C225.917 221.882 225.875 221.775 225.875 221.644C225.875 221.504 225.917 221.392 226.001 221.308C226.094 221.224 226.22 221.182 226.379 221.182H227.317V220.93C227.317 220.09 227.527 219.432 227.947 218.956C228.367 218.471 228.969 218.2 229.753 218.144L230.117 218.116C230.359 218.097 230.532 218.121 230.635 218.186C230.747 218.251 230.803 218.368 230.803 218.536C230.803 218.807 230.639 218.961 230.313 218.998L229.949 219.026ZM236.638 221.392C236.74 221.168 236.904 221.056 237.128 221.056C237.268 221.056 237.394 221.103 237.506 221.196C237.618 221.289 237.674 221.406 237.674 221.546C237.674 221.63 237.655 221.705 237.618 221.77L233.684 230.254C233.637 230.357 233.567 230.436 233.474 230.492C233.39 230.548 233.301 230.576 233.208 230.576C233.068 230.576 232.942 230.529 232.83 230.436C232.727 230.352 232.676 230.24 232.676 230.1C232.676 230.025 232.694 229.951 232.732 229.876L233.712 227.762L230.94 221.77C230.902 221.705 230.884 221.635 230.884 221.56C230.884 221.42 230.944 221.299 231.066 221.196C231.196 221.093 231.336 221.042 231.486 221.042C231.579 221.042 231.668 221.07 231.752 221.126C231.845 221.182 231.915 221.261 231.962 221.364L234.3 226.614L236.638 221.392ZM239.489 228.07C239.321 228.07 239.181 228.023 239.069 227.93C238.967 227.827 238.915 227.687 238.915 227.51V221.602C238.915 221.425 238.967 221.289 239.069 221.196C239.181 221.093 239.321 221.042 239.489 221.042C239.657 221.042 239.793 221.093 239.895 221.196C239.998 221.289 240.049 221.425 240.049 221.602V227.51C240.049 227.697 239.998 227.837 239.895 227.93C239.793 228.023 239.657 228.07 239.489 228.07ZM239.489 219.572C239.265 219.572 239.083 219.507 238.943 219.376C238.803 219.245 238.733 219.073 238.733 218.858C238.733 218.653 238.803 218.485 238.943 218.354C239.083 218.223 239.265 218.158 239.489 218.158C239.713 218.158 239.895 218.223 240.035 218.354C240.175 218.485 240.245 218.653 240.245 218.858C240.245 219.073 240.175 219.245 240.035 219.376C239.895 219.507 239.713 219.572 239.489 219.572ZM245.599 221.014C247.232 221.014 248.049 221.915 248.049 223.716V227.51C248.049 227.687 247.998 227.827 247.895 227.93C247.802 228.023 247.666 228.07 247.489 228.07C247.312 228.07 247.172 228.023 247.069 227.93C246.966 227.827 246.915 227.687 246.915 227.51V223.786C246.915 223.151 246.789 222.689 246.537 222.4C246.294 222.111 245.902 221.966 245.361 221.966C244.736 221.966 244.236 222.157 243.863 222.54C243.49 222.923 243.303 223.441 243.303 224.094V227.51C243.303 227.687 243.252 227.827 243.149 227.93C243.056 228.023 242.92 228.07 242.743 228.07C242.566 228.07 242.426 228.023 242.323 227.93C242.22 227.827 242.169 227.687 242.169 227.51V221.602C242.169 221.434 242.22 221.299 242.323 221.196C242.426 221.093 242.566 221.042 242.743 221.042C242.911 221.042 243.042 221.093 243.135 221.196C243.238 221.299 243.289 221.429 243.289 221.588V222.302C243.513 221.882 243.826 221.565 244.227 221.35C244.628 221.126 245.086 221.014 245.599 221.014ZM255.656 221.042C255.834 221.042 255.974 221.093 256.076 221.196C256.179 221.299 256.23 221.434 256.23 221.602V227.538C256.23 228.555 255.969 229.321 255.446 229.834C254.924 230.357 254.149 230.618 253.122 230.618C252.124 230.618 251.293 230.422 250.63 230.03C250.294 229.843 250.126 229.629 250.126 229.386C250.126 229.255 250.159 229.148 250.224 229.064C250.299 228.98 250.392 228.938 250.504 228.938C250.598 228.938 250.766 229.003 251.008 229.134C251.335 229.302 251.657 229.437 251.974 229.54C252.292 229.643 252.67 229.694 253.108 229.694C253.771 229.694 254.27 229.517 254.606 229.162C254.942 228.817 255.11 228.308 255.11 227.636V226.432C254.914 226.871 254.611 227.207 254.2 227.44C253.799 227.673 253.323 227.79 252.772 227.79C252.175 227.79 251.643 227.65 251.176 227.37C250.719 227.09 250.36 226.693 250.098 226.18C249.846 225.667 249.72 225.074 249.72 224.402C249.72 223.73 249.846 223.137 250.098 222.624C250.36 222.111 250.719 221.714 251.176 221.434C251.643 221.154 252.175 221.014 252.772 221.014C253.314 221.014 253.785 221.131 254.186 221.364C254.588 221.597 254.891 221.929 255.096 222.358V221.602C255.096 221.434 255.143 221.299 255.236 221.196C255.339 221.093 255.479 221.042 255.656 221.042ZM252.996 226.852C253.65 226.852 254.163 226.637 254.536 226.208C254.91 225.769 255.096 225.167 255.096 224.402C255.096 223.646 254.91 223.053 254.536 222.624C254.172 222.185 253.659 221.966 252.996 221.966C252.334 221.966 251.811 222.185 251.428 222.624C251.055 223.053 250.868 223.646 250.868 224.402C250.868 225.167 251.055 225.769 251.428 226.208C251.811 226.637 252.334 226.852 252.996 226.852ZM264.235 228.098C263.805 228.098 263.395 228.047 263.003 227.944C262.62 227.841 262.279 227.697 261.981 227.51C261.813 227.398 261.691 227.295 261.617 227.202C261.551 227.099 261.519 226.978 261.519 226.838C261.519 226.717 261.551 226.619 261.617 226.544C261.691 226.46 261.785 226.418 261.897 226.418C262.009 226.418 262.172 226.488 262.387 226.628C262.667 226.796 262.942 226.931 263.213 227.034C263.493 227.127 263.838 227.174 264.249 227.174C264.753 227.174 265.145 227.085 265.425 226.908C265.705 226.731 265.845 226.474 265.845 226.138C265.845 225.933 265.793 225.769 265.691 225.648C265.588 225.517 265.411 225.405 265.159 225.312C264.907 225.209 264.538 225.107 264.053 225.004C263.231 224.827 262.643 224.589 262.289 224.29C261.934 223.991 261.757 223.585 261.757 223.072C261.757 222.671 261.869 222.316 262.093 222.008C262.317 221.7 262.625 221.457 263.017 221.28C263.418 221.103 263.871 221.014 264.375 221.014C264.739 221.014 265.089 221.065 265.425 221.168C265.77 221.261 266.073 221.397 266.335 221.574C266.652 221.798 266.811 222.031 266.811 222.274C266.811 222.395 266.773 222.498 266.699 222.582C266.624 222.666 266.535 222.708 266.433 222.708C266.321 222.708 266.153 222.629 265.929 222.47C265.667 222.302 265.42 222.171 265.187 222.078C264.953 221.985 264.664 221.938 264.319 221.938C263.88 221.938 263.525 222.036 263.255 222.232C262.993 222.428 262.863 222.689 262.863 223.016C262.863 223.221 262.909 223.389 263.003 223.52C263.105 223.641 263.269 223.753 263.493 223.856C263.726 223.949 264.057 224.043 264.487 224.136C265.121 224.276 265.611 224.43 265.957 224.598C266.311 224.766 266.563 224.971 266.713 225.214C266.862 225.457 266.937 225.765 266.937 226.138C266.937 226.726 266.689 227.202 266.195 227.566C265.7 227.921 265.047 228.098 264.235 228.098ZM273.943 226.418C274.046 226.418 274.135 226.46 274.209 226.544C274.284 226.628 274.321 226.735 274.321 226.866C274.321 227.099 274.158 227.314 273.831 227.51C273.495 227.706 273.141 227.855 272.767 227.958C272.394 228.051 272.03 228.098 271.675 228.098C270.621 228.098 269.785 227.785 269.169 227.16C268.563 226.535 268.259 225.671 268.259 224.57C268.259 223.87 268.395 223.254 268.665 222.722C268.936 222.181 269.314 221.761 269.799 221.462C270.294 221.163 270.854 221.014 271.479 221.014C272.366 221.014 273.071 221.303 273.593 221.882C274.116 222.461 274.377 223.245 274.377 224.234C274.377 224.421 274.34 224.556 274.265 224.64C274.191 224.724 274.069 224.766 273.901 224.766H269.393C269.477 226.371 270.238 227.174 271.675 227.174C272.039 227.174 272.352 227.127 272.613 227.034C272.875 226.931 273.155 226.796 273.453 226.628C273.696 226.488 273.859 226.418 273.943 226.418ZM271.493 221.896C270.896 221.896 270.415 222.083 270.051 222.456C269.697 222.829 269.487 223.357 269.421 224.038H273.383C273.365 223.347 273.192 222.82 272.865 222.456C272.539 222.083 272.081 221.896 271.493 221.896ZM279.422 221.042C279.814 221.014 280.01 221.173 280.01 221.518C280.01 221.667 279.968 221.789 279.884 221.882C279.8 221.966 279.655 222.017 279.45 222.036L279.03 222.078C278.405 222.134 277.938 222.358 277.63 222.75C277.331 223.133 277.182 223.585 277.182 224.108V227.51C277.182 227.697 277.131 227.837 277.028 227.93C276.925 228.023 276.79 228.07 276.622 228.07C276.454 228.07 276.314 228.023 276.202 227.93C276.099 227.827 276.048 227.687 276.048 227.51V221.602C276.048 221.425 276.104 221.289 276.216 221.196C276.328 221.093 276.463 221.042 276.622 221.042C276.771 221.042 276.897 221.093 277 221.196C277.103 221.289 277.154 221.42 277.154 221.588V222.372C277.35 221.961 277.625 221.649 277.98 221.434C278.344 221.219 278.759 221.093 279.226 221.056L279.422 221.042ZM286.321 221.392C286.424 221.168 286.587 221.056 286.811 221.056C286.951 221.056 287.077 221.103 287.189 221.196C287.301 221.289 287.357 221.406 287.357 221.546C287.357 221.63 287.339 221.705 287.301 221.77L284.571 227.65C284.515 227.771 284.431 227.869 284.319 227.944C284.207 228.009 284.086 228.042 283.955 228.042C283.834 228.042 283.717 228.009 283.605 227.944C283.493 227.869 283.405 227.771 283.339 227.65L280.623 221.77C280.586 221.705 280.567 221.635 280.567 221.56C280.567 221.42 280.628 221.299 280.749 221.196C280.88 221.093 281.02 221.042 281.169 221.042C281.263 221.042 281.351 221.07 281.435 221.126C281.529 221.182 281.599 221.261 281.645 221.364L283.983 226.614L286.321 221.392ZM289.173 228.07C289.005 228.07 288.865 228.023 288.753 227.93C288.65 227.827 288.599 227.687 288.599 227.51V221.602C288.599 221.425 288.65 221.289 288.753 221.196C288.865 221.093 289.005 221.042 289.173 221.042C289.341 221.042 289.476 221.093 289.579 221.196C289.681 221.289 289.733 221.425 289.733 221.602V227.51C289.733 227.697 289.681 227.837 289.579 227.93C289.476 228.023 289.341 228.07 289.173 228.07ZM289.173 219.572C288.949 219.572 288.767 219.507 288.627 219.376C288.487 219.245 288.417 219.073 288.417 218.858C288.417 218.653 288.487 218.485 288.627 218.354C288.767 218.223 288.949 218.158 289.173 218.158C289.397 218.158 289.579 218.223 289.719 218.354C289.859 218.485 289.929 218.653 289.929 218.858C289.929 219.073 289.859 219.245 289.719 219.376C289.579 219.507 289.397 219.572 289.173 219.572ZM294.667 228.098C294.032 228.098 293.467 227.953 292.973 227.664C292.487 227.375 292.109 226.964 291.839 226.432C291.577 225.9 291.447 225.284 291.447 224.584C291.447 223.884 291.582 223.263 291.853 222.722C292.133 222.181 292.52 221.761 293.015 221.462C293.509 221.163 294.079 221.014 294.723 221.014C295.077 221.014 295.427 221.065 295.773 221.168C296.127 221.261 296.435 221.401 296.697 221.588C296.865 221.7 296.981 221.812 297.047 221.924C297.121 222.027 297.159 222.143 297.159 222.274C297.159 222.405 297.121 222.512 297.047 222.596C296.981 222.68 296.893 222.722 296.781 222.722C296.715 222.722 296.645 222.703 296.571 222.666C296.496 222.629 296.431 222.591 296.375 222.554C296.328 222.517 296.295 222.493 296.277 222.484C296.034 222.325 295.801 222.199 295.577 222.106C295.362 222.013 295.096 221.966 294.779 221.966C294.097 221.966 293.565 222.199 293.183 222.666C292.809 223.123 292.623 223.763 292.623 224.584C292.623 225.405 292.809 226.04 293.183 226.488C293.565 226.936 294.097 227.16 294.779 227.16C295.096 227.16 295.367 227.113 295.591 227.02C295.824 226.927 296.057 226.801 296.291 226.642C296.393 226.577 296.491 226.521 296.585 226.474C296.678 226.427 296.757 226.404 296.823 226.404C296.925 226.404 297.009 226.446 297.075 226.53C297.149 226.614 297.187 226.721 297.187 226.852C297.187 226.973 297.154 227.085 297.089 227.188C297.023 227.281 296.902 227.389 296.725 227.51C296.463 227.687 296.146 227.832 295.773 227.944C295.409 228.047 295.04 228.098 294.667 228.098ZM303.83 226.418C303.933 226.418 304.021 226.46 304.096 226.544C304.171 226.628 304.208 226.735 304.208 226.866C304.208 227.099 304.045 227.314 303.718 227.51C303.382 227.706 303.027 227.855 302.654 227.958C302.281 228.051 301.917 228.098 301.562 228.098C300.507 228.098 299.672 227.785 299.056 227.16C298.449 226.535 298.146 225.671 298.146 224.57C298.146 223.87 298.281 223.254 298.552 222.722C298.823 222.181 299.201 221.761 299.686 221.462C300.181 221.163 300.741 221.014 301.366 221.014C302.253 221.014 302.957 221.303 303.48 221.882C304.003 222.461 304.264 223.245 304.264 224.234C304.264 224.421 304.227 224.556 304.152 224.64C304.077 224.724 303.956 224.766 303.788 224.766H299.28C299.364 226.371 300.125 227.174 301.562 227.174C301.926 227.174 302.239 227.127 302.5 227.034C302.761 226.931 303.041 226.796 303.34 226.628C303.583 226.488 303.746 226.418 303.83 226.418ZM301.38 221.896C300.783 221.896 300.302 222.083 299.938 222.456C299.583 222.829 299.373 223.357 299.308 224.038H303.27C303.251 223.347 303.079 222.82 302.752 222.456C302.425 222.083 301.968 221.896 301.38 221.896ZM306.495 228.07C306.271 228.07 306.084 228 305.935 227.86C305.785 227.711 305.711 227.519 305.711 227.286C305.711 227.053 305.785 226.861 305.935 226.712C306.084 226.563 306.271 226.488 306.495 226.488C306.709 226.488 306.887 226.563 307.027 226.712C307.176 226.861 307.251 227.053 307.251 227.286C307.251 227.519 307.176 227.711 307.027 227.86C306.887 228 306.709 228.07 306.495 228.07Z" fill="#282A30" fill-opacity="0.4"/>
<defs>
<filter id="filter0_d_27_27" x="0" y="0" width="649" height="399" filterUnits="userSpaceOnUse" color-interpolation-filters="sRGB">
<feFlood flood-opacity="0" result="BackgroundImageFix"/>
<feColorMatrix in="SourceAlpha" type="matrix" values="0 0 0 0 0 0 0 0 0 0 0 0 0 0 0 0 0 0 127 0" result="hardAlpha"/>
<feOffset dx="20" dy="4"/>
<feGaussianBlur stdDeviation="50"/>
<feColorMatrix type="matrix" values="0 0 0 0 0 0 0 0 0 0 0 0 0 0 0 0 0 0 0.1 0"/>
<feBlend mode="normal" in2="BackgroundImageFix" result="effect1_dropShadow_27_27"/>
<feBlend mode="normal" in="SourceGraphic" in2="effect1_dropShadow_27_27" result="shape"/>
</filter>
</defs>
</svg>
