<svg width="649" height="399" viewBox="0 0 649 399" fill="none" xmlns="http://www.w3.org/2000/svg">
<g filter="url(#filter0_d_27_20)">
<rect x="80" y="96" width="449" height="199" fill="white"/>
</g>
<circle cx="149.5" cy="165.5" r="25.5" fill="#F7515C" fill-opacity="0.05"/>
<path d="M145.4 162.02C145.787 161.86 146.187 161.68 146.6 161.48C147.027 161.267 147.44 161.04 147.84 160.8C148.24 160.547 148.62 160.287 148.98 160.02C149.353 159.74 149.687 159.447 149.98 159.14H152.06V173H149.08V163.02C148.68 163.287 148.233 163.533 147.74 163.76C147.247 163.973 146.767 164.16 146.3 164.32L145.4 162.02Z" fill="#F7515C"/>
<path d="M201.9 161.6V165.3H208.38V167.9H201.9V173H198.66V159H209.24V161.6H201.9ZM221.78 162.24V173H218.82V171.72C218.407 172.187 217.913 172.547 217.34 172.8C216.767 173.04 216.147 173.16 215.48 173.16C214.067 173.16 212.947 172.753 212.12 171.94C211.293 171.127 210.88 169.92 210.88 168.32V162.24H214V167.86C214 169.593 214.727 170.46 216.18 170.46C216.927 170.46 217.527 170.22 217.98 169.74C218.433 169.247 218.66 168.52 218.66 167.56V162.24H221.78ZM224.67 158.16H227.79V173H224.67V158.16ZM230.686 158.16H233.806V173H230.686V158.16ZM245.986 173.16C245.092 173.16 244.219 173.053 243.366 172.84C242.512 172.613 241.832 172.333 241.326 172L242.366 169.76C242.846 170.067 243.426 170.32 244.106 170.52C244.786 170.707 245.452 170.8 246.106 170.8C247.426 170.8 248.086 170.473 248.086 169.82C248.086 169.513 247.906 169.293 247.546 169.16C247.186 169.027 246.632 168.913 245.886 168.82C245.006 168.687 244.279 168.533 243.706 168.36C243.132 168.187 242.632 167.88 242.206 167.44C241.792 167 241.586 166.373 241.586 165.56C241.586 164.88 241.779 164.28 242.166 163.76C242.566 163.227 243.139 162.813 243.886 162.52C244.646 162.227 245.539 162.08 246.566 162.08C247.326 162.08 248.079 162.167 248.826 162.34C249.586 162.5 250.212 162.727 250.706 163.02L249.666 165.24C248.719 164.707 247.686 164.44 246.566 164.44C245.899 164.44 245.399 164.533 245.066 164.72C244.732 164.907 244.566 165.147 244.566 165.44C244.566 165.773 244.746 166.007 245.106 166.14C245.466 166.273 246.039 166.4 246.826 166.52C247.706 166.667 248.426 166.827 248.986 167C249.546 167.16 250.032 167.46 250.446 167.9C250.859 168.34 251.066 168.953 251.066 169.74C251.066 170.407 250.866 171 250.466 171.52C250.066 172.04 249.479 172.447 248.706 172.74C247.946 173.02 247.039 173.16 245.986 173.16ZM263.531 167.66C263.531 167.7 263.511 167.98 263.471 168.5H255.331C255.477 169.167 255.824 169.693 256.371 170.08C256.917 170.467 257.597 170.66 258.411 170.66C258.971 170.66 259.464 170.58 259.891 170.42C260.331 170.247 260.737 169.98 261.111 169.62L262.771 171.42C261.757 172.58 260.277 173.16 258.331 173.16C257.117 173.16 256.044 172.927 255.111 172.46C254.177 171.98 253.457 171.32 252.951 170.48C252.444 169.64 252.191 168.687 252.191 167.62C252.191 166.567 252.437 165.62 252.931 164.78C253.437 163.927 254.124 163.267 254.991 162.8C255.871 162.32 256.851 162.08 257.931 162.08C258.984 162.08 259.937 162.307 260.791 162.76C261.644 163.213 262.311 163.867 262.791 164.72C263.284 165.56 263.531 166.54 263.531 167.66ZM257.951 164.44C257.244 164.44 256.651 164.64 256.171 165.04C255.691 165.44 255.397 165.987 255.291 166.68H260.591C260.484 166 260.191 165.46 259.711 165.06C259.231 164.647 258.644 164.44 257.951 164.44ZM268.588 163.66C268.961 163.14 269.461 162.747 270.088 162.48C270.728 162.213 271.461 162.08 272.288 162.08V164.96C271.941 164.933 271.708 164.92 271.588 164.92C270.695 164.92 269.995 165.173 269.488 165.68C268.981 166.173 268.728 166.92 268.728 167.92V173H265.608V162.24H268.588V163.66ZM285.194 162.24L280.654 173H277.434L272.914 162.24H276.134L279.114 169.56L282.194 162.24H285.194ZM286.467 162.24H289.587V173H286.467V162.24ZM288.027 160.74C287.454 160.74 286.987 160.573 286.627 160.24C286.267 159.907 286.087 159.493 286.087 159C286.087 158.507 286.267 158.093 286.627 157.76C286.987 157.427 287.454 157.26 288.027 157.26C288.601 157.26 289.067 157.42 289.427 157.74C289.787 158.06 289.967 158.46 289.967 158.94C289.967 159.46 289.787 159.893 289.427 160.24C289.067 160.573 288.601 160.74 288.027 160.74ZM297.683 173.16C296.536 173.16 295.503 172.927 294.583 172.46C293.676 171.98 292.963 171.32 292.443 170.48C291.936 169.64 291.683 168.687 291.683 167.62C291.683 166.553 291.936 165.6 292.443 164.76C292.963 163.92 293.676 163.267 294.583 162.8C295.503 162.32 296.536 162.08 297.683 162.08C298.816 162.08 299.803 162.32 300.643 162.8C301.496 163.267 302.116 163.94 302.503 164.82L300.083 166.12C299.523 165.133 298.716 164.64 297.663 164.64C296.85 164.64 296.176 164.907 295.643 165.44C295.11 165.973 294.843 166.7 294.843 167.62C294.843 168.54 295.11 169.267 295.643 169.8C296.176 170.333 296.85 170.6 297.663 170.6C298.73 170.6 299.536 170.107 300.083 169.12L302.503 170.44C302.116 171.293 301.496 171.96 300.643 172.44C299.803 172.92 298.816 173.16 297.683 173.16ZM314.703 167.66C314.703 167.7 314.683 167.98 314.643 168.5H306.503C306.649 169.167 306.996 169.693 307.543 170.08C308.089 170.467 308.769 170.66 309.583 170.66C310.143 170.66 310.636 170.58 311.063 170.42C311.503 170.247 311.909 169.98 312.283 169.62L313.943 171.42C312.929 172.58 311.449 173.16 309.503 173.16C308.289 173.16 307.216 172.927 306.283 172.46C305.349 171.98 304.629 171.32 304.123 170.48C303.616 169.64 303.363 168.687 303.363 167.62C303.363 166.567 303.609 165.62 304.103 164.78C304.609 163.927 305.296 163.267 306.163 162.8C307.043 162.32 308.023 162.08 309.103 162.08C310.156 162.08 311.109 162.307 311.963 162.76C312.816 163.213 313.483 163.867 313.963 164.72C314.456 165.56 314.703 166.54 314.703 167.66ZM309.123 164.44C308.416 164.44 307.823 164.64 307.343 165.04C306.863 165.44 306.569 165.987 306.463 166.68H311.763C311.656 166 311.363 165.46 310.883 165.06C310.403 164.647 309.816 164.44 309.123 164.44ZM320.4 173.16C319.507 173.16 318.633 173.053 317.78 172.84C316.927 172.613 316.247 172.333 315.74 172L316.78 169.76C317.26 170.067 317.84 170.32 318.52 170.52C319.2 170.707 319.867 170.8 320.52 170.8C321.84 170.8 322.5 170.473 322.5 169.82C322.5 169.513 322.32 169.293 321.96 169.16C321.6 169.027 321.047 168.913 320.3 168.82C319.42 168.687 318.693 168.533 318.12 168.36C317.547 168.187 317.047 167.88 316.62 167.44C316.207 167 316 166.373 316 165.56C316 164.88 316.193 164.28 316.58 163.76C316.98 163.227 317.553 162.813 318.3 162.52C319.06 162.227 319.953 162.08 320.98 162.08C321.74 162.08 322.493 162.167 323.24 162.34C324 162.5 324.627 162.727 325.12 163.02L324.08 165.24C323.133 164.707 322.1 164.44 320.98 164.44C320.313 164.44 319.813 164.533 319.48 164.72C319.147 164.907 318.98 165.147 318.98 165.44C318.98 165.773 319.16 166.007 319.52 166.14C319.88 166.273 320.453 166.4 321.24 166.52C322.12 166.667 322.84 166.827 323.4 167C323.96 167.16 324.447 167.46 324.86 167.9C325.273 168.34 325.48 168.953 325.48 169.74C325.48 170.407 325.28 171 324.88 171.52C324.48 172.04 323.893 172.447 323.12 172.74C322.36 173.02 321.453 173.16 320.4 173.16Z" fill="#282A30"/>
<path d="M198.792 205.07C198.615 205.07 198.475 205.019 198.372 204.916C198.269 204.804 198.218 204.659 198.218 204.482V195.69C198.218 195.522 198.269 195.387 198.372 195.284C198.484 195.181 198.629 195.13 198.806 195.13H202.124C203.16 195.13 203.963 195.382 204.532 195.886C205.111 196.39 205.4 197.104 205.4 198.028C205.4 198.952 205.111 199.671 204.532 200.184C203.953 200.697 203.151 200.954 202.124 200.954H199.366V204.482C199.366 204.659 199.315 204.804 199.212 204.916C199.109 205.019 198.969 205.07 198.792 205.07ZM202.012 200.002C203.515 200.002 204.266 199.344 204.266 198.028C204.266 196.731 203.515 196.082 202.012 196.082H199.366V200.002H202.012ZM210.311 198.042C210.703 198.014 210.899 198.173 210.899 198.518C210.899 198.667 210.857 198.789 210.773 198.882C210.689 198.966 210.544 199.017 210.339 199.036L209.919 199.078C209.293 199.134 208.827 199.358 208.519 199.75C208.22 200.133 208.071 200.585 208.071 201.108V204.51C208.071 204.697 208.019 204.837 207.917 204.93C207.814 205.023 207.679 205.07 207.511 205.07C207.343 205.07 207.203 205.023 207.091 204.93C206.988 204.827 206.937 204.687 206.937 204.51V198.602C206.937 198.425 206.993 198.289 207.105 198.196C207.217 198.093 207.352 198.042 207.511 198.042C207.66 198.042 207.786 198.093 207.889 198.196C207.991 198.289 208.043 198.42 208.043 198.588V199.372C208.239 198.961 208.514 198.649 208.869 198.434C209.233 198.219 209.648 198.093 210.115 198.056L210.311 198.042ZM214.564 205.098C213.92 205.098 213.35 204.953 212.856 204.664C212.37 204.375 211.992 203.964 211.722 203.432C211.46 202.891 211.33 202.265 211.33 201.556C211.33 200.847 211.46 200.226 211.722 199.694C211.992 199.153 212.37 198.737 212.856 198.448C213.35 198.159 213.92 198.014 214.564 198.014C215.208 198.014 215.777 198.159 216.272 198.448C216.766 198.737 217.144 199.153 217.406 199.694C217.676 200.226 217.812 200.847 217.812 201.556C217.812 202.265 217.676 202.891 217.406 203.432C217.144 203.964 216.766 204.375 216.272 204.664C215.777 204.953 215.208 205.098 214.564 205.098ZM214.564 204.16C215.236 204.16 215.749 203.941 216.104 203.502C216.468 203.054 216.65 202.405 216.65 201.556C216.65 200.725 216.468 200.086 216.104 199.638C215.74 199.181 215.226 198.952 214.564 198.952C213.901 198.952 213.388 199.181 213.024 199.638C212.66 200.086 212.478 200.725 212.478 201.556C212.478 202.396 212.655 203.04 213.01 203.488C213.374 203.936 213.892 204.16 214.564 204.16ZM224.333 198.392C224.436 198.168 224.599 198.056 224.823 198.056C224.963 198.056 225.089 198.103 225.201 198.196C225.313 198.289 225.369 198.406 225.369 198.546C225.369 198.63 225.35 198.705 225.313 198.77L222.583 204.65C222.527 204.771 222.443 204.869 222.331 204.944C222.219 205.009 222.098 205.042 221.967 205.042C221.846 205.042 221.729 205.009 221.617 204.944C221.505 204.869 221.416 204.771 221.351 204.65L218.635 198.77C218.598 198.705 218.579 198.635 218.579 198.56C218.579 198.42 218.64 198.299 218.761 198.196C218.892 198.093 219.032 198.042 219.181 198.042C219.274 198.042 219.363 198.07 219.447 198.126C219.54 198.182 219.61 198.261 219.657 198.364L221.995 203.614L224.333 198.392ZM227.185 205.07C227.017 205.07 226.877 205.023 226.765 204.93C226.662 204.827 226.611 204.687 226.611 204.51V198.602C226.611 198.425 226.662 198.289 226.765 198.196C226.877 198.093 227.017 198.042 227.185 198.042C227.353 198.042 227.488 198.093 227.591 198.196C227.693 198.289 227.745 198.425 227.745 198.602V204.51C227.745 204.697 227.693 204.837 227.591 204.93C227.488 205.023 227.353 205.07 227.185 205.07ZM227.185 196.572C226.961 196.572 226.779 196.507 226.639 196.376C226.499 196.245 226.429 196.073 226.429 195.858C226.429 195.653 226.499 195.485 226.639 195.354C226.779 195.223 226.961 195.158 227.185 195.158C227.409 195.158 227.591 195.223 227.731 195.354C227.871 195.485 227.941 195.653 227.941 195.858C227.941 196.073 227.871 196.245 227.731 196.376C227.591 196.507 227.409 196.572 227.185 196.572ZM235.338 195.06C235.516 195.06 235.656 195.111 235.758 195.214C235.861 195.317 235.912 195.447 235.912 195.606V204.51C235.912 204.678 235.861 204.813 235.758 204.916C235.656 205.019 235.516 205.07 235.338 205.07C235.161 205.07 235.021 205.019 234.918 204.916C234.825 204.813 234.778 204.678 234.778 204.51V203.754C234.573 204.183 234.27 204.515 233.868 204.748C233.476 204.981 233.014 205.098 232.482 205.098C231.885 205.098 231.358 204.949 230.9 204.65C230.443 204.351 230.088 203.936 229.836 203.404C229.584 202.863 229.458 202.237 229.458 201.528C229.458 200.828 229.584 200.212 229.836 199.68C230.088 199.148 230.443 198.737 230.9 198.448C231.358 198.159 231.885 198.014 232.482 198.014C233.014 198.014 233.476 198.131 233.868 198.364C234.27 198.597 234.573 198.929 234.778 199.358V195.606C234.778 195.438 234.825 195.307 234.918 195.214C235.021 195.111 235.161 195.06 235.338 195.06ZM232.706 204.16C233.369 204.16 233.878 203.936 234.232 203.488C234.596 203.031 234.778 202.387 234.778 201.556C234.778 200.725 234.596 200.086 234.232 199.638C233.878 199.19 233.369 198.966 232.706 198.966C232.044 198.966 231.526 199.19 231.152 199.638C230.788 200.086 230.606 200.716 230.606 201.528C230.606 202.359 230.788 203.007 231.152 203.474C231.526 203.931 232.044 204.16 232.706 204.16ZM243.291 203.418C243.394 203.418 243.482 203.46 243.557 203.544C243.632 203.628 243.669 203.735 243.669 203.866C243.669 204.099 243.506 204.314 243.179 204.51C242.843 204.706 242.488 204.855 242.115 204.958C241.742 205.051 241.378 205.098 241.023 205.098C239.968 205.098 239.133 204.785 238.517 204.16C237.91 203.535 237.607 202.671 237.607 201.57C237.607 200.87 237.742 200.254 238.013 199.722C238.284 199.181 238.662 198.761 239.147 198.462C239.642 198.163 240.202 198.014 240.827 198.014C241.714 198.014 242.418 198.303 242.941 198.882C243.464 199.461 243.725 200.245 243.725 201.234C243.725 201.421 243.688 201.556 243.613 201.64C243.538 201.724 243.417 201.766 243.249 201.766H238.741C238.825 203.371 239.586 204.174 241.023 204.174C241.387 204.174 241.7 204.127 241.961 204.034C242.222 203.931 242.502 203.796 242.801 203.628C243.044 203.488 243.207 203.418 243.291 203.418ZM240.841 198.896C240.244 198.896 239.763 199.083 239.399 199.456C239.044 199.829 238.834 200.357 238.769 201.038H242.731C242.712 200.347 242.54 199.82 242.213 199.456C241.886 199.083 241.429 198.896 240.841 198.896ZM252.155 204.174C252.482 204.202 252.645 204.351 252.645 204.622C252.645 204.781 252.584 204.902 252.463 204.986C252.351 205.061 252.178 205.089 251.945 205.07L251.567 205.042C250.82 204.986 250.27 204.762 249.915 204.37C249.56 203.978 249.383 203.385 249.383 202.592V199.078H248.445C248.286 199.078 248.16 199.041 248.067 198.966C247.983 198.882 247.941 198.775 247.941 198.644C247.941 198.504 247.983 198.392 248.067 198.308C248.16 198.224 248.286 198.182 248.445 198.182H249.383V196.6C249.383 196.423 249.434 196.287 249.537 196.194C249.64 196.091 249.78 196.04 249.957 196.04C250.125 196.04 250.26 196.091 250.363 196.194C250.466 196.287 250.517 196.423 250.517 196.6V198.182H252.071C252.22 198.182 252.337 198.224 252.421 198.308C252.514 198.392 252.561 198.504 252.561 198.644C252.561 198.775 252.514 198.882 252.421 198.966C252.337 199.041 252.22 199.078 252.071 199.078H250.517V202.648C250.517 203.161 250.62 203.535 250.825 203.768C251.04 203.992 251.357 204.118 251.777 204.146L252.155 204.174ZM257.207 198.014C258.01 198.014 258.616 198.243 259.027 198.7C259.438 199.148 259.643 199.82 259.643 200.716V204.51C259.643 204.687 259.592 204.827 259.489 204.93C259.386 205.023 259.251 205.07 259.083 205.07C258.906 205.07 258.766 205.023 258.663 204.93C258.56 204.827 258.509 204.687 258.509 204.51V200.744C258.509 200.137 258.383 199.689 258.131 199.4C257.888 199.111 257.496 198.966 256.955 198.966C256.33 198.966 255.83 199.157 255.457 199.54C255.084 199.923 254.897 200.441 254.897 201.094V204.51C254.897 204.687 254.846 204.827 254.743 204.93C254.65 205.023 254.514 205.07 254.337 205.07C254.16 205.07 254.02 205.023 253.917 204.93C253.814 204.827 253.763 204.687 253.763 204.51V195.606C253.763 195.447 253.814 195.317 253.917 195.214C254.029 195.111 254.169 195.06 254.337 195.06C254.514 195.06 254.65 195.111 254.743 195.214C254.846 195.307 254.897 195.438 254.897 195.606V199.274C255.121 198.863 255.434 198.551 255.835 198.336C256.236 198.121 256.694 198.014 257.207 198.014ZM266.998 203.418C267.101 203.418 267.189 203.46 267.264 203.544C267.339 203.628 267.376 203.735 267.376 203.866C267.376 204.099 267.213 204.314 266.886 204.51C266.55 204.706 266.195 204.855 265.822 204.958C265.449 205.051 265.085 205.098 264.73 205.098C263.675 205.098 262.84 204.785 262.224 204.16C261.617 203.535 261.314 202.671 261.314 201.57C261.314 200.87 261.449 200.254 261.72 199.722C261.991 199.181 262.369 198.761 262.854 198.462C263.349 198.163 263.909 198.014 264.534 198.014C265.421 198.014 266.125 198.303 266.648 198.882C267.171 199.461 267.432 200.245 267.432 201.234C267.432 201.421 267.395 201.556 267.32 201.64C267.245 201.724 267.124 201.766 266.956 201.766H262.448C262.532 203.371 263.293 204.174 264.73 204.174C265.094 204.174 265.407 204.127 265.668 204.034C265.929 203.931 266.209 203.796 266.508 203.628C266.751 203.488 266.914 203.418 266.998 203.418ZM264.548 198.896C263.951 198.896 263.47 199.083 263.106 199.456C262.751 199.829 262.541 200.357 262.476 201.038H266.438C266.419 200.347 266.247 199.82 265.92 199.456C265.593 199.083 265.136 198.896 264.548 198.896ZM276.142 198.014C276.739 198.014 277.267 198.159 277.724 198.448C278.181 198.737 278.536 199.148 278.788 199.68C279.04 200.212 279.166 200.828 279.166 201.528C279.166 202.237 279.04 202.863 278.788 203.404C278.536 203.936 278.181 204.351 277.724 204.65C277.267 204.949 276.739 205.098 276.142 205.098C275.61 205.098 275.143 204.981 274.742 204.748C274.35 204.515 274.051 204.183 273.846 203.754V204.51C273.846 204.678 273.795 204.813 273.692 204.916C273.599 205.019 273.463 205.07 273.286 205.07C273.109 205.07 272.969 205.019 272.866 204.916C272.763 204.813 272.712 204.678 272.712 204.51V195.606C272.712 195.447 272.763 195.317 272.866 195.214C272.969 195.111 273.109 195.06 273.286 195.06C273.463 195.06 273.599 195.111 273.692 195.214C273.795 195.307 273.846 195.438 273.846 195.606V199.358C274.051 198.929 274.35 198.597 274.742 198.364C275.143 198.131 275.61 198.014 276.142 198.014ZM275.918 204.16C276.581 204.16 277.094 203.931 277.458 203.474C277.822 203.007 278.004 202.359 278.004 201.528C278.004 200.716 277.822 200.086 277.458 199.638C277.094 199.19 276.581 198.966 275.918 198.966C275.255 198.966 274.742 199.19 274.378 199.638C274.023 200.086 273.846 200.725 273.846 201.556C273.846 202.387 274.023 203.031 274.378 203.488C274.742 203.936 275.255 204.16 275.918 204.16ZM286.139 203.418C286.241 203.418 286.33 203.46 286.405 203.544C286.479 203.628 286.517 203.735 286.517 203.866C286.517 204.099 286.353 204.314 286.027 204.51C285.691 204.706 285.336 204.855 284.963 204.958C284.589 205.051 284.225 205.098 283.871 205.098C282.816 205.098 281.981 204.785 281.365 204.16C280.758 203.535 280.455 202.671 280.455 201.57C280.455 200.87 280.59 200.254 280.861 199.722C281.131 199.181 281.509 198.761 281.995 198.462C282.489 198.163 283.049 198.014 283.675 198.014C284.561 198.014 285.266 198.303 285.789 198.882C286.311 199.461 286.573 200.245 286.573 201.234C286.573 201.421 286.535 201.556 286.461 201.64C286.386 201.724 286.265 201.766 286.097 201.766H281.589C281.673 203.371 282.433 204.174 283.871 204.174C284.235 204.174 284.547 204.127 284.809 204.034C285.07 203.931 285.35 203.796 285.649 203.628C285.891 203.488 286.055 203.418 286.139 203.418ZM283.689 198.896C283.091 198.896 282.611 199.083 282.247 199.456C281.892 199.829 281.682 200.357 281.617 201.038H285.579C285.56 200.347 285.387 199.82 285.061 199.456C284.734 199.083 284.277 198.896 283.689 198.896ZM290.539 205.098C290.11 205.098 289.699 205.047 289.307 204.944C288.925 204.841 288.584 204.697 288.285 204.51C288.117 204.398 287.996 204.295 287.921 204.202C287.856 204.099 287.823 203.978 287.823 203.838C287.823 203.717 287.856 203.619 287.921 203.544C287.996 203.46 288.089 203.418 288.201 203.418C288.313 203.418 288.477 203.488 288.691 203.628C288.971 203.796 289.247 203.931 289.517 204.034C289.797 204.127 290.143 204.174 290.553 204.174C291.057 204.174 291.449 204.085 291.729 203.908C292.009 203.731 292.149 203.474 292.149 203.138C292.149 202.933 292.098 202.769 291.995 202.648C291.893 202.517 291.715 202.405 291.463 202.312C291.211 202.209 290.843 202.107 290.357 202.004C289.536 201.827 288.948 201.589 288.593 201.29C288.239 200.991 288.061 200.585 288.061 200.072C288.061 199.671 288.173 199.316 288.397 199.008C288.621 198.7 288.929 198.457 289.321 198.28C289.723 198.103 290.175 198.014 290.679 198.014C291.043 198.014 291.393 198.065 291.729 198.168C292.075 198.261 292.378 198.397 292.639 198.574C292.957 198.798 293.115 199.031 293.115 199.274C293.115 199.395 293.078 199.498 293.003 199.582C292.929 199.666 292.84 199.708 292.737 199.708C292.625 199.708 292.457 199.629 292.233 199.47C291.972 199.302 291.725 199.171 291.491 199.078C291.258 198.985 290.969 198.938 290.623 198.938C290.185 198.938 289.83 199.036 289.559 199.232C289.298 199.428 289.167 199.689 289.167 200.016C289.167 200.221 289.214 200.389 289.307 200.52C289.41 200.641 289.573 200.753 289.797 200.856C290.031 200.949 290.362 201.043 290.791 201.136C291.426 201.276 291.916 201.43 292.261 201.598C292.616 201.766 292.868 201.971 293.017 202.214C293.167 202.457 293.241 202.765 293.241 203.138C293.241 203.726 292.994 204.202 292.499 204.566C292.005 204.921 291.351 205.098 290.539 205.098ZM298.052 204.174C298.378 204.202 298.542 204.351 298.542 204.622C298.542 204.781 298.481 204.902 298.36 204.986C298.248 205.061 298.075 205.089 297.842 205.07L297.464 205.042C296.717 204.986 296.166 204.762 295.812 204.37C295.457 203.978 295.28 203.385 295.28 202.592V199.078H294.342C294.183 199.078 294.057 199.041 293.964 198.966C293.88 198.882 293.838 198.775 293.838 198.644C293.838 198.504 293.88 198.392 293.964 198.308C294.057 198.224 294.183 198.182 294.342 198.182H295.28V196.6C295.28 196.423 295.331 196.287 295.434 196.194C295.536 196.091 295.676 196.04 295.854 196.04C296.022 196.04 296.157 196.091 296.26 196.194C296.362 196.287 296.414 196.423 296.414 196.6V198.182H297.968C298.117 198.182 298.234 198.224 298.318 198.308C298.411 198.392 298.458 198.504 298.458 198.644C298.458 198.775 298.411 198.882 298.318 198.966C298.234 199.041 298.117 199.078 297.968 199.078H296.414V202.648C296.414 203.161 296.516 203.535 296.722 203.768C296.936 203.992 297.254 204.118 297.674 204.146L298.052 204.174ZM305.565 205.098C305.135 205.098 304.725 205.047 304.333 204.944C303.95 204.841 303.609 204.697 303.311 204.51C303.143 204.398 303.021 204.295 302.947 204.202C302.881 204.099 302.849 203.978 302.849 203.838C302.849 203.717 302.881 203.619 302.947 203.544C303.021 203.46 303.115 203.418 303.227 203.418C303.339 203.418 303.502 203.488 303.717 203.628C303.997 203.796 304.272 203.931 304.543 204.034C304.823 204.127 305.168 204.174 305.579 204.174C306.083 204.174 306.475 204.085 306.755 203.908C307.035 203.731 307.175 203.474 307.175 203.138C307.175 202.933 307.123 202.769 307.021 202.648C306.918 202.517 306.741 202.405 306.489 202.312C306.237 202.209 305.868 202.107 305.383 202.004C304.561 201.827 303.973 201.589 303.619 201.29C303.264 200.991 303.087 200.585 303.087 200.072C303.087 199.671 303.199 199.316 303.423 199.008C303.647 198.7 303.955 198.457 304.347 198.28C304.748 198.103 305.201 198.014 305.705 198.014C306.069 198.014 306.419 198.065 306.755 198.168C307.1 198.261 307.403 198.397 307.665 198.574C307.982 198.798 308.141 199.031 308.141 199.274C308.141 199.395 308.103 199.498 308.029 199.582C307.954 199.666 307.865 199.708 307.763 199.708C307.651 199.708 307.483 199.629 307.259 199.47C306.997 199.302 306.75 199.171 306.517 199.078C306.283 198.985 305.994 198.938 305.649 198.938C305.21 198.938 304.855 199.036 304.585 199.232C304.323 199.428 304.193 199.689 304.193 200.016C304.193 200.221 304.239 200.389 304.333 200.52C304.435 200.641 304.599 200.753 304.823 200.856C305.056 200.949 305.387 201.043 305.817 201.136C306.451 201.276 306.941 201.43 307.287 201.598C307.641 201.766 307.893 201.971 308.043 202.214C308.192 202.457 308.267 202.765 308.267 203.138C308.267 203.726 308.019 204.202 307.525 204.566C307.03 204.921 306.377 205.098 305.565 205.098ZM315.273 203.418C315.376 203.418 315.465 203.46 315.539 203.544C315.614 203.628 315.651 203.735 315.651 203.866C315.651 204.099 315.488 204.314 315.161 204.51C314.825 204.706 314.471 204.855 314.097 204.958C313.724 205.051 313.36 205.098 313.005 205.098C311.951 205.098 311.115 204.785 310.499 204.16C309.893 203.535 309.589 202.671 309.589 201.57C309.589 200.87 309.725 200.254 309.995 199.722C310.266 199.181 310.644 198.761 311.129 198.462C311.624 198.163 312.184 198.014 312.809 198.014C313.696 198.014 314.401 198.303 314.923 198.882C315.446 199.461 315.707 200.245 315.707 201.234C315.707 201.421 315.67 201.556 315.595 201.64C315.521 201.724 315.399 201.766 315.231 201.766H310.723C310.807 203.371 311.568 204.174 313.005 204.174C313.369 204.174 313.682 204.127 313.943 204.034C314.205 203.931 314.485 203.796 314.783 203.628C315.026 203.488 315.189 203.418 315.273 203.418ZM312.823 198.896C312.226 198.896 311.745 199.083 311.381 199.456C311.027 199.829 310.817 200.357 310.751 201.038H314.713C314.695 200.347 314.522 199.82 314.195 199.456C313.869 199.083 313.411 198.896 312.823 198.896ZM320.752 198.042C321.144 198.014 321.34 198.173 321.34 198.518C321.34 198.667 321.298 198.789 321.214 198.882C321.13 198.966 320.985 199.017 320.78 199.036L320.36 199.078C319.735 199.134 319.268 199.358 318.96 199.75C318.661 200.133 318.512 200.585 318.512 201.108V204.51C318.512 204.697 318.461 204.837 318.358 204.93C318.255 205.023 318.12 205.07 317.952 205.07C317.784 205.07 317.644 205.023 317.532 204.93C317.429 204.827 317.378 204.687 317.378 204.51V198.602C317.378 198.425 317.434 198.289 317.546 198.196C317.658 198.093 317.793 198.042 317.952 198.042C318.101 198.042 318.227 198.093 318.33 198.196C318.433 198.289 318.484 198.42 318.484 198.588V199.372C318.68 198.961 318.955 198.649 319.31 198.434C319.674 198.219 320.089 198.093 320.556 198.056L320.752 198.042ZM327.652 198.392C327.754 198.168 327.918 198.056 328.142 198.056C328.282 198.056 328.408 198.103 328.52 198.196C328.632 198.289 328.688 198.406 328.688 198.546C328.688 198.63 328.669 198.705 328.632 198.77L325.902 204.65C325.846 204.771 325.762 204.869 325.65 204.944C325.538 205.009 325.416 205.042 325.285 205.042C325.164 205.042 325.048 205.009 324.936 204.944C324.824 204.869 324.735 204.771 324.67 204.65L321.954 198.77C321.916 198.705 321.898 198.635 321.898 198.56C321.898 198.42 321.958 198.299 322.08 198.196C322.21 198.093 322.35 198.042 322.5 198.042C322.593 198.042 322.682 198.07 322.766 198.126C322.859 198.182 322.929 198.261 322.976 198.364L325.314 203.614L327.652 198.392ZM330.503 205.07C330.335 205.07 330.195 205.023 330.083 204.93C329.98 204.827 329.929 204.687 329.929 204.51V198.602C329.929 198.425 329.98 198.289 330.083 198.196C330.195 198.093 330.335 198.042 330.503 198.042C330.671 198.042 330.806 198.093 330.909 198.196C331.012 198.289 331.063 198.425 331.063 198.602V204.51C331.063 204.697 331.012 204.837 330.909 204.93C330.806 205.023 330.671 205.07 330.503 205.07ZM330.503 196.572C330.279 196.572 330.097 196.507 329.957 196.376C329.817 196.245 329.747 196.073 329.747 195.858C329.747 195.653 329.817 195.485 329.957 195.354C330.097 195.223 330.279 195.158 330.503 195.158C330.727 195.158 330.909 195.223 331.049 195.354C331.189 195.485 331.259 195.653 331.259 195.858C331.259 196.073 331.189 196.245 331.049 196.376C330.909 196.507 330.727 196.572 330.503 196.572ZM335.997 205.098C335.362 205.098 334.797 204.953 334.303 204.664C333.817 204.375 333.439 203.964 333.169 203.432C332.907 202.9 332.777 202.284 332.777 201.584C332.777 200.884 332.912 200.263 333.183 199.722C333.463 199.181 333.85 198.761 334.345 198.462C334.839 198.163 335.409 198.014 336.053 198.014C336.407 198.014 336.757 198.065 337.103 198.168C337.457 198.261 337.765 198.401 338.027 198.588C338.195 198.7 338.311 198.812 338.377 198.924C338.451 199.027 338.489 199.143 338.489 199.274C338.489 199.405 338.451 199.512 338.377 199.596C338.311 199.68 338.223 199.722 338.111 199.722C338.045 199.722 337.975 199.703 337.901 199.666C337.826 199.629 337.761 199.591 337.705 199.554C337.658 199.517 337.625 199.493 337.607 199.484C337.364 199.325 337.131 199.199 336.907 199.106C336.692 199.013 336.426 198.966 336.109 198.966C335.427 198.966 334.895 199.199 334.513 199.666C334.139 200.123 333.953 200.763 333.953 201.584C333.953 202.405 334.139 203.04 334.513 203.488C334.895 203.936 335.427 204.16 336.109 204.16C336.426 204.16 336.697 204.113 336.921 204.02C337.154 203.927 337.387 203.801 337.621 203.642C337.723 203.577 337.821 203.521 337.915 203.474C338.008 203.427 338.087 203.404 338.153 203.404C338.255 203.404 338.339 203.446 338.405 203.53C338.479 203.614 338.517 203.721 338.517 203.852C338.517 203.973 338.484 204.085 338.419 204.188C338.353 204.281 338.232 204.389 338.055 204.51C337.793 204.687 337.476 204.832 337.103 204.944C336.739 205.047 336.37 205.098 335.997 205.098ZM345.16 203.418C345.263 203.418 345.351 203.46 345.426 203.544C345.501 203.628 345.538 203.735 345.538 203.866C345.538 204.099 345.375 204.314 345.048 204.51C344.712 204.706 344.357 204.855 343.984 204.958C343.611 205.051 343.247 205.098 342.892 205.098C341.837 205.098 341.002 204.785 340.386 204.16C339.779 203.535 339.476 202.671 339.476 201.57C339.476 200.87 339.611 200.254 339.882 199.722C340.153 199.181 340.531 198.761 341.016 198.462C341.511 198.163 342.071 198.014 342.696 198.014C343.583 198.014 344.287 198.303 344.81 198.882C345.333 199.461 345.594 200.245 345.594 201.234C345.594 201.421 345.557 201.556 345.482 201.64C345.407 201.724 345.286 201.766 345.118 201.766H340.61C340.694 203.371 341.455 204.174 342.892 204.174C343.256 204.174 343.569 204.127 343.83 204.034C344.091 203.931 344.371 203.796 344.67 203.628C344.913 203.488 345.076 203.418 345.16 203.418ZM342.71 198.896C342.113 198.896 341.632 199.083 341.268 199.456C340.913 199.829 340.703 200.357 340.638 201.038H344.6C344.581 200.347 344.409 199.82 344.082 199.456C343.755 199.083 343.298 198.896 342.71 198.896ZM353.66 198.014C355.368 198.014 356.222 198.91 356.222 200.702V204.51C356.222 204.678 356.171 204.813 356.068 204.916C355.975 205.019 355.844 205.07 355.676 205.07C355.508 205.07 355.373 205.019 355.27 204.916C355.168 204.813 355.116 204.678 355.116 204.51V203.838C354.939 204.239 354.668 204.552 354.304 204.776C353.94 204.991 353.52 205.098 353.044 205.098C352.606 205.098 352.2 205.009 351.826 204.832C351.462 204.655 351.173 204.407 350.958 204.09C350.744 203.773 350.636 203.423 350.636 203.04C350.636 202.527 350.767 202.13 351.028 201.85C351.29 201.561 351.719 201.355 352.316 201.234C352.914 201.103 353.744 201.038 354.808 201.038H355.116V200.576C355.116 200.016 355 199.605 354.766 199.344C354.542 199.083 354.174 198.952 353.66 198.952C353.026 198.952 352.382 199.125 351.728 199.47C351.476 199.629 351.299 199.708 351.196 199.708C351.084 199.708 350.991 199.666 350.916 199.582C350.842 199.498 350.804 199.391 350.804 199.26C350.804 199.129 350.842 199.017 350.916 198.924C351 198.821 351.131 198.719 351.308 198.616C351.635 198.429 352.004 198.285 352.414 198.182C352.834 198.07 353.25 198.014 353.66 198.014ZM353.198 204.202C353.758 204.202 354.216 204.015 354.57 203.642C354.934 203.259 355.116 202.769 355.116 202.172V201.766H354.864C354.043 201.766 353.418 201.803 352.988 201.878C352.559 201.943 352.251 202.06 352.064 202.228C351.887 202.387 351.798 202.625 351.798 202.942C351.798 203.306 351.929 203.609 352.19 203.852C352.461 204.085 352.797 204.202 353.198 204.202ZM361.728 198.014C363.361 198.014 364.178 198.915 364.178 200.716V204.51C364.178 204.687 364.127 204.827 364.024 204.93C363.931 205.023 363.795 205.07 363.618 205.07C363.441 205.07 363.301 205.023 363.198 204.93C363.095 204.827 363.044 204.687 363.044 204.51V200.786C363.044 200.151 362.918 199.689 362.666 199.4C362.423 199.111 362.031 198.966 361.49 198.966C360.865 198.966 360.365 199.157 359.992 199.54C359.619 199.923 359.432 200.441 359.432 201.094V204.51C359.432 204.687 359.381 204.827 359.278 204.93C359.185 205.023 359.049 205.07 358.872 205.07C358.695 205.07 358.555 205.023 358.452 204.93C358.349 204.827 358.298 204.687 358.298 204.51V198.602C358.298 198.434 358.349 198.299 358.452 198.196C358.555 198.093 358.695 198.042 358.872 198.042C359.04 198.042 359.171 198.093 359.264 198.196C359.367 198.299 359.418 198.429 359.418 198.588V199.302C359.642 198.882 359.955 198.565 360.356 198.35C360.757 198.126 361.215 198.014 361.728 198.014ZM371.729 195.06C371.906 195.06 372.046 195.111 372.149 195.214C372.252 195.317 372.303 195.447 372.303 195.606V204.51C372.303 204.678 372.252 204.813 372.149 204.916C372.046 205.019 371.906 205.07 371.729 205.07C371.552 205.07 371.412 205.019 371.309 204.916C371.216 204.813 371.169 204.678 371.169 204.51V203.754C370.964 204.183 370.66 204.515 370.259 204.748C369.867 204.981 369.405 205.098 368.873 205.098C368.276 205.098 367.748 204.949 367.291 204.65C366.834 204.351 366.479 203.936 366.227 203.404C365.975 202.863 365.849 202.237 365.849 201.528C365.849 200.828 365.975 200.212 366.227 199.68C366.479 199.148 366.834 198.737 367.291 198.448C367.748 198.159 368.276 198.014 368.873 198.014C369.405 198.014 369.867 198.131 370.259 198.364C370.66 198.597 370.964 198.929 371.169 199.358V195.606C371.169 195.438 371.216 195.307 371.309 195.214C371.412 195.111 371.552 195.06 371.729 195.06ZM369.097 204.16C369.76 204.16 370.268 203.936 370.623 203.488C370.987 203.031 371.169 202.387 371.169 201.556C371.169 200.725 370.987 200.086 370.623 199.638C370.268 199.19 369.76 198.966 369.097 198.966C368.434 198.966 367.916 199.19 367.543 199.638C367.179 200.086 366.997 200.716 366.997 201.528C366.997 202.359 367.179 203.007 367.543 203.474C367.916 203.931 368.434 204.16 369.097 204.16ZM382.927 198.392C383.03 198.168 383.193 198.056 383.417 198.056C383.557 198.056 383.683 198.103 383.795 198.196C383.907 198.289 383.963 198.406 383.963 198.546C383.963 198.63 383.944 198.705 383.907 198.77L381.177 204.65C381.121 204.771 381.037 204.869 380.925 204.944C380.813 205.009 380.692 205.042 380.561 205.042C380.44 205.042 380.323 205.009 380.211 204.944C380.099 204.869 380.01 204.771 379.945 204.65L377.229 198.77C377.192 198.705 377.173 198.635 377.173 198.56C377.173 198.42 377.234 198.299 377.355 198.196C377.486 198.093 377.626 198.042 377.775 198.042C377.868 198.042 377.957 198.07 378.041 198.126C378.134 198.182 378.204 198.261 378.251 198.364L380.589 203.614L382.927 198.392ZM390.4 203.418C390.503 203.418 390.592 203.46 390.666 203.544C390.741 203.628 390.778 203.735 390.778 203.866C390.778 204.099 390.615 204.314 390.288 204.51C389.952 204.706 389.598 204.855 389.224 204.958C388.851 205.051 388.487 205.098 388.132 205.098C387.078 205.098 386.242 204.785 385.626 204.16C385.02 203.535 384.716 202.671 384.716 201.57C384.716 200.87 384.852 200.254 385.122 199.722C385.393 199.181 385.771 198.761 386.256 198.462C386.751 198.163 387.311 198.014 387.936 198.014C388.823 198.014 389.528 198.303 390.05 198.882C390.573 199.461 390.834 200.245 390.834 201.234C390.834 201.421 390.797 201.556 390.722 201.64C390.648 201.724 390.526 201.766 390.358 201.766H385.85C385.934 203.371 386.695 204.174 388.132 204.174C388.496 204.174 388.809 204.127 389.07 204.034C389.332 203.931 389.612 203.796 389.91 203.628C390.153 203.488 390.316 203.418 390.4 203.418ZM387.95 198.896C387.353 198.896 386.872 199.083 386.508 199.456C386.154 199.829 385.944 200.357 385.878 201.038H389.84C389.822 200.347 389.649 199.82 389.322 199.456C388.996 199.083 388.538 198.896 387.95 198.896ZM395.879 198.042C396.271 198.014 396.467 198.173 396.467 198.518C396.467 198.667 396.425 198.789 396.341 198.882C396.257 198.966 396.112 199.017 395.907 199.036L395.487 199.078C394.862 199.134 394.395 199.358 394.087 199.75C393.788 200.133 393.639 200.585 393.639 201.108V204.51C393.639 204.697 393.588 204.837 393.485 204.93C393.382 205.023 393.247 205.07 393.079 205.07C392.911 205.07 392.771 205.023 392.659 204.93C392.556 204.827 392.505 204.687 392.505 204.51V198.602C392.505 198.425 392.561 198.289 392.673 198.196C392.785 198.093 392.92 198.042 393.079 198.042C393.228 198.042 393.354 198.093 393.457 198.196C393.56 198.289 393.611 198.42 393.611 198.588V199.372C393.807 198.961 394.082 198.649 394.437 198.434C394.801 198.219 395.216 198.093 395.683 198.056L395.879 198.042ZM402.778 198.392C402.881 198.168 403.044 198.056 403.268 198.056C403.408 198.056 403.534 198.103 403.646 198.196C403.758 198.289 403.814 198.406 403.814 198.546C403.814 198.63 403.796 198.705 403.758 198.77L399.824 207.254C399.778 207.357 399.708 207.436 399.614 207.492C399.53 207.548 399.442 207.576 399.348 207.576C399.208 207.576 399.082 207.529 398.97 207.436C398.868 207.352 398.816 207.24 398.816 207.1C398.816 207.025 398.835 206.951 398.872 206.876L399.852 204.762L397.08 198.77C397.043 198.705 397.024 198.635 397.024 198.56C397.024 198.42 397.085 198.299 397.206 198.196C397.337 198.093 397.477 198.042 397.626 198.042C397.72 198.042 397.808 198.07 397.892 198.126C397.986 198.182 398.056 198.261 398.102 198.364L400.44 203.614L402.778 198.392ZM411.675 196.026C411.181 196.063 410.807 196.222 410.555 196.502C410.303 196.773 410.177 197.183 410.177 197.734V198.182H411.731C411.89 198.182 412.011 198.224 412.095 198.308C412.179 198.392 412.221 198.504 412.221 198.644C412.221 198.784 412.179 198.891 412.095 198.966C412.011 199.041 411.89 199.078 411.731 199.078H410.177V204.51C410.177 204.687 410.121 204.827 410.009 204.93C409.907 205.023 409.776 205.07 409.617 205.07C409.449 205.07 409.309 205.023 409.197 204.93C409.095 204.827 409.043 204.687 409.043 204.51V199.078H408.105C407.947 199.078 407.821 199.041 407.727 198.966C407.643 198.882 407.601 198.775 407.601 198.644C407.601 198.504 407.643 198.392 407.727 198.308C407.821 198.224 407.947 198.182 408.105 198.182H409.043V197.93C409.043 197.09 409.253 196.432 409.673 195.956C410.093 195.471 410.695 195.2 411.479 195.144L411.843 195.116C412.086 195.097 412.259 195.121 412.361 195.186C412.473 195.251 412.529 195.368 412.529 195.536C412.529 195.807 412.366 195.961 412.039 195.998L411.675 196.026ZM415.977 198.014C417.685 198.014 418.539 198.91 418.539 200.702V204.51C418.539 204.678 418.487 204.813 418.385 204.916C418.291 205.019 418.161 205.07 417.993 205.07C417.825 205.07 417.689 205.019 417.587 204.916C417.484 204.813 417.433 204.678 417.433 204.51V203.838C417.255 204.239 416.985 204.552 416.621 204.776C416.257 204.991 415.837 205.098 415.361 205.098C414.922 205.098 414.516 205.009 414.143 204.832C413.779 204.655 413.489 204.407 413.275 204.09C413.06 203.773 412.953 203.423 412.953 203.04C412.953 202.527 413.083 202.13 413.345 201.85C413.606 201.561 414.035 201.355 414.633 201.234C415.23 201.103 416.061 201.038 417.125 201.038H417.433V200.576C417.433 200.016 417.316 199.605 417.083 199.344C416.859 199.083 416.49 198.952 415.977 198.952C415.342 198.952 414.698 199.125 414.045 199.47C413.793 199.629 413.615 199.708 413.513 199.708C413.401 199.708 413.307 199.666 413.233 199.582C413.158 199.498 413.121 199.391 413.121 199.26C413.121 199.129 413.158 199.017 413.233 198.924C413.317 198.821 413.447 198.719 413.625 198.616C413.951 198.429 414.32 198.285 414.731 198.182C415.151 198.07 415.566 198.014 415.977 198.014ZM415.515 204.202C416.075 204.202 416.532 204.015 416.887 203.642C417.251 203.259 417.433 202.769 417.433 202.172V201.766H417.181C416.359 201.766 415.734 201.803 415.305 201.878C414.875 201.943 414.567 202.06 414.381 202.228C414.203 202.387 414.115 202.625 414.115 202.942C414.115 203.306 414.245 203.609 414.507 203.852C414.777 204.085 415.113 204.202 415.515 204.202ZM422.91 205.098C422.481 205.098 422.07 205.047 421.678 204.944C421.296 204.841 420.955 204.697 420.656 204.51C420.488 204.398 420.367 204.295 420.292 204.202C420.227 204.099 420.194 203.978 420.194 203.838C420.194 203.717 420.227 203.619 420.292 203.544C420.367 203.46 420.46 203.418 420.572 203.418C420.684 203.418 420.848 203.488 421.062 203.628C421.342 203.796 421.618 203.931 421.888 204.034C422.168 204.127 422.514 204.174 422.924 204.174C423.428 204.174 423.82 204.085 424.1 203.908C424.38 203.731 424.52 203.474 424.52 203.138C424.52 202.933 424.469 202.769 424.366 202.648C424.264 202.517 424.086 202.405 423.834 202.312C423.582 202.209 423.214 202.107 422.728 202.004C421.907 201.827 421.319 201.589 420.964 201.29C420.61 200.991 420.432 200.585 420.432 200.072C420.432 199.671 420.544 199.316 420.768 199.008C420.992 198.7 421.3 198.457 421.692 198.28C422.094 198.103 422.546 198.014 423.05 198.014C423.414 198.014 423.764 198.065 424.1 198.168C424.446 198.261 424.749 198.397 425.01 198.574C425.328 198.798 425.486 199.031 425.486 199.274C425.486 199.395 425.449 199.498 425.374 199.582C425.3 199.666 425.211 199.708 425.108 199.708C424.996 199.708 424.828 199.629 424.604 199.47C424.343 199.302 424.096 199.171 423.862 199.078C423.629 198.985 423.34 198.938 422.994 198.938C422.556 198.938 422.201 199.036 421.93 199.232C421.669 199.428 421.538 199.689 421.538 200.016C421.538 200.221 421.585 200.389 421.678 200.52C421.781 200.641 421.944 200.753 422.168 200.856C422.402 200.949 422.733 201.043 423.162 201.136C423.797 201.276 424.287 201.43 424.632 201.598C424.987 201.766 425.239 201.971 425.388 202.214C425.538 202.457 425.612 202.765 425.612 203.138C425.612 203.726 425.365 204.202 424.87 204.566C424.376 204.921 423.722 205.098 422.91 205.098ZM430.423 204.174C430.749 204.202 430.913 204.351 430.913 204.622C430.913 204.781 430.852 204.902 430.731 204.986C430.619 205.061 430.446 205.089 430.213 205.07L429.835 205.042C429.088 204.986 428.537 204.762 428.183 204.37C427.828 203.978 427.651 203.385 427.651 202.592V199.078H426.713C426.554 199.078 426.428 199.041 426.335 198.966C426.251 198.882 426.209 198.775 426.209 198.644C426.209 198.504 426.251 198.392 426.335 198.308C426.428 198.224 426.554 198.182 426.713 198.182H427.651V196.6C427.651 196.423 427.702 196.287 427.805 196.194C427.907 196.091 428.047 196.04 428.225 196.04C428.393 196.04 428.528 196.091 428.631 196.194C428.733 196.287 428.785 196.423 428.785 196.6V198.182H430.339C430.488 198.182 430.605 198.224 430.689 198.308C430.782 198.392 430.829 198.504 430.829 198.644C430.829 198.775 430.782 198.882 430.689 198.966C430.605 199.041 430.488 199.078 430.339 199.078H428.785V202.648C428.785 203.161 428.887 203.535 429.093 203.768C429.307 203.992 429.625 204.118 430.045 204.146L430.423 204.174ZM201.424 221.042C201.816 221.014 202.012 221.173 202.012 221.518C202.012 221.667 201.97 221.789 201.886 221.882C201.802 221.966 201.657 222.017 201.452 222.036L201.032 222.078C200.407 222.134 199.94 222.358 199.632 222.75C199.333 223.133 199.184 223.585 199.184 224.108V227.51C199.184 227.697 199.133 227.837 199.03 227.93C198.927 228.023 198.792 228.07 198.624 228.07C198.456 228.07 198.316 228.023 198.204 227.93C198.101 227.827 198.05 227.687 198.05 227.51V221.602C198.05 221.425 198.106 221.289 198.218 221.196C198.33 221.093 198.465 221.042 198.624 221.042C198.773 221.042 198.899 221.093 199.002 221.196C199.105 221.289 199.156 221.42 199.156 221.588V222.372C199.352 221.961 199.627 221.649 199.982 221.434C200.346 221.219 200.761 221.093 201.228 221.056L201.424 221.042ZM208.127 226.418C208.229 226.418 208.318 226.46 208.393 226.544C208.467 226.628 208.505 226.735 208.505 226.866C208.505 227.099 208.341 227.314 208.015 227.51C207.679 227.706 207.324 227.855 206.951 227.958C206.577 228.051 206.213 228.098 205.859 228.098C204.804 228.098 203.969 227.785 203.353 227.16C202.746 226.535 202.443 225.671 202.443 224.57C202.443 223.87 202.578 223.254 202.849 222.722C203.119 222.181 203.497 221.761 203.983 221.462C204.477 221.163 205.037 221.014 205.663 221.014C206.549 221.014 207.254 221.303 207.777 221.882C208.299 222.461 208.561 223.245 208.561 224.234C208.561 224.421 208.523 224.556 208.449 224.64C208.374 224.724 208.253 224.766 208.085 224.766H203.577C203.661 226.371 204.421 227.174 205.859 227.174C206.223 227.174 206.535 227.127 206.797 227.034C207.058 226.931 207.338 226.796 207.637 226.628C207.879 226.488 208.043 226.418 208.127 226.418ZM205.677 221.896C205.079 221.896 204.599 222.083 204.235 222.456C203.88 222.829 203.67 223.357 203.605 224.038H207.567C207.548 223.347 207.375 222.82 207.049 222.456C206.722 222.083 206.265 221.896 205.677 221.896ZM212.528 228.098C212.098 228.098 211.688 228.047 211.296 227.944C210.913 227.841 210.572 227.697 210.274 227.51C210.106 227.398 209.984 227.295 209.91 227.202C209.844 227.099 209.812 226.978 209.812 226.838C209.812 226.717 209.844 226.619 209.91 226.544C209.984 226.46 210.078 226.418 210.19 226.418C210.302 226.418 210.465 226.488 210.68 226.628C210.96 226.796 211.235 226.931 211.506 227.034C211.786 227.127 212.131 227.174 212.542 227.174C213.046 227.174 213.438 227.085 213.718 226.908C213.998 226.731 214.138 226.474 214.138 226.138C214.138 225.933 214.086 225.769 213.984 225.648C213.881 225.517 213.704 225.405 213.452 225.312C213.2 225.209 212.831 225.107 212.346 225.004C211.524 224.827 210.936 224.589 210.582 224.29C210.227 223.991 210.05 223.585 210.05 223.072C210.05 222.671 210.162 222.316 210.386 222.008C210.61 221.7 210.918 221.457 211.31 221.28C211.711 221.103 212.164 221.014 212.668 221.014C213.032 221.014 213.382 221.065 213.718 221.168C214.063 221.261 214.366 221.397 214.628 221.574C214.945 221.798 215.104 222.031 215.104 222.274C215.104 222.395 215.066 222.498 214.992 222.582C214.917 222.666 214.828 222.708 214.726 222.708C214.614 222.708 214.446 222.629 214.222 222.47C213.96 222.302 213.713 222.171 213.48 222.078C213.246 221.985 212.957 221.938 212.612 221.938C212.173 221.938 211.818 222.036 211.548 222.232C211.286 222.428 211.156 222.689 211.156 223.016C211.156 223.221 211.202 223.389 211.296 223.52C211.398 223.641 211.562 223.753 211.786 223.856C212.019 223.949 212.35 224.043 212.78 224.136C213.414 224.276 213.904 224.43 214.25 224.598C214.604 224.766 214.856 224.971 215.006 225.214C215.155 225.457 215.23 225.765 215.23 226.138C215.23 226.726 214.982 227.202 214.488 227.566C213.993 227.921 213.34 228.098 212.528 228.098ZM220.388 221.014C220.986 221.014 221.513 221.163 221.97 221.462C222.428 221.761 222.782 222.181 223.034 222.722C223.286 223.254 223.412 223.875 223.412 224.584C223.412 225.293 223.286 225.914 223.034 226.446C222.782 226.969 222.428 227.375 221.97 227.664C221.522 227.953 220.995 228.098 220.388 228.098C219.856 228.098 219.39 227.981 218.988 227.748C218.596 227.515 218.298 227.183 218.092 226.754V230.044C218.092 230.212 218.041 230.343 217.938 230.436C217.845 230.539 217.71 230.59 217.532 230.59C217.355 230.59 217.215 230.539 217.112 230.436C217.01 230.333 216.958 230.203 216.958 230.044V221.602C216.958 221.434 217.01 221.299 217.112 221.196C217.215 221.093 217.355 221.042 217.532 221.042C217.71 221.042 217.845 221.093 217.938 221.196C218.041 221.299 218.092 221.434 218.092 221.602V222.358C218.298 221.929 218.596 221.597 218.988 221.364C219.39 221.131 219.856 221.014 220.388 221.014ZM220.164 227.16C220.827 227.16 221.34 226.936 221.704 226.488C222.068 226.04 222.25 225.405 222.25 224.584C222.25 223.763 222.068 223.123 221.704 222.666C221.34 222.199 220.827 221.966 220.164 221.966C219.502 221.966 218.988 222.19 218.624 222.638C218.27 223.086 218.092 223.725 218.092 224.556C218.092 225.387 218.27 226.031 218.624 226.488C218.988 226.936 219.502 227.16 220.164 227.16ZM227.935 228.098C227.291 228.098 226.721 227.953 226.227 227.664C225.741 227.375 225.363 226.964 225.093 226.432C224.831 225.891 224.701 225.265 224.701 224.556C224.701 223.847 224.831 223.226 225.093 222.694C225.363 222.153 225.741 221.737 226.227 221.448C226.721 221.159 227.291 221.014 227.935 221.014C228.579 221.014 229.148 221.159 229.643 221.448C230.137 221.737 230.515 222.153 230.777 222.694C231.047 223.226 231.183 223.847 231.183 224.556C231.183 225.265 231.047 225.891 230.777 226.432C230.515 226.964 230.137 227.375 229.643 227.664C229.148 227.953 228.579 228.098 227.935 228.098ZM227.935 227.16C228.607 227.16 229.12 226.941 229.475 226.502C229.839 226.054 230.021 225.405 230.021 224.556C230.021 223.725 229.839 223.086 229.475 222.638C229.111 222.181 228.597 221.952 227.935 221.952C227.272 221.952 226.759 222.181 226.395 222.638C226.031 223.086 225.849 223.725 225.849 224.556C225.849 225.396 226.026 226.04 226.381 226.488C226.745 226.936 227.263 227.16 227.935 227.16ZM236.302 221.014C237.936 221.014 238.752 221.915 238.752 223.716V227.51C238.752 227.687 238.701 227.827 238.598 227.93C238.505 228.023 238.37 228.07 238.192 228.07C238.015 228.07 237.875 228.023 237.772 227.93C237.67 227.827 237.618 227.687 237.618 227.51V223.786C237.618 223.151 237.492 222.689 237.24 222.4C236.998 222.111 236.606 221.966 236.064 221.966C235.439 221.966 234.94 222.157 234.566 222.54C234.193 222.923 234.006 223.441 234.006 224.094V227.51C234.006 227.687 233.955 227.827 233.852 227.93C233.759 228.023 233.624 228.07 233.446 228.07C233.269 228.07 233.129 228.023 233.026 227.93C232.924 227.827 232.872 227.687 232.872 227.51V221.602C232.872 221.434 232.924 221.299 233.026 221.196C233.129 221.093 233.269 221.042 233.446 221.042C233.614 221.042 233.745 221.093 233.838 221.196C233.941 221.299 233.992 221.429 233.992 221.588V222.302C234.216 221.882 234.529 221.565 234.93 221.35C235.332 221.126 235.789 221.014 236.302 221.014ZM243.125 228.098C242.696 228.098 242.285 228.047 241.893 227.944C241.511 227.841 241.17 227.697 240.871 227.51C240.703 227.398 240.582 227.295 240.507 227.202C240.442 227.099 240.409 226.978 240.409 226.838C240.409 226.717 240.442 226.619 240.507 226.544C240.582 226.46 240.675 226.418 240.787 226.418C240.899 226.418 241.063 226.488 241.277 226.628C241.557 226.796 241.833 226.931 242.103 227.034C242.383 227.127 242.729 227.174 243.139 227.174C243.643 227.174 244.035 227.085 244.315 226.908C244.595 226.731 244.735 226.474 244.735 226.138C244.735 225.933 244.684 225.769 244.581 225.648C244.479 225.517 244.301 225.405 244.049 225.312C243.797 225.209 243.429 225.107 242.943 225.004C242.122 224.827 241.534 224.589 241.179 224.29C240.825 223.991 240.647 223.585 240.647 223.072C240.647 222.671 240.759 222.316 240.983 222.008C241.207 221.7 241.515 221.457 241.907 221.28C242.309 221.103 242.761 221.014 243.265 221.014C243.629 221.014 243.979 221.065 244.315 221.168C244.661 221.261 244.964 221.397 245.225 221.574C245.543 221.798 245.701 222.031 245.701 222.274C245.701 222.395 245.664 222.498 245.589 222.582C245.515 222.666 245.426 222.708 245.323 222.708C245.211 222.708 245.043 222.629 244.819 222.47C244.558 222.302 244.311 222.171 244.077 222.078C243.844 221.985 243.555 221.938 243.209 221.938C242.771 221.938 242.416 222.036 242.145 222.232C241.884 222.428 241.753 222.689 241.753 223.016C241.753 223.221 241.8 223.389 241.893 223.52C241.996 223.641 242.159 223.753 242.383 223.856C242.617 223.949 242.948 224.043 243.377 224.136C244.012 224.276 244.502 224.43 244.847 224.598C245.202 224.766 245.454 224.971 245.603 225.214C245.753 225.457 245.827 225.765 245.827 226.138C245.827 226.726 245.58 227.202 245.085 227.566C244.591 227.921 243.937 228.098 243.125 228.098ZM252.834 226.418C252.937 226.418 253.025 226.46 253.1 226.544C253.175 226.628 253.212 226.735 253.212 226.866C253.212 227.099 253.049 227.314 252.722 227.51C252.386 227.706 252.031 227.855 251.658 227.958C251.285 228.051 250.921 228.098 250.566 228.098C249.511 228.098 248.676 227.785 248.06 227.16C247.453 226.535 247.15 225.671 247.15 224.57C247.15 223.87 247.285 223.254 247.556 222.722C247.827 222.181 248.205 221.761 248.69 221.462C249.185 221.163 249.745 221.014 250.37 221.014C251.257 221.014 251.961 221.303 252.484 221.882C253.007 222.461 253.268 223.245 253.268 224.234C253.268 224.421 253.231 224.556 253.156 224.64C253.081 224.724 252.96 224.766 252.792 224.766H248.284C248.368 226.371 249.129 227.174 250.566 227.174C250.93 227.174 251.243 227.127 251.504 227.034C251.765 226.931 252.045 226.796 252.344 226.628C252.587 226.488 252.75 226.418 252.834 226.418ZM250.384 221.896C249.787 221.896 249.306 222.083 248.942 222.456C248.587 222.829 248.377 223.357 248.312 224.038H252.274C252.255 223.347 252.083 222.82 251.756 222.456C251.429 222.083 250.972 221.896 250.384 221.896ZM255.499 228.07C255.275 228.07 255.088 228 254.939 227.86C254.789 227.711 254.715 227.519 254.715 227.286C254.715 227.053 254.789 226.861 254.939 226.712C255.088 226.563 255.275 226.488 255.499 226.488C255.713 226.488 255.891 226.563 256.031 226.712C256.18 226.861 256.255 227.053 256.255 227.286C256.255 227.519 256.18 227.711 256.031 227.86C255.891 228 255.713 228.07 255.499 228.07Z" fill="#282A30" fill-opacity="0.4"/>
<defs>
<filter id="filter0_d_27_20" x="0" y="0" width="649" height="399" filterUnits="userSpaceOnUse" color-interpolation-filters="sRGB">
<feFlood flood-opacity="0" result="BackgroundImageFix"/>
<feColorMatrix in="SourceAlpha" type="matrix" values="0 0 0 0 0 0 0 0 0 0 0 0 0 0 0 0 0 0 127 0" result="hardAlpha"/>
<feOffset dx="20" dy="4"/>
<feGaussianBlur stdDeviation="50"/>
<feColorMatrix type="matrix" values="0 0 0 0 0 0 0 0 0 0 0 0 0 0 0 0 0 0 0.1 0"/>
<feBlend mode="normal" in2="BackgroundImageFix" result="effect1_dropShadow_27_20"/>
<feBlend mode="normal" in="SourceGraphic" in2="effect1_dropShadow_27_20" result="shape"/>
</filter>
</defs>
</svg>
