<svg width="649" height="399" viewBox="0 0 649 399" fill="none" xmlns="http://www.w3.org/2000/svg">
<g filter="url(#filter0_d_27_19)">
<rect x="80" y="96" width="449" height="199" fill="white"/>
</g>
<circle cx="149.5" cy="165.5" r="25.5" fill="#F7515C" fill-opacity="0.05"/>
<path d="M148.56 173.3C148.2 173.3 147.82 173.273 147.42 173.22C147.02 173.18 146.633 173.12 146.26 173.04C145.887 172.96 145.547 172.873 145.24 172.78C144.933 172.687 144.693 172.6 144.52 172.52L145.1 170.04C145.447 170.187 145.887 170.347 146.42 170.52C146.967 170.68 147.64 170.76 148.44 170.76C149.36 170.76 150.033 170.587 150.46 170.24C150.887 169.893 151.1 169.427 151.1 168.84C151.1 168.48 151.02 168.18 150.86 167.94C150.713 167.687 150.507 167.487 150.24 167.34C149.973 167.18 149.653 167.073 149.28 167.02C148.92 166.953 148.533 166.92 148.12 166.92H146.96V164.52H148.28C148.573 164.52 148.853 164.493 149.12 164.44C149.4 164.387 149.647 164.3 149.86 164.18C150.073 164.047 150.24 163.873 150.36 163.66C150.493 163.433 150.56 163.153 150.56 162.82C150.56 162.567 150.507 162.347 150.4 162.16C150.293 161.973 150.153 161.82 149.98 161.7C149.82 161.58 149.627 161.493 149.4 161.44C149.187 161.373 148.967 161.34 148.74 161.34C148.167 161.34 147.633 161.427 147.14 161.6C146.66 161.773 146.22 161.987 145.82 162.24L144.76 160.06C144.973 159.927 145.22 159.787 145.5 159.64C145.793 159.493 146.113 159.36 146.46 159.24C146.807 159.12 147.173 159.02 147.56 158.94C147.96 158.86 148.38 158.82 148.82 158.82C149.633 158.82 150.333 158.92 150.92 159.12C151.52 159.307 152.013 159.58 152.4 159.94C152.787 160.287 153.073 160.7 153.26 161.18C153.447 161.647 153.54 162.16 153.54 162.72C153.54 163.267 153.387 163.8 153.08 164.32C152.773 164.827 152.36 165.213 151.84 165.48C152.56 165.773 153.113 166.213 153.5 166.8C153.9 167.373 154.1 168.067 154.1 168.88C154.1 169.52 153.993 170.113 153.78 170.66C153.567 171.193 153.233 171.66 152.78 172.06C152.327 172.447 151.747 172.753 151.04 172.98C150.347 173.193 149.52 173.3 148.56 173.3Z" fill="#F7515C"/>
<path d="M211.4 173L211.38 164.6L207.26 171.52H205.8L201.7 164.78V173H198.66V159H201.34L206.58 167.7L211.74 159H214.4L214.44 173H211.4ZM222.662 173.16C221.528 173.16 220.508 172.927 219.602 172.46C218.708 171.98 218.008 171.32 217.502 170.48C216.995 169.64 216.742 168.687 216.742 167.62C216.742 166.553 216.995 165.6 217.502 164.76C218.008 163.92 218.708 163.267 219.602 162.8C220.508 162.32 221.528 162.08 222.662 162.08C223.795 162.08 224.808 162.32 225.702 162.8C226.595 163.267 227.295 163.92 227.802 164.76C228.308 165.6 228.562 166.553 228.562 167.62C228.562 168.687 228.308 169.64 227.802 170.48C227.295 171.32 226.595 171.98 225.702 172.46C224.808 172.927 223.795 173.16 222.662 173.16ZM222.662 170.6C223.462 170.6 224.115 170.333 224.622 169.8C225.142 169.253 225.402 168.527 225.402 167.62C225.402 166.713 225.142 165.993 224.622 165.46C224.115 164.913 223.462 164.64 222.662 164.64C221.862 164.64 221.202 164.913 220.682 165.46C220.162 165.993 219.902 166.713 219.902 167.62C219.902 168.527 220.162 169.253 220.682 169.8C221.202 170.333 221.862 170.6 222.662 170.6ZM241.607 158.16V173H238.627V171.76C237.854 172.693 236.734 173.16 235.267 173.16C234.254 173.16 233.334 172.933 232.507 172.48C231.694 172.027 231.054 171.38 230.587 170.54C230.12 169.7 229.887 168.727 229.887 167.62C229.887 166.513 230.12 165.54 230.587 164.7C231.054 163.86 231.694 163.213 232.507 162.76C233.334 162.307 234.254 162.08 235.267 162.08C236.64 162.08 237.714 162.513 238.487 163.38V158.16H241.607ZM235.807 170.6C236.594 170.6 237.247 170.333 237.767 169.8C238.287 169.253 238.547 168.527 238.547 167.62C238.547 166.713 238.287 165.993 237.767 165.46C237.247 164.913 236.594 164.64 235.807 164.64C235.007 164.64 234.347 164.913 233.827 165.46C233.307 165.993 233.047 166.713 233.047 167.62C233.047 168.527 233.307 169.253 233.827 169.8C234.347 170.333 235.007 170.6 235.807 170.6ZM255.035 167.66C255.035 167.7 255.015 167.98 254.975 168.5H246.835C246.981 169.167 247.328 169.693 247.875 170.08C248.421 170.467 249.101 170.66 249.915 170.66C250.475 170.66 250.968 170.58 251.395 170.42C251.835 170.247 252.241 169.98 252.615 169.62L254.275 171.42C253.261 172.58 251.781 173.16 249.835 173.16C248.621 173.16 247.548 172.927 246.615 172.46C245.681 171.98 244.961 171.32 244.455 170.48C243.948 169.64 243.695 168.687 243.695 167.62C243.695 166.567 243.941 165.62 244.435 164.78C244.941 163.927 245.628 163.267 246.495 162.8C247.375 162.32 248.355 162.08 249.435 162.08C250.488 162.08 251.441 162.307 252.295 162.76C253.148 163.213 253.815 163.867 254.295 164.72C254.788 165.56 255.035 166.54 255.035 167.66ZM249.455 164.44C248.748 164.44 248.155 164.64 247.675 165.04C247.195 165.44 246.901 165.987 246.795 166.68H252.095C251.988 166 251.695 165.46 251.215 165.06C250.735 164.647 250.148 164.44 249.455 164.44ZM260.092 163.66C260.465 163.14 260.965 162.747 261.592 162.48C262.232 162.213 262.965 162.08 263.792 162.08V164.96C263.445 164.933 263.212 164.92 263.092 164.92C262.199 164.92 261.499 165.173 260.992 165.68C260.485 166.173 260.232 166.92 260.232 167.92V173H257.112V162.24H260.092V163.66ZM272.187 162.08C273.52 162.08 274.594 162.48 275.407 163.28C276.234 164.08 276.647 165.267 276.647 166.84V173H273.527V167.32C273.527 166.467 273.34 165.833 272.967 165.42C272.594 164.993 272.054 164.78 271.347 164.78C270.56 164.78 269.934 165.027 269.467 165.52C269 166 268.767 166.72 268.767 167.68V173H265.647V162.24H268.627V163.5C269.04 163.047 269.554 162.7 270.167 162.46C270.78 162.207 271.454 162.08 272.187 162.08ZM296.099 158.16V173H293.119V171.76C292.346 172.693 291.226 173.16 289.759 173.16C288.746 173.16 287.826 172.933 286.999 172.48C286.186 172.027 285.546 171.38 285.079 170.54C284.613 169.7 284.379 168.727 284.379 167.62C284.379 166.513 284.613 165.54 285.079 164.7C285.546 163.86 286.186 163.213 286.999 162.76C287.826 162.307 288.746 162.08 289.759 162.08C291.133 162.08 292.206 162.513 292.979 163.38V158.16H296.099ZM290.299 170.6C291.086 170.6 291.739 170.333 292.259 169.8C292.779 169.253 293.039 168.527 293.039 167.62C293.039 166.713 292.779 165.993 292.259 165.46C291.739 164.913 291.086 164.64 290.299 164.64C289.499 164.64 288.839 164.913 288.319 165.46C287.799 165.993 287.539 166.713 287.539 167.62C287.539 168.527 287.799 169.253 288.319 169.8C288.839 170.333 289.499 170.6 290.299 170.6ZM309.527 167.66C309.527 167.7 309.507 167.98 309.467 168.5H301.327C301.474 169.167 301.82 169.693 302.367 170.08C302.914 170.467 303.594 170.66 304.407 170.66C304.967 170.66 305.46 170.58 305.887 170.42C306.327 170.247 306.734 169.98 307.107 169.62L308.767 171.42C307.754 172.58 306.274 173.16 304.327 173.16C303.114 173.16 302.04 172.927 301.107 172.46C300.174 171.98 299.454 171.32 298.947 170.48C298.44 169.64 298.187 168.687 298.187 167.62C298.187 166.567 298.434 165.62 298.927 164.78C299.434 163.927 300.12 163.267 300.987 162.8C301.867 162.32 302.847 162.08 303.927 162.08C304.98 162.08 305.934 162.307 306.787 162.76C307.64 163.213 308.307 163.867 308.787 164.72C309.28 165.56 309.527 166.54 309.527 167.66ZM303.947 164.44C303.24 164.44 302.647 164.64 302.167 165.04C301.687 165.44 301.394 165.987 301.287 166.68H306.587C306.48 166 306.187 165.46 305.707 165.06C305.227 164.647 304.64 164.44 303.947 164.44ZM315.224 173.16C314.331 173.16 313.457 173.053 312.604 172.84C311.751 172.613 311.071 172.333 310.564 172L311.604 169.76C312.084 170.067 312.664 170.32 313.344 170.52C314.024 170.707 314.691 170.8 315.344 170.8C316.664 170.8 317.324 170.473 317.324 169.82C317.324 169.513 317.144 169.293 316.784 169.16C316.424 169.027 315.871 168.913 315.124 168.82C314.244 168.687 313.517 168.533 312.944 168.36C312.371 168.187 311.871 167.88 311.444 167.44C311.031 167 310.824 166.373 310.824 165.56C310.824 164.88 311.017 164.28 311.404 163.76C311.804 163.227 312.377 162.813 313.124 162.52C313.884 162.227 314.777 162.08 315.804 162.08C316.564 162.08 317.317 162.167 318.064 162.34C318.824 162.5 319.451 162.727 319.944 163.02L318.904 165.24C317.957 164.707 316.924 164.44 315.804 164.44C315.137 164.44 314.637 164.533 314.304 164.72C313.971 164.907 313.804 165.147 313.804 165.44C313.804 165.773 313.984 166.007 314.344 166.14C314.704 166.273 315.277 166.4 316.064 166.52C316.944 166.667 317.664 166.827 318.224 167C318.784 167.16 319.271 167.46 319.684 167.9C320.097 168.34 320.304 168.953 320.304 169.74C320.304 170.407 320.104 171 319.704 171.52C319.304 172.04 318.717 172.447 317.944 172.74C317.184 173.02 316.277 173.16 315.224 173.16ZM322.229 162.24H325.349V173H322.229V162.24ZM323.789 160.74C323.216 160.74 322.749 160.573 322.389 160.24C322.029 159.907 321.849 159.493 321.849 159C321.849 158.507 322.029 158.093 322.389 157.76C322.749 157.427 323.216 157.26 323.789 157.26C324.362 157.26 324.829 157.42 325.189 157.74C325.549 158.06 325.729 158.46 325.729 158.94C325.729 159.46 325.549 159.893 325.189 160.24C324.829 160.573 324.362 160.74 323.789 160.74ZM339.345 162.24V171.2C339.345 173.173 338.831 174.64 337.805 175.6C336.778 176.56 335.278 177.04 333.305 177.04C332.265 177.04 331.278 176.913 330.345 176.66C329.411 176.407 328.638 176.04 328.025 175.56L329.265 173.32C329.718 173.693 330.291 173.987 330.985 174.2C331.678 174.427 332.371 174.54 333.065 174.54C334.145 174.54 334.938 174.293 335.445 173.8C335.965 173.32 336.225 172.587 336.225 171.6V171.14C335.411 172.033 334.278 172.48 332.825 172.48C331.838 172.48 330.931 172.267 330.105 171.84C329.291 171.4 328.645 170.787 328.165 170C327.685 169.213 327.445 168.307 327.445 167.28C327.445 166.253 327.685 165.347 328.165 164.56C328.645 163.773 329.291 163.167 330.105 162.74C330.931 162.3 331.838 162.08 332.825 162.08C334.385 162.08 335.571 162.593 336.385 163.62V162.24H339.345ZM333.445 169.92C334.271 169.92 334.945 169.68 335.465 169.2C335.998 168.707 336.265 168.067 336.265 167.28C336.265 166.493 335.998 165.86 335.465 165.38C334.945 164.887 334.271 164.64 333.445 164.64C332.618 164.64 331.938 164.887 331.405 165.38C330.871 165.86 330.605 166.493 330.605 167.28C330.605 168.067 330.871 168.707 331.405 169.2C331.938 169.68 332.618 169.92 333.445 169.92ZM348.789 162.08C350.122 162.08 351.195 162.48 352.009 163.28C352.835 164.08 353.249 165.267 353.249 166.84V173H350.129V167.32C350.129 166.467 349.942 165.833 349.569 165.42C349.195 164.993 348.655 164.78 347.949 164.78C347.162 164.78 346.535 165.027 346.069 165.52C345.602 166 345.369 166.72 345.369 167.68V173H342.249V162.24H345.229V163.5C345.642 163.047 346.155 162.7 346.769 162.46C347.382 162.207 348.055 162.08 348.789 162.08Z" fill="#282A30"/>
<path d="M201.186 205.07C201.009 205.07 200.864 205.019 200.752 204.916C200.649 204.804 200.598 204.659 200.598 204.482V196.11H197.588C197.42 196.11 197.289 196.068 197.196 195.984C197.103 195.9 197.056 195.779 197.056 195.62C197.056 195.461 197.103 195.34 197.196 195.256C197.289 195.172 197.42 195.13 197.588 195.13H204.77C204.938 195.13 205.069 195.172 205.162 195.256C205.255 195.34 205.302 195.461 205.302 195.62C205.302 195.779 205.255 195.9 205.162 195.984C205.069 196.068 204.938 196.11 204.77 196.11H201.76V204.482C201.76 204.659 201.709 204.804 201.606 204.916C201.503 205.019 201.363 205.07 201.186 205.07ZM209.861 198.014C210.664 198.014 211.271 198.243 211.681 198.7C212.092 199.148 212.297 199.82 212.297 200.716V204.51C212.297 204.687 212.246 204.827 212.143 204.93C212.041 205.023 211.905 205.07 211.737 205.07C211.56 205.07 211.42 205.023 211.317 204.93C211.215 204.827 211.163 204.687 211.163 204.51V200.744C211.163 200.137 211.037 199.689 210.785 199.4C210.543 199.111 210.151 198.966 209.609 198.966C208.984 198.966 208.485 199.157 208.111 199.54C207.738 199.923 207.551 200.441 207.551 201.094V204.51C207.551 204.687 207.5 204.827 207.397 204.93C207.304 205.023 207.169 205.07 206.991 205.07C206.814 205.07 206.674 205.023 206.571 204.93C206.469 204.827 206.417 204.687 206.417 204.51V195.606C206.417 195.447 206.469 195.317 206.571 195.214C206.683 195.111 206.823 195.06 206.991 195.06C207.169 195.06 207.304 195.111 207.397 195.214C207.5 195.307 207.551 195.438 207.551 195.606V199.274C207.775 198.863 208.088 198.551 208.489 198.336C208.891 198.121 209.348 198.014 209.861 198.014ZM219.652 203.418C219.755 203.418 219.844 203.46 219.918 203.544C219.993 203.628 220.03 203.735 220.03 203.866C220.03 204.099 219.867 204.314 219.54 204.51C219.204 204.706 218.85 204.855 218.476 204.958C218.103 205.051 217.739 205.098 217.384 205.098C216.33 205.098 215.494 204.785 214.878 204.16C214.272 203.535 213.968 202.671 213.968 201.57C213.968 200.87 214.104 200.254 214.374 199.722C214.645 199.181 215.023 198.761 215.508 198.462C216.003 198.163 216.563 198.014 217.188 198.014C218.075 198.014 218.78 198.303 219.302 198.882C219.825 199.461 220.086 200.245 220.086 201.234C220.086 201.421 220.049 201.556 219.974 201.64C219.9 201.724 219.778 201.766 219.61 201.766H215.102C215.186 203.371 215.947 204.174 217.384 204.174C217.748 204.174 218.061 204.127 218.322 204.034C218.584 203.931 218.864 203.796 219.162 203.628C219.405 203.488 219.568 203.418 219.652 203.418ZM217.202 198.896C216.605 198.896 216.124 199.083 215.76 199.456C215.406 199.829 215.196 200.357 215.13 201.038H219.092C219.074 200.347 218.901 199.82 218.574 199.456C218.248 199.083 217.79 198.896 217.202 198.896ZM228.74 198.042C229.132 198.014 229.328 198.173 229.328 198.518C229.328 198.667 229.286 198.789 229.202 198.882C229.118 198.966 228.974 199.017 228.768 199.036L228.348 199.078C227.723 199.134 227.256 199.358 226.948 199.75C226.65 200.133 226.5 200.585 226.5 201.108V204.51C226.5 204.697 226.449 204.837 226.346 204.93C226.244 205.023 226.108 205.07 225.94 205.07C225.772 205.07 225.632 205.023 225.52 204.93C225.418 204.827 225.366 204.687 225.366 204.51V198.602C225.366 198.425 225.422 198.289 225.534 198.196C225.646 198.093 225.782 198.042 225.94 198.042C226.09 198.042 226.216 198.093 226.318 198.196C226.421 198.289 226.472 198.42 226.472 198.588V199.372C226.668 198.961 226.944 198.649 227.298 198.434C227.662 198.219 228.078 198.093 228.544 198.056L228.74 198.042ZM232.993 205.098C232.349 205.098 231.78 204.953 231.285 204.664C230.8 204.375 230.422 203.964 230.151 203.432C229.89 202.891 229.759 202.265 229.759 201.556C229.759 200.847 229.89 200.226 230.151 199.694C230.422 199.153 230.8 198.737 231.285 198.448C231.78 198.159 232.349 198.014 232.993 198.014C233.637 198.014 234.207 198.159 234.701 198.448C235.196 198.737 235.574 199.153 235.835 199.694C236.106 200.226 236.241 200.847 236.241 201.556C236.241 202.265 236.106 202.891 235.835 203.432C235.574 203.964 235.196 204.375 234.701 204.664C234.207 204.953 233.637 205.098 232.993 205.098ZM232.993 204.16C233.665 204.16 234.179 203.941 234.533 203.502C234.897 203.054 235.079 202.405 235.079 201.556C235.079 200.725 234.897 200.086 234.533 199.638C234.169 199.181 233.656 198.952 232.993 198.952C232.331 198.952 231.817 199.181 231.453 199.638C231.089 200.086 230.907 200.725 230.907 201.556C230.907 202.396 231.085 203.04 231.439 203.488C231.803 203.936 232.321 204.16 232.993 204.16ZM240.759 205.098C240.115 205.098 239.546 204.953 239.051 204.664C238.566 204.375 238.188 203.964 237.917 203.432C237.656 202.891 237.525 202.265 237.525 201.556C237.525 200.847 237.656 200.226 237.917 199.694C238.188 199.153 238.566 198.737 239.051 198.448C239.546 198.159 240.115 198.014 240.759 198.014C241.403 198.014 241.972 198.159 242.467 198.448C242.962 198.737 243.34 199.153 243.601 199.694C243.872 200.226 244.007 200.847 244.007 201.556C244.007 202.265 243.872 202.891 243.601 203.432C243.34 203.964 242.962 204.375 242.467 204.664C241.972 204.953 241.403 205.098 240.759 205.098ZM240.759 204.16C241.431 204.16 241.944 203.941 242.299 203.502C242.663 203.054 242.845 202.405 242.845 201.556C242.845 200.725 242.663 200.086 242.299 199.638C241.935 199.181 241.422 198.952 240.759 198.952C240.096 198.952 239.583 199.181 239.219 199.638C238.855 200.086 238.673 200.725 238.673 201.556C238.673 202.396 238.85 203.04 239.205 203.488C239.569 203.936 240.087 204.16 240.759 204.16ZM253.284 198.014C254.796 198.014 255.552 198.915 255.552 200.716V204.51C255.552 204.687 255.501 204.827 255.398 204.93C255.296 205.023 255.16 205.07 254.992 205.07C254.824 205.07 254.684 205.023 254.572 204.93C254.47 204.827 254.418 204.687 254.418 204.51V200.744C254.418 200.119 254.306 199.666 254.082 199.386C253.858 199.106 253.508 198.966 253.032 198.966C252.463 198.966 252.015 199.157 251.688 199.54C251.362 199.923 251.198 200.441 251.198 201.094V204.51C251.198 204.687 251.142 204.827 251.03 204.93C250.928 205.023 250.792 205.07 250.624 205.07C250.456 205.07 250.321 205.023 250.218 204.93C250.116 204.827 250.064 204.687 250.064 204.51V200.744C250.064 200.119 249.952 199.666 249.728 199.386C249.504 199.106 249.15 198.966 248.664 198.966C248.104 198.966 247.656 199.157 247.32 199.54C246.994 199.923 246.83 200.441 246.83 201.094V204.51C246.83 204.687 246.779 204.827 246.676 204.93C246.574 205.023 246.438 205.07 246.27 205.07C246.102 205.07 245.962 205.023 245.85 204.93C245.748 204.827 245.696 204.687 245.696 204.51V198.602C245.696 198.434 245.748 198.299 245.85 198.196C245.962 198.093 246.102 198.042 246.27 198.042C246.429 198.042 246.56 198.093 246.662 198.196C246.765 198.289 246.816 198.42 246.816 198.588V199.26C247.022 198.859 247.306 198.551 247.67 198.336C248.034 198.121 248.454 198.014 248.93 198.014C249.994 198.014 250.69 198.462 251.016 199.358C251.212 198.947 251.511 198.621 251.912 198.378C252.314 198.135 252.771 198.014 253.284 198.014ZM261.802 205.07C261.634 205.07 261.494 205.023 261.382 204.93C261.279 204.827 261.228 204.687 261.228 204.51V195.62C261.228 195.443 261.279 195.307 261.382 195.214C261.494 195.111 261.634 195.06 261.802 195.06C261.96 195.06 262.091 195.111 262.194 195.214C262.306 195.307 262.362 195.443 262.362 195.62V204.51C262.362 204.687 262.306 204.827 262.194 204.93C262.091 205.023 261.96 205.07 261.802 205.07ZM267.31 205.098C266.666 205.098 266.096 204.953 265.602 204.664C265.116 204.375 264.738 203.964 264.468 203.432C264.206 202.891 264.076 202.265 264.076 201.556C264.076 200.847 264.206 200.226 264.468 199.694C264.738 199.153 265.116 198.737 265.602 198.448C266.096 198.159 266.666 198.014 267.31 198.014C267.954 198.014 268.523 198.159 269.018 198.448C269.512 198.737 269.89 199.153 270.152 199.694C270.422 200.226 270.558 200.847 270.558 201.556C270.558 202.265 270.422 202.891 270.152 203.432C269.89 203.964 269.512 204.375 269.018 204.664C268.523 204.953 267.954 205.098 267.31 205.098ZM267.31 204.16C267.982 204.16 268.495 203.941 268.85 203.502C269.214 203.054 269.396 202.405 269.396 201.556C269.396 200.725 269.214 200.086 268.85 199.638C268.486 199.181 267.972 198.952 267.31 198.952C266.647 198.952 266.134 199.181 265.77 199.638C265.406 200.086 265.224 200.725 265.224 201.556C265.224 202.396 265.401 203.04 265.756 203.488C266.12 203.936 266.638 204.16 267.31 204.16ZM275.075 205.098C274.431 205.098 273.862 204.953 273.367 204.664C272.882 204.375 272.504 203.964 272.233 203.432C271.972 202.891 271.841 202.265 271.841 201.556C271.841 200.847 271.972 200.226 272.233 199.694C272.504 199.153 272.882 198.737 273.367 198.448C273.862 198.159 274.431 198.014 275.075 198.014C275.719 198.014 276.289 198.159 276.783 198.448C277.278 198.737 277.656 199.153 277.917 199.694C278.188 200.226 278.323 200.847 278.323 201.556C278.323 202.265 278.188 202.891 277.917 203.432C277.656 203.964 277.278 204.375 276.783 204.664C276.289 204.953 275.719 205.098 275.075 205.098ZM275.075 204.16C275.747 204.16 276.261 203.941 276.615 203.502C276.979 203.054 277.161 202.405 277.161 201.556C277.161 200.725 276.979 200.086 276.615 199.638C276.251 199.181 275.738 198.952 275.075 198.952C274.413 198.952 273.899 199.181 273.535 199.638C273.171 200.086 272.989 200.725 272.989 201.556C272.989 202.396 273.167 203.04 273.521 203.488C273.885 203.936 274.403 204.16 275.075 204.16ZM285.459 204.104C285.608 204.244 285.683 204.393 285.683 204.552C285.683 204.692 285.632 204.813 285.529 204.916C285.436 205.019 285.319 205.07 285.179 205.07C285.058 205.07 284.932 205.014 284.801 204.902L281.147 201.752V204.51C281.147 204.687 281.091 204.827 280.979 204.93C280.876 205.023 280.746 205.07 280.587 205.07C280.419 205.07 280.279 205.023 280.167 204.93C280.064 204.827 280.013 204.687 280.013 204.51V195.62C280.013 195.443 280.064 195.307 280.167 195.214C280.279 195.111 280.419 195.06 280.587 195.06C280.746 195.06 280.876 195.111 280.979 195.214C281.091 195.307 281.147 195.443 281.147 195.62V201.304L284.493 198.238C284.605 198.126 284.731 198.07 284.871 198.07C285.011 198.07 285.132 198.121 285.235 198.224C285.338 198.327 285.389 198.448 285.389 198.588C285.389 198.747 285.324 198.887 285.193 199.008L282.435 201.472L285.459 204.104ZM289.186 205.098C288.757 205.098 288.346 205.047 287.954 204.944C287.571 204.841 287.231 204.697 286.932 204.51C286.764 204.398 286.643 204.295 286.568 204.202C286.503 204.099 286.47 203.978 286.47 203.838C286.47 203.717 286.503 203.619 286.568 203.544C286.643 203.46 286.736 203.418 286.848 203.418C286.96 203.418 287.123 203.488 287.338 203.628C287.618 203.796 287.893 203.931 288.164 204.034C288.444 204.127 288.789 204.174 289.2 204.174C289.704 204.174 290.096 204.085 290.376 203.908C290.656 203.731 290.796 203.474 290.796 203.138C290.796 202.933 290.745 202.769 290.642 202.648C290.539 202.517 290.362 202.405 290.11 202.312C289.858 202.209 289.489 202.107 289.004 202.004C288.183 201.827 287.595 201.589 287.24 201.29C286.885 200.991 286.708 200.585 286.708 200.072C286.708 199.671 286.82 199.316 287.044 199.008C287.268 198.7 287.576 198.457 287.968 198.28C288.369 198.103 288.822 198.014 289.326 198.014C289.69 198.014 290.04 198.065 290.376 198.168C290.721 198.261 291.025 198.397 291.286 198.574C291.603 198.798 291.762 199.031 291.762 199.274C291.762 199.395 291.725 199.498 291.65 199.582C291.575 199.666 291.487 199.708 291.384 199.708C291.272 199.708 291.104 199.629 290.88 199.47C290.619 199.302 290.371 199.171 290.138 199.078C289.905 198.985 289.615 198.938 289.27 198.938C288.831 198.938 288.477 199.036 288.206 199.232C287.945 199.428 287.814 199.689 287.814 200.016C287.814 200.221 287.861 200.389 287.954 200.52C288.057 200.641 288.22 200.753 288.444 200.856C288.677 200.949 289.009 201.043 289.438 201.136C290.073 201.276 290.563 201.43 290.908 201.598C291.263 201.766 291.515 201.971 291.664 202.214C291.813 202.457 291.888 202.765 291.888 203.138C291.888 203.726 291.641 204.202 291.146 204.566C290.651 204.921 289.998 205.098 289.186 205.098ZM300.656 198.014C301.253 198.014 301.78 198.159 302.238 198.448C302.695 198.737 303.05 199.148 303.302 199.68C303.554 200.212 303.68 200.828 303.68 201.528C303.68 202.237 303.554 202.863 303.302 203.404C303.05 203.936 302.695 204.351 302.238 204.65C301.78 204.949 301.253 205.098 300.656 205.098C300.124 205.098 299.657 204.981 299.256 204.748C298.864 204.515 298.565 204.183 298.36 203.754V204.51C298.36 204.678 298.308 204.813 298.206 204.916C298.112 205.019 297.977 205.07 297.8 205.07C297.622 205.07 297.482 205.019 297.38 204.916C297.277 204.813 297.226 204.678 297.226 204.51V195.606C297.226 195.447 297.277 195.317 297.38 195.214C297.482 195.111 297.622 195.06 297.8 195.06C297.977 195.06 298.112 195.111 298.206 195.214C298.308 195.307 298.36 195.438 298.36 195.606V199.358C298.565 198.929 298.864 198.597 299.256 198.364C299.657 198.131 300.124 198.014 300.656 198.014ZM300.432 204.16C301.094 204.16 301.608 203.931 301.972 203.474C302.336 203.007 302.518 202.359 302.518 201.528C302.518 200.716 302.336 200.086 301.972 199.638C301.608 199.19 301.094 198.966 300.432 198.966C299.769 198.966 299.256 199.19 298.892 199.638C298.537 200.086 298.36 200.725 298.36 201.556C298.36 202.387 298.537 203.031 298.892 203.488C299.256 203.936 299.769 204.16 300.432 204.16ZM310.652 203.418C310.755 203.418 310.844 203.46 310.918 203.544C310.993 203.628 311.03 203.735 311.03 203.866C311.03 204.099 310.867 204.314 310.54 204.51C310.204 204.706 309.85 204.855 309.476 204.958C309.103 205.051 308.739 205.098 308.384 205.098C307.33 205.098 306.494 204.785 305.878 204.16C305.272 203.535 304.968 202.671 304.968 201.57C304.968 200.87 305.104 200.254 305.374 199.722C305.645 199.181 306.023 198.761 306.508 198.462C307.003 198.163 307.563 198.014 308.188 198.014C309.075 198.014 309.78 198.303 310.302 198.882C310.825 199.461 311.086 200.245 311.086 201.234C311.086 201.421 311.049 201.556 310.974 201.64C310.9 201.724 310.778 201.766 310.61 201.766H306.102C306.186 203.371 306.947 204.174 308.384 204.174C308.748 204.174 309.061 204.127 309.322 204.034C309.584 203.931 309.864 203.796 310.162 203.628C310.405 203.488 310.568 203.418 310.652 203.418ZM308.202 198.896C307.605 198.896 307.124 199.083 306.76 199.456C306.406 199.829 306.196 200.357 306.13 201.038H310.092C310.074 200.347 309.901 199.82 309.574 199.456C309.248 199.083 308.79 198.896 308.202 198.896ZM315.543 198.014C317.251 198.014 318.105 198.91 318.105 200.702V204.51C318.105 204.678 318.054 204.813 317.951 204.916C317.858 205.019 317.727 205.07 317.559 205.07C317.391 205.07 317.256 205.019 317.153 204.916C317.05 204.813 316.999 204.678 316.999 204.51V203.838C316.822 204.239 316.551 204.552 316.187 204.776C315.823 204.991 315.403 205.098 314.927 205.098C314.488 205.098 314.082 205.009 313.709 204.832C313.345 204.655 313.056 204.407 312.841 204.09C312.626 203.773 312.519 203.423 312.519 203.04C312.519 202.527 312.65 202.13 312.911 201.85C313.172 201.561 313.602 201.355 314.199 201.234C314.796 201.103 315.627 201.038 316.691 201.038H316.999V200.576C316.999 200.016 316.882 199.605 316.649 199.344C316.425 199.083 316.056 198.952 315.543 198.952C314.908 198.952 314.264 199.125 313.611 199.47C313.359 199.629 313.182 199.708 313.079 199.708C312.967 199.708 312.874 199.666 312.799 199.582C312.724 199.498 312.687 199.391 312.687 199.26C312.687 199.129 312.724 199.017 312.799 198.924C312.883 198.821 313.014 198.719 313.191 198.616C313.518 198.429 313.886 198.285 314.297 198.182C314.717 198.07 315.132 198.014 315.543 198.014ZM315.081 204.202C315.641 204.202 316.098 204.015 316.453 203.642C316.817 203.259 316.999 202.769 316.999 202.172V201.766H316.747C315.926 201.766 315.3 201.803 314.871 201.878C314.442 201.943 314.134 202.06 313.947 202.228C313.77 202.387 313.681 202.625 313.681 202.942C313.681 203.306 313.812 203.609 314.073 203.852C314.344 204.085 314.68 204.202 315.081 204.202ZM325.361 198.042C325.538 198.042 325.674 198.093 325.767 198.196C325.87 198.299 325.921 198.434 325.921 198.602V204.524C325.921 204.683 325.87 204.813 325.767 204.916C325.674 205.019 325.538 205.07 325.361 205.07C325.193 205.07 325.058 205.023 324.955 204.93C324.862 204.827 324.815 204.697 324.815 204.538V203.838C324.6 204.249 324.297 204.561 323.905 204.776C323.522 204.991 323.088 205.098 322.603 205.098C321.791 205.098 321.18 204.874 320.769 204.426C320.358 203.969 320.153 203.297 320.153 202.41V198.602C320.153 198.434 320.204 198.299 320.307 198.196C320.41 198.093 320.55 198.042 320.727 198.042C320.904 198.042 321.04 198.093 321.133 198.196C321.236 198.299 321.287 198.434 321.287 198.602V202.382C321.287 202.989 321.408 203.437 321.651 203.726C321.894 204.006 322.276 204.146 322.799 204.146C323.396 204.146 323.877 203.955 324.241 203.572C324.605 203.18 324.787 202.667 324.787 202.032V198.602C324.787 198.434 324.838 198.299 324.941 198.196C325.044 198.093 325.184 198.042 325.361 198.042ZM331.179 204.174C331.505 204.202 331.669 204.351 331.669 204.622C331.669 204.781 331.608 204.902 331.487 204.986C331.375 205.061 331.202 205.089 330.969 205.07L330.591 205.042C329.844 204.986 329.293 204.762 328.939 204.37C328.584 203.978 328.407 203.385 328.407 202.592V199.078H327.469C327.31 199.078 327.184 199.041 327.091 198.966C327.007 198.882 326.965 198.775 326.965 198.644C326.965 198.504 327.007 198.392 327.091 198.308C327.184 198.224 327.31 198.182 327.469 198.182H328.407V196.6C328.407 196.423 328.458 196.287 328.561 196.194C328.663 196.091 328.803 196.04 328.981 196.04C329.149 196.04 329.284 196.091 329.387 196.194C329.489 196.287 329.541 196.423 329.541 196.6V198.182H331.095C331.244 198.182 331.361 198.224 331.445 198.308C331.538 198.392 331.585 198.504 331.585 198.644C331.585 198.775 331.538 198.882 331.445 198.966C331.361 199.041 331.244 199.078 331.095 199.078H329.541V202.648C329.541 203.161 329.643 203.535 329.849 203.768C330.063 203.992 330.381 204.118 330.801 204.146L331.179 204.174ZM333.36 205.07C333.192 205.07 333.052 205.023 332.94 204.93C332.838 204.827 332.786 204.687 332.786 204.51V198.602C332.786 198.425 332.838 198.289 332.94 198.196C333.052 198.093 333.192 198.042 333.36 198.042C333.528 198.042 333.664 198.093 333.766 198.196C333.869 198.289 333.92 198.425 333.92 198.602V204.51C333.92 204.697 333.869 204.837 333.766 204.93C333.664 205.023 333.528 205.07 333.36 205.07ZM333.36 196.572C333.136 196.572 332.954 196.507 332.814 196.376C332.674 196.245 332.604 196.073 332.604 195.858C332.604 195.653 332.674 195.485 332.814 195.354C332.954 195.223 333.136 195.158 333.36 195.158C333.584 195.158 333.766 195.223 333.906 195.354C334.046 195.485 334.116 195.653 334.116 195.858C334.116 196.073 334.046 196.245 333.906 196.376C333.766 196.507 333.584 196.572 333.36 196.572ZM339.05 196.026C338.556 196.063 338.182 196.222 337.93 196.502C337.678 196.773 337.552 197.183 337.552 197.734V198.182H339.106C339.265 198.182 339.386 198.224 339.47 198.308C339.554 198.392 339.596 198.504 339.596 198.644C339.596 198.784 339.554 198.891 339.47 198.966C339.386 199.041 339.265 199.078 339.106 199.078H337.552V204.51C337.552 204.687 337.496 204.827 337.384 204.93C337.282 205.023 337.151 205.07 336.992 205.07C336.824 205.07 336.684 205.023 336.572 204.93C336.47 204.827 336.418 204.687 336.418 204.51V199.078H335.48C335.322 199.078 335.196 199.041 335.102 198.966C335.018 198.882 334.976 198.775 334.976 198.644C334.976 198.504 335.018 198.392 335.102 198.308C335.196 198.224 335.322 198.182 335.48 198.182H336.418V197.93C336.418 197.09 336.628 196.432 337.048 195.956C337.468 195.471 338.07 195.2 338.854 195.144L339.218 195.116C339.461 195.097 339.634 195.121 339.736 195.186C339.848 195.251 339.904 195.368 339.904 195.536C339.904 195.807 339.741 195.961 339.414 195.998L339.05 196.026ZM345.814 198.042C345.991 198.042 346.127 198.093 346.22 198.196C346.323 198.299 346.374 198.434 346.374 198.602V204.524C346.374 204.683 346.323 204.813 346.22 204.916C346.127 205.019 345.991 205.07 345.814 205.07C345.646 205.07 345.511 205.023 345.408 204.93C345.315 204.827 345.268 204.697 345.268 204.538V203.838C345.053 204.249 344.75 204.561 344.358 204.776C343.975 204.991 343.541 205.098 343.056 205.098C342.244 205.098 341.633 204.874 341.222 204.426C340.811 203.969 340.606 203.297 340.606 202.41V198.602C340.606 198.434 340.657 198.299 340.76 198.196C340.863 198.093 341.003 198.042 341.18 198.042C341.357 198.042 341.493 198.093 341.586 198.196C341.689 198.299 341.74 198.434 341.74 198.602V202.382C341.74 202.989 341.861 203.437 342.104 203.726C342.347 204.006 342.729 204.146 343.252 204.146C343.849 204.146 344.33 203.955 344.694 203.572C345.058 203.18 345.24 202.667 345.24 202.032V198.602C345.24 198.434 345.291 198.299 345.394 198.196C345.497 198.093 345.637 198.042 345.814 198.042ZM349.056 205.07C348.888 205.07 348.748 205.023 348.636 204.93C348.533 204.827 348.482 204.687 348.482 204.51V195.62C348.482 195.443 348.533 195.307 348.636 195.214C348.748 195.111 348.888 195.06 349.056 195.06C349.214 195.06 349.345 195.111 349.448 195.214C349.56 195.307 349.616 195.443 349.616 195.62V204.51C349.616 204.687 349.56 204.827 349.448 204.93C349.345 205.023 349.214 205.07 349.056 205.07ZM364.669 198.406C364.762 198.182 364.916 198.07 365.131 198.07C365.271 198.07 365.397 198.117 365.509 198.21C365.621 198.303 365.677 198.42 365.677 198.56C365.677 198.625 365.663 198.695 365.635 198.77L363.311 204.65C363.255 204.771 363.171 204.869 363.059 204.944C362.956 205.009 362.84 205.042 362.709 205.042C362.588 205.042 362.471 205.009 362.359 204.944C362.256 204.869 362.177 204.771 362.121 204.65L360.189 199.736L358.271 204.65C358.224 204.771 358.145 204.869 358.033 204.944C357.921 205.009 357.8 205.042 357.669 205.042C357.548 205.042 357.431 205.009 357.319 204.944C357.207 204.869 357.123 204.771 357.067 204.65L354.743 198.784C354.715 198.709 354.701 198.644 354.701 198.588C354.701 198.439 354.762 198.313 354.883 198.21C355.014 198.107 355.154 198.056 355.303 198.056C355.527 198.056 355.686 198.168 355.779 198.392L357.697 203.558L359.671 198.434C359.727 198.313 359.802 198.219 359.895 198.154C359.998 198.089 360.105 198.056 360.217 198.056C360.338 198.056 360.446 198.089 360.539 198.154C360.642 198.219 360.716 198.313 360.763 198.434L362.737 203.544L364.669 198.406ZM367.704 205.07C367.536 205.07 367.396 205.023 367.284 204.93C367.181 204.827 367.13 204.687 367.13 204.51V198.602C367.13 198.425 367.181 198.289 367.284 198.196C367.396 198.093 367.536 198.042 367.704 198.042C367.872 198.042 368.007 198.093 368.11 198.196C368.213 198.289 368.264 198.425 368.264 198.602V204.51C368.264 204.697 368.213 204.837 368.11 204.93C368.007 205.023 367.872 205.07 367.704 205.07ZM367.704 196.572C367.48 196.572 367.298 196.507 367.158 196.376C367.018 196.245 366.948 196.073 366.948 195.858C366.948 195.653 367.018 195.485 367.158 195.354C367.298 195.223 367.48 195.158 367.704 195.158C367.928 195.158 368.11 195.223 368.25 195.354C368.39 195.485 368.46 195.653 368.46 195.858C368.46 196.073 368.39 196.245 368.25 196.376C368.11 196.507 367.928 196.572 367.704 196.572ZM373.534 204.174C373.861 204.202 374.024 204.351 374.024 204.622C374.024 204.781 373.963 204.902 373.842 204.986C373.73 205.061 373.557 205.089 373.324 205.07L372.946 205.042C372.199 204.986 371.649 204.762 371.294 204.37C370.939 203.978 370.762 203.385 370.762 202.592V199.078H369.824C369.665 199.078 369.539 199.041 369.446 198.966C369.362 198.882 369.32 198.775 369.32 198.644C369.32 198.504 369.362 198.392 369.446 198.308C369.539 198.224 369.665 198.182 369.824 198.182H370.762V196.6C370.762 196.423 370.813 196.287 370.916 196.194C371.019 196.091 371.159 196.04 371.336 196.04C371.504 196.04 371.639 196.091 371.742 196.194C371.845 196.287 371.896 196.423 371.896 196.6V198.182H373.45C373.599 198.182 373.716 198.224 373.8 198.308C373.893 198.392 373.94 198.504 373.94 198.644C373.94 198.775 373.893 198.882 373.8 198.966C373.716 199.041 373.599 199.078 373.45 199.078H371.896V202.648C371.896 203.161 371.999 203.535 372.204 203.768C372.419 203.992 372.736 204.118 373.156 204.146L373.534 204.174ZM378.586 198.014C379.388 198.014 379.995 198.243 380.406 198.7C380.816 199.148 381.022 199.82 381.022 200.716V204.51C381.022 204.687 380.97 204.827 380.868 204.93C380.765 205.023 380.63 205.07 380.462 205.07C380.284 205.07 380.144 205.023 380.042 204.93C379.939 204.827 379.888 204.687 379.888 204.51V200.744C379.888 200.137 379.762 199.689 379.51 199.4C379.267 199.111 378.875 198.966 378.334 198.966C377.708 198.966 377.209 199.157 376.836 199.54C376.462 199.923 376.276 200.441 376.276 201.094V204.51C376.276 204.687 376.224 204.827 376.122 204.93C376.028 205.023 375.893 205.07 375.716 205.07C375.538 205.07 375.398 205.023 375.296 204.93C375.193 204.827 375.142 204.687 375.142 204.51V195.606C375.142 195.447 375.193 195.317 375.296 195.214C375.408 195.111 375.548 195.06 375.716 195.06C375.893 195.06 376.028 195.111 376.122 195.214C376.224 195.307 376.276 195.438 376.276 195.606V199.274C376.5 198.863 376.812 198.551 377.214 198.336C377.615 198.121 378.072 198.014 378.586 198.014ZM389.494 198.014C391.202 198.014 392.056 198.91 392.056 200.702V204.51C392.056 204.678 392.005 204.813 391.902 204.916C391.809 205.019 391.678 205.07 391.51 205.07C391.342 205.07 391.207 205.019 391.104 204.916C391.002 204.813 390.95 204.678 390.95 204.51V203.838C390.773 204.239 390.502 204.552 390.138 204.776C389.774 204.991 389.354 205.098 388.878 205.098C388.44 205.098 388.034 205.009 387.66 204.832C387.296 204.655 387.007 204.407 386.792 204.09C386.578 203.773 386.47 203.423 386.47 203.04C386.47 202.527 386.601 202.13 386.862 201.85C387.124 201.561 387.553 201.355 388.15 201.234C388.748 201.103 389.578 201.038 390.642 201.038H390.95V200.576C390.95 200.016 390.834 199.605 390.6 199.344C390.376 199.083 390.008 198.952 389.494 198.952C388.86 198.952 388.216 199.125 387.562 199.47C387.31 199.629 387.133 199.708 387.03 199.708C386.918 199.708 386.825 199.666 386.75 199.582C386.676 199.498 386.638 199.391 386.638 199.26C386.638 199.129 386.676 199.017 386.75 198.924C386.834 198.821 386.965 198.719 387.142 198.616C387.469 198.429 387.838 198.285 388.248 198.182C388.668 198.07 389.084 198.014 389.494 198.014ZM389.032 204.202C389.592 204.202 390.05 204.015 390.404 203.642C390.768 203.259 390.95 202.769 390.95 202.172V201.766H390.698C389.877 201.766 389.252 201.803 388.822 201.878C388.393 201.943 388.085 202.06 387.898 202.228C387.721 202.387 387.632 202.625 387.632 202.942C387.632 203.306 387.763 203.609 388.024 203.852C388.295 204.085 388.631 204.202 389.032 204.202ZM401.171 198.014C401.769 198.014 402.296 198.159 402.753 198.448C403.211 198.737 403.565 199.148 403.817 199.68C404.069 200.212 404.195 200.828 404.195 201.528C404.195 202.237 404.069 202.863 403.817 203.404C403.565 203.936 403.211 204.351 402.753 204.65C402.296 204.949 401.769 205.098 401.171 205.098C400.639 205.098 400.173 204.981 399.771 204.748C399.379 204.515 399.081 204.183 398.875 203.754V204.51C398.875 204.678 398.824 204.813 398.721 204.916C398.628 205.019 398.493 205.07 398.315 205.07C398.138 205.07 397.998 205.019 397.895 204.916C397.793 204.813 397.741 204.678 397.741 204.51V195.606C397.741 195.447 397.793 195.317 397.895 195.214C397.998 195.111 398.138 195.06 398.315 195.06C398.493 195.06 398.628 195.111 398.721 195.214C398.824 195.307 398.875 195.438 398.875 195.606V199.358C399.081 198.929 399.379 198.597 399.771 198.364C400.173 198.131 400.639 198.014 401.171 198.014ZM400.947 204.16C401.61 204.16 402.123 203.931 402.487 203.474C402.851 203.007 403.033 202.359 403.033 201.528C403.033 200.716 402.851 200.086 402.487 199.638C402.123 199.19 401.61 198.966 400.947 198.966C400.285 198.966 399.771 199.19 399.407 199.638C399.053 200.086 398.875 200.725 398.875 201.556C398.875 202.387 399.053 203.031 399.407 203.488C399.771 203.936 400.285 204.16 400.947 204.16ZM406.464 205.07C406.296 205.07 406.156 205.023 406.044 204.93C405.941 204.827 405.89 204.687 405.89 204.51V195.62C405.89 195.443 405.941 195.307 406.044 195.214C406.156 195.111 406.296 195.06 406.464 195.06C406.623 195.06 406.753 195.111 406.856 195.214C406.968 195.307 407.024 195.443 407.024 195.62V204.51C407.024 204.687 406.968 204.827 406.856 204.93C406.753 205.023 406.623 205.07 406.464 205.07ZM414.422 203.418C414.524 203.418 414.613 203.46 414.688 203.544C414.762 203.628 414.8 203.735 414.8 203.866C414.8 204.099 414.636 204.314 414.31 204.51C413.974 204.706 413.619 204.855 413.246 204.958C412.872 205.051 412.508 205.098 412.154 205.098C411.099 205.098 410.264 204.785 409.648 204.16C409.041 203.535 408.738 202.671 408.738 201.57C408.738 200.87 408.873 200.254 409.144 199.722C409.414 199.181 409.792 198.761 410.278 198.462C410.772 198.163 411.332 198.014 411.958 198.014C412.844 198.014 413.549 198.303 414.072 198.882C414.594 199.461 414.856 200.245 414.856 201.234C414.856 201.421 414.818 201.556 414.744 201.64C414.669 201.724 414.548 201.766 414.38 201.766H409.872C409.956 203.371 410.716 204.174 412.154 204.174C412.518 204.174 412.83 204.127 413.092 204.034C413.353 203.931 413.633 203.796 413.932 203.628C414.174 203.488 414.338 203.418 414.422 203.418ZM411.972 198.896C411.374 198.896 410.894 199.083 410.53 199.456C410.175 199.829 409.965 200.357 409.9 201.038H413.862C413.843 200.347 413.67 199.82 413.344 199.456C413.017 199.083 412.56 198.896 411.972 198.896ZM419.957 198.014C421.59 198.014 422.407 198.915 422.407 200.716V204.51C422.407 204.687 422.355 204.827 422.253 204.93C422.159 205.023 422.024 205.07 421.847 205.07C421.669 205.07 421.529 205.023 421.427 204.93C421.324 204.827 421.273 204.687 421.273 204.51V200.786C421.273 200.151 421.147 199.689 420.895 199.4C420.652 199.111 420.26 198.966 419.719 198.966C419.093 198.966 418.594 199.157 418.221 199.54C417.847 199.923 417.661 200.441 417.661 201.094V204.51C417.661 204.687 417.609 204.827 417.507 204.93C417.413 205.023 417.278 205.07 417.101 205.07C416.923 205.07 416.783 205.023 416.681 204.93C416.578 204.827 416.527 204.687 416.527 204.51V198.602C416.527 198.434 416.578 198.299 416.681 198.196C416.783 198.093 416.923 198.042 417.101 198.042C417.269 198.042 417.399 198.093 417.493 198.196C417.595 198.299 417.647 198.429 417.647 198.588V199.302C417.871 198.882 418.183 198.565 418.585 198.35C418.986 198.126 419.443 198.014 419.957 198.014ZM429.958 195.06C430.135 195.06 430.275 195.111 430.378 195.214C430.48 195.317 430.532 195.447 430.532 195.606V204.51C430.532 204.678 430.48 204.813 430.378 204.916C430.275 205.019 430.135 205.07 429.958 205.07C429.78 205.07 429.64 205.019 429.538 204.916C429.444 204.813 429.398 204.678 429.398 204.51V203.754C429.192 204.183 428.889 204.515 428.488 204.748C428.096 204.981 427.634 205.098 427.102 205.098C426.504 205.098 425.977 204.949 425.52 204.65C425.062 204.351 424.708 203.936 424.456 203.404C424.204 202.863 424.078 202.237 424.078 201.528C424.078 200.828 424.204 200.212 424.456 199.68C424.708 199.148 425.062 198.737 425.52 198.448C425.977 198.159 426.504 198.014 427.102 198.014C427.634 198.014 428.096 198.131 428.488 198.364C428.889 198.597 429.192 198.929 429.398 199.358V195.606C429.398 195.438 429.444 195.307 429.538 195.214C429.64 195.111 429.78 195.06 429.958 195.06ZM427.326 204.16C427.988 204.16 428.497 203.936 428.852 203.488C429.216 203.031 429.398 202.387 429.398 201.556C429.398 200.725 429.216 200.086 428.852 199.638C428.497 199.19 427.988 198.966 427.326 198.966C426.663 198.966 426.145 199.19 425.772 199.638C425.408 200.086 425.226 200.716 425.226 201.528C425.226 202.359 425.408 203.007 425.772 203.474C426.145 203.931 426.663 204.16 427.326 204.16ZM439.069 205.098C438.425 205.098 437.856 204.953 437.361 204.664C436.876 204.375 436.498 203.964 436.227 203.432C435.966 202.891 435.835 202.265 435.835 201.556C435.835 200.847 435.966 200.226 436.227 199.694C436.498 199.153 436.876 198.737 437.361 198.448C437.856 198.159 438.425 198.014 439.069 198.014C439.713 198.014 440.283 198.159 440.777 198.448C441.272 198.737 441.65 199.153 441.911 199.694C442.182 200.226 442.317 200.847 442.317 201.556C442.317 202.265 442.182 202.891 441.911 203.432C441.65 203.964 441.272 204.375 440.777 204.664C440.283 204.953 439.713 205.098 439.069 205.098ZM439.069 204.16C439.741 204.16 440.255 203.941 440.609 203.502C440.973 203.054 441.155 202.405 441.155 201.556C441.155 200.725 440.973 200.086 440.609 199.638C440.245 199.181 439.732 198.952 439.069 198.952C438.407 198.952 437.893 199.181 437.529 199.638C437.165 200.086 436.983 200.725 436.983 201.556C436.983 202.396 437.161 203.04 437.515 203.488C437.879 203.936 438.397 204.16 439.069 204.16ZM447.003 196.026C446.509 196.063 446.135 196.222 445.883 196.502C445.631 196.773 445.505 197.183 445.505 197.734V198.182H447.059C447.218 198.182 447.339 198.224 447.423 198.308C447.507 198.392 447.549 198.504 447.549 198.644C447.549 198.784 447.507 198.891 447.423 198.966C447.339 199.041 447.218 199.078 447.059 199.078H445.505V204.51C445.505 204.687 445.449 204.827 445.337 204.93C445.235 205.023 445.104 205.07 444.945 205.07C444.777 205.07 444.637 205.023 444.525 204.93C444.423 204.827 444.371 204.687 444.371 204.51V199.078H443.433C443.275 199.078 443.149 199.041 443.055 198.966C442.971 198.882 442.929 198.775 442.929 198.644C442.929 198.504 442.971 198.392 443.055 198.308C443.149 198.224 443.275 198.182 443.433 198.182H444.371V197.93C444.371 197.09 444.581 196.432 445.001 195.956C445.421 195.471 446.023 195.2 446.807 195.144L447.171 195.116C447.414 195.097 447.587 195.121 447.689 195.186C447.801 195.251 447.857 195.368 447.857 195.536C447.857 195.807 447.694 195.961 447.367 195.998L447.003 196.026ZM200.864 228.098C200.229 228.098 199.665 227.953 199.17 227.664C198.685 227.375 198.307 226.964 198.036 226.432C197.775 225.9 197.644 225.284 197.644 224.584C197.644 223.884 197.779 223.263 198.05 222.722C198.33 222.181 198.717 221.761 199.212 221.462C199.707 221.163 200.276 221.014 200.92 221.014C201.275 221.014 201.625 221.065 201.97 221.168C202.325 221.261 202.633 221.401 202.894 221.588C203.062 221.7 203.179 221.812 203.244 221.924C203.319 222.027 203.356 222.143 203.356 222.274C203.356 222.405 203.319 222.512 203.244 222.596C203.179 222.68 203.09 222.722 202.978 222.722C202.913 222.722 202.843 222.703 202.768 222.666C202.693 222.629 202.628 222.591 202.572 222.554C202.525 222.517 202.493 222.493 202.474 222.484C202.231 222.325 201.998 222.199 201.774 222.106C201.559 222.013 201.293 221.966 200.976 221.966C200.295 221.966 199.763 222.199 199.38 222.666C199.007 223.123 198.82 223.763 198.82 224.584C198.82 225.405 199.007 226.04 199.38 226.488C199.763 226.936 200.295 227.16 200.976 227.16C201.293 227.16 201.564 227.113 201.788 227.02C202.021 226.927 202.255 226.801 202.488 226.642C202.591 226.577 202.689 226.521 202.782 226.474C202.875 226.427 202.955 226.404 203.02 226.404C203.123 226.404 203.207 226.446 203.272 226.53C203.347 226.614 203.384 226.721 203.384 226.852C203.384 226.973 203.351 227.085 203.286 227.188C203.221 227.281 203.099 227.389 202.922 227.51C202.661 227.687 202.343 227.832 201.97 227.944C201.606 228.047 201.237 228.098 200.864 228.098ZM207.577 228.098C206.933 228.098 206.364 227.953 205.869 227.664C205.384 227.375 205.006 226.964 204.735 226.432C204.474 225.891 204.343 225.265 204.343 224.556C204.343 223.847 204.474 223.226 204.735 222.694C205.006 222.153 205.384 221.737 205.869 221.448C206.364 221.159 206.933 221.014 207.577 221.014C208.221 221.014 208.791 221.159 209.285 221.448C209.78 221.737 210.158 222.153 210.419 222.694C210.69 223.226 210.825 223.847 210.825 224.556C210.825 225.265 210.69 225.891 210.419 226.432C210.158 226.964 209.78 227.375 209.285 227.664C208.791 227.953 208.221 228.098 207.577 228.098ZM207.577 227.16C208.249 227.16 208.763 226.941 209.117 226.502C209.481 226.054 209.663 225.405 209.663 224.556C209.663 223.725 209.481 223.086 209.117 222.638C208.753 222.181 208.24 221.952 207.577 221.952C206.915 221.952 206.401 222.181 206.037 222.638C205.673 223.086 205.491 223.725 205.491 224.556C205.491 225.396 205.669 226.04 206.023 226.488C206.387 226.936 206.905 227.16 207.577 227.16ZM215.945 221.014C217.578 221.014 218.395 221.915 218.395 223.716V227.51C218.395 227.687 218.344 227.827 218.241 227.93C218.148 228.023 218.012 228.07 217.835 228.07C217.658 228.07 217.518 228.023 217.415 227.93C217.312 227.827 217.261 227.687 217.261 227.51V223.786C217.261 223.151 217.135 222.689 216.883 222.4C216.64 222.111 216.248 221.966 215.707 221.966C215.082 221.966 214.582 222.157 214.209 222.54C213.836 222.923 213.649 223.441 213.649 224.094V227.51C213.649 227.687 213.598 227.827 213.495 227.93C213.402 228.023 213.266 228.07 213.089 228.07C212.912 228.07 212.772 228.023 212.669 227.93C212.566 227.827 212.515 227.687 212.515 227.51V221.602C212.515 221.434 212.566 221.299 212.669 221.196C212.772 221.093 212.912 221.042 213.089 221.042C213.257 221.042 213.388 221.093 213.481 221.196C213.584 221.299 213.635 221.429 213.635 221.588V222.302C213.859 221.882 214.172 221.565 214.573 221.35C214.974 221.126 215.432 221.014 215.945 221.014ZM223.622 227.174C223.949 227.202 224.112 227.351 224.112 227.622C224.112 227.781 224.051 227.902 223.93 227.986C223.818 228.061 223.645 228.089 223.412 228.07L223.034 228.042C222.287 227.986 221.737 227.762 221.382 227.37C221.027 226.978 220.85 226.385 220.85 225.592V222.078H219.912C219.753 222.078 219.627 222.041 219.534 221.966C219.45 221.882 219.408 221.775 219.408 221.644C219.408 221.504 219.45 221.392 219.534 221.308C219.627 221.224 219.753 221.182 219.912 221.182H220.85V219.6C220.85 219.423 220.901 219.287 221.004 219.194C221.107 219.091 221.247 219.04 221.424 219.04C221.592 219.04 221.727 219.091 221.83 219.194C221.933 219.287 221.984 219.423 221.984 219.6V221.182H223.538C223.687 221.182 223.804 221.224 223.888 221.308C223.981 221.392 224.028 221.504 224.028 221.644C224.028 221.775 223.981 221.882 223.888 221.966C223.804 222.041 223.687 222.078 223.538 222.078H221.984V225.648C221.984 226.161 222.087 226.535 222.292 226.768C222.507 226.992 222.824 227.118 223.244 227.146L223.622 227.174ZM230.508 226.418C230.61 226.418 230.699 226.46 230.774 226.544C230.848 226.628 230.886 226.735 230.886 226.866C230.886 227.099 230.722 227.314 230.396 227.51C230.06 227.706 229.705 227.855 229.332 227.958C228.958 228.051 228.594 228.098 228.24 228.098C227.185 228.098 226.35 227.785 225.734 227.16C225.127 226.535 224.824 225.671 224.824 224.57C224.824 223.87 224.959 223.254 225.23 222.722C225.5 222.181 225.878 221.761 226.364 221.462C226.858 221.163 227.418 221.014 228.044 221.014C228.93 221.014 229.635 221.303 230.158 221.882C230.68 222.461 230.942 223.245 230.942 224.234C230.942 224.421 230.904 224.556 230.83 224.64C230.755 224.724 230.634 224.766 230.466 224.766H225.958C226.042 226.371 226.802 227.174 228.24 227.174C228.604 227.174 228.916 227.127 229.178 227.034C229.439 226.931 229.719 226.796 230.018 226.628C230.26 226.488 230.424 226.418 230.508 226.418ZM228.058 221.896C227.46 221.896 226.98 222.083 226.616 222.456C226.261 222.829 226.051 223.357 225.986 224.038H229.948C229.929 223.347 229.756 222.82 229.43 222.456C229.103 222.083 228.646 221.896 228.058 221.896ZM240.201 221.014C241.713 221.014 242.469 221.915 242.469 223.716V227.51C242.469 227.687 242.417 227.827 242.315 227.93C242.212 228.023 242.077 228.07 241.909 228.07C241.741 228.07 241.601 228.023 241.489 227.93C241.386 227.827 241.335 227.687 241.335 227.51V223.744C241.335 223.119 241.223 222.666 240.999 222.386C240.775 222.106 240.425 221.966 239.949 221.966C239.379 221.966 238.931 222.157 238.605 222.54C238.278 222.923 238.115 223.441 238.115 224.094V227.51C238.115 227.687 238.059 227.827 237.947 227.93C237.844 228.023 237.709 228.07 237.541 228.07C237.373 228.07 237.237 228.023 237.135 227.93C237.032 227.827 236.981 227.687 236.981 227.51V223.744C236.981 223.119 236.869 222.666 236.645 222.386C236.421 222.106 236.066 221.966 235.581 221.966C235.021 221.966 234.573 222.157 234.237 222.54C233.91 222.923 233.747 223.441 233.747 224.094V227.51C233.747 227.687 233.695 227.827 233.593 227.93C233.49 228.023 233.355 228.07 233.187 228.07C233.019 228.07 232.879 228.023 232.767 227.93C232.664 227.827 232.613 227.687 232.613 227.51V221.602C232.613 221.434 232.664 221.299 232.767 221.196C232.879 221.093 233.019 221.042 233.187 221.042C233.345 221.042 233.476 221.093 233.579 221.196C233.681 221.289 233.733 221.42 233.733 221.588V222.26C233.938 221.859 234.223 221.551 234.587 221.336C234.951 221.121 235.371 221.014 235.847 221.014C236.911 221.014 237.606 221.462 237.933 222.358C238.129 221.947 238.427 221.621 238.829 221.378C239.23 221.135 239.687 221.014 240.201 221.014ZM247.964 221.014C248.562 221.014 249.089 221.163 249.546 221.462C250.004 221.761 250.358 222.181 250.61 222.722C250.862 223.254 250.988 223.875 250.988 224.584C250.988 225.293 250.862 225.914 250.61 226.446C250.358 226.969 250.004 227.375 249.546 227.664C249.098 227.953 248.571 228.098 247.964 228.098C247.432 228.098 246.966 227.981 246.564 227.748C246.172 227.515 245.874 227.183 245.668 226.754V230.044C245.668 230.212 245.617 230.343 245.514 230.436C245.421 230.539 245.286 230.59 245.108 230.59C244.931 230.59 244.791 230.539 244.688 230.436C244.586 230.333 244.534 230.203 244.534 230.044V221.602C244.534 221.434 244.586 221.299 244.688 221.196C244.791 221.093 244.931 221.042 245.108 221.042C245.286 221.042 245.421 221.093 245.514 221.196C245.617 221.299 245.668 221.434 245.668 221.602V222.358C245.874 221.929 246.172 221.597 246.564 221.364C246.966 221.131 247.432 221.014 247.964 221.014ZM247.74 227.16C248.403 227.16 248.916 226.936 249.28 226.488C249.644 226.04 249.826 225.405 249.826 224.584C249.826 223.763 249.644 223.123 249.28 222.666C248.916 222.199 248.403 221.966 247.74 221.966C247.078 221.966 246.564 222.19 246.2 222.638C245.846 223.086 245.668 223.725 245.668 224.556C245.668 225.387 245.846 226.031 246.2 226.488C246.564 226.936 247.078 227.16 247.74 227.16ZM255.511 228.098C254.867 228.098 254.297 227.953 253.803 227.664C253.317 227.375 252.939 226.964 252.669 226.432C252.407 225.891 252.277 225.265 252.277 224.556C252.277 223.847 252.407 223.226 252.669 222.694C252.939 222.153 253.317 221.737 253.803 221.448C254.297 221.159 254.867 221.014 255.511 221.014C256.155 221.014 256.724 221.159 257.219 221.448C257.713 221.737 258.091 222.153 258.353 222.694C258.623 223.226 258.759 223.847 258.759 224.556C258.759 225.265 258.623 225.891 258.353 226.432C258.091 226.964 257.713 227.375 257.219 227.664C256.724 227.953 256.155 228.098 255.511 228.098ZM255.511 227.16C256.183 227.16 256.696 226.941 257.051 226.502C257.415 226.054 257.597 225.405 257.597 224.556C257.597 223.725 257.415 223.086 257.051 222.638C256.687 222.181 256.173 221.952 255.511 221.952C254.848 221.952 254.335 222.181 253.971 222.638C253.607 223.086 253.425 223.725 253.425 224.556C253.425 225.396 253.602 226.04 253.957 226.488C254.321 226.936 254.839 227.16 255.511 227.16ZM263.822 221.042C264.214 221.014 264.41 221.173 264.41 221.518C264.41 221.667 264.368 221.789 264.284 221.882C264.2 221.966 264.056 222.017 263.85 222.036L263.43 222.078C262.805 222.134 262.338 222.358 262.03 222.75C261.732 223.133 261.582 223.585 261.582 224.108V227.51C261.582 227.697 261.531 227.837 261.428 227.93C261.326 228.023 261.19 228.07 261.022 228.07C260.854 228.07 260.714 228.023 260.602 227.93C260.5 227.827 260.448 227.687 260.448 227.51V221.602C260.448 221.425 260.504 221.289 260.616 221.196C260.728 221.093 260.864 221.042 261.022 221.042C261.172 221.042 261.298 221.093 261.4 221.196C261.503 221.289 261.554 221.42 261.554 221.588V222.372C261.75 221.961 262.026 221.649 262.38 221.434C262.744 221.219 263.16 221.093 263.626 221.056L263.822 221.042ZM268.115 221.014C269.823 221.014 270.677 221.91 270.677 223.702V227.51C270.677 227.678 270.626 227.813 270.523 227.916C270.43 228.019 270.299 228.07 270.131 228.07C269.963 228.07 269.828 228.019 269.725 227.916C269.623 227.813 269.571 227.678 269.571 227.51V226.838C269.394 227.239 269.123 227.552 268.759 227.776C268.395 227.991 267.975 228.098 267.499 228.098C267.061 228.098 266.655 228.009 266.281 227.832C265.917 227.655 265.628 227.407 265.413 227.09C265.199 226.773 265.091 226.423 265.091 226.04C265.091 225.527 265.222 225.13 265.483 224.85C265.745 224.561 266.174 224.355 266.771 224.234C267.369 224.103 268.199 224.038 269.263 224.038H269.571V223.576C269.571 223.016 269.455 222.605 269.221 222.344C268.997 222.083 268.629 221.952 268.115 221.952C267.481 221.952 266.837 222.125 266.183 222.47C265.931 222.629 265.754 222.708 265.651 222.708C265.539 222.708 265.446 222.666 265.371 222.582C265.297 222.498 265.259 222.391 265.259 222.26C265.259 222.129 265.297 222.017 265.371 221.924C265.455 221.821 265.586 221.719 265.763 221.616C266.09 221.429 266.459 221.285 266.869 221.182C267.289 221.07 267.705 221.014 268.115 221.014ZM267.653 227.202C268.213 227.202 268.671 227.015 269.025 226.642C269.389 226.259 269.571 225.769 269.571 225.172V224.766H269.319C268.498 224.766 267.873 224.803 267.443 224.878C267.014 224.943 266.706 225.06 266.519 225.228C266.342 225.387 266.253 225.625 266.253 225.942C266.253 226.306 266.384 226.609 266.645 226.852C266.916 227.085 267.252 227.202 267.653 227.202ZM276.127 221.042C276.519 221.014 276.715 221.173 276.715 221.518C276.715 221.667 276.673 221.789 276.589 221.882C276.505 221.966 276.36 222.017 276.155 222.036L275.735 222.078C275.11 222.134 274.643 222.358 274.335 222.75C274.036 223.133 273.887 223.585 273.887 224.108V227.51C273.887 227.697 273.836 227.837 273.733 227.93C273.63 228.023 273.495 228.07 273.327 228.07C273.159 228.07 273.019 228.023 272.907 227.93C272.804 227.827 272.753 227.687 272.753 227.51V221.602C272.753 221.425 272.809 221.289 272.921 221.196C273.033 221.093 273.168 221.042 273.327 221.042C273.476 221.042 273.602 221.093 273.705 221.196C273.808 221.289 273.859 221.42 273.859 221.588V222.372C274.055 221.961 274.33 221.649 274.685 221.434C275.049 221.219 275.464 221.093 275.931 221.056L276.127 221.042ZM283.027 221.392C283.129 221.168 283.293 221.056 283.517 221.056C283.657 221.056 283.783 221.103 283.895 221.196C284.007 221.289 284.062 221.406 284.062 221.546C284.062 221.63 284.044 221.705 284.007 221.77L280.073 230.254C280.026 230.357 279.956 230.436 279.863 230.492C279.779 230.548 279.69 230.576 279.597 230.576C279.457 230.576 279.331 230.529 279.219 230.436C279.116 230.352 279.065 230.24 279.065 230.1C279.065 230.025 279.083 229.951 279.12 229.876L280.101 227.762L277.329 221.77C277.291 221.705 277.273 221.635 277.273 221.56C277.273 221.42 277.333 221.299 277.455 221.196C277.585 221.093 277.725 221.042 277.875 221.042C277.968 221.042 278.057 221.07 278.141 221.126C278.234 221.182 278.304 221.261 278.351 221.364L280.689 226.614L283.027 221.392ZM291.699 221.014C293.407 221.014 294.261 221.91 294.261 223.702V227.51C294.261 227.678 294.21 227.813 294.107 227.916C294.014 228.019 293.883 228.07 293.715 228.07C293.547 228.07 293.412 228.019 293.309 227.916C293.207 227.813 293.155 227.678 293.155 227.51V226.838C292.978 227.239 292.707 227.552 292.343 227.776C291.979 227.991 291.559 228.098 291.083 228.098C290.645 228.098 290.239 228.009 289.865 227.832C289.501 227.655 289.212 227.407 288.997 227.09C288.783 226.773 288.675 226.423 288.675 226.04C288.675 225.527 288.806 225.13 289.067 224.85C289.329 224.561 289.758 224.355 290.355 224.234C290.953 224.103 291.783 224.038 292.847 224.038H293.155V223.576C293.155 223.016 293.039 222.605 292.805 222.344C292.581 222.083 292.213 221.952 291.699 221.952C291.065 221.952 290.421 222.125 289.767 222.47C289.515 222.629 289.338 222.708 289.235 222.708C289.123 222.708 289.03 222.666 288.955 222.582C288.881 222.498 288.843 222.391 288.843 222.26C288.843 222.129 288.881 222.017 288.955 221.924C289.039 221.821 289.17 221.719 289.347 221.616C289.674 221.429 290.043 221.285 290.453 221.182C290.873 221.07 291.289 221.014 291.699 221.014ZM291.237 227.202C291.797 227.202 292.255 227.015 292.609 226.642C292.973 226.259 293.155 225.769 293.155 225.172V224.766H292.903C292.082 224.766 291.457 224.803 291.027 224.878C290.598 224.943 290.29 225.06 290.103 225.228C289.926 225.387 289.837 225.625 289.837 225.942C289.837 226.306 289.968 226.609 290.229 226.852C290.5 227.085 290.836 227.202 291.237 227.202ZM299.767 221.014C301.4 221.014 302.217 221.915 302.217 223.716V227.51C302.217 227.687 302.166 227.827 302.063 227.93C301.97 228.023 301.834 228.07 301.657 228.07C301.48 228.07 301.34 228.023 301.237 227.93C301.134 227.827 301.083 227.687 301.083 227.51V223.786C301.083 223.151 300.957 222.689 300.705 222.4C300.462 222.111 300.07 221.966 299.529 221.966C298.904 221.966 298.404 222.157 298.031 222.54C297.658 222.923 297.471 223.441 297.471 224.094V227.51C297.471 227.687 297.42 227.827 297.317 227.93C297.224 228.023 297.088 228.07 296.911 228.07C296.734 228.07 296.594 228.023 296.491 227.93C296.388 227.827 296.337 227.687 296.337 227.51V221.602C296.337 221.434 296.388 221.299 296.491 221.196C296.594 221.093 296.734 221.042 296.911 221.042C297.079 221.042 297.21 221.093 297.303 221.196C297.406 221.299 297.457 221.429 297.457 221.588V222.302C297.681 221.882 297.994 221.565 298.395 221.35C298.796 221.126 299.254 221.014 299.767 221.014ZM309.768 218.06C309.945 218.06 310.085 218.111 310.188 218.214C310.291 218.317 310.342 218.447 310.342 218.606V227.51C310.342 227.678 310.291 227.813 310.188 227.916C310.085 228.019 309.945 228.07 309.768 228.07C309.591 228.07 309.451 228.019 309.348 227.916C309.255 227.813 309.208 227.678 309.208 227.51V226.754C309.003 227.183 308.699 227.515 308.298 227.748C307.906 227.981 307.444 228.098 306.912 228.098C306.315 228.098 305.787 227.949 305.33 227.65C304.873 227.351 304.518 226.936 304.266 226.404C304.014 225.863 303.888 225.237 303.888 224.528C303.888 223.828 304.014 223.212 304.266 222.68C304.518 222.148 304.873 221.737 305.33 221.448C305.787 221.159 306.315 221.014 306.912 221.014C307.444 221.014 307.906 221.131 308.298 221.364C308.699 221.597 309.003 221.929 309.208 222.358V218.606C309.208 218.438 309.255 218.307 309.348 218.214C309.451 218.111 309.591 218.06 309.768 218.06ZM307.136 227.16C307.799 227.16 308.307 226.936 308.662 226.488C309.026 226.031 309.208 225.387 309.208 224.556C309.208 223.725 309.026 223.086 308.662 222.638C308.307 222.19 307.799 221.966 307.136 221.966C306.473 221.966 305.955 222.19 305.582 222.638C305.218 223.086 305.036 223.716 305.036 224.528C305.036 225.359 305.218 226.007 305.582 226.474C305.955 226.931 306.473 227.16 307.136 227.16ZM318.838 221.014C320.546 221.014 321.4 221.91 321.4 223.702V227.51C321.4 227.678 321.349 227.813 321.246 227.916C321.153 228.019 321.022 228.07 320.854 228.07C320.686 228.07 320.551 228.019 320.448 227.916C320.345 227.813 320.294 227.678 320.294 227.51V226.838C320.117 227.239 319.846 227.552 319.482 227.776C319.118 227.991 318.698 228.098 318.222 228.098C317.783 228.098 317.377 228.009 317.004 227.832C316.64 227.655 316.351 227.407 316.136 227.09C315.921 226.773 315.814 226.423 315.814 226.04C315.814 225.527 315.945 225.13 316.206 224.85C316.467 224.561 316.897 224.355 317.494 224.234C318.091 224.103 318.922 224.038 319.986 224.038H320.294V223.576C320.294 223.016 320.177 222.605 319.944 222.344C319.72 222.083 319.351 221.952 318.838 221.952C318.203 221.952 317.559 222.125 316.906 222.47C316.654 222.629 316.477 222.708 316.374 222.708C316.262 222.708 316.169 222.666 316.094 222.582C316.019 222.498 315.982 222.391 315.982 222.26C315.982 222.129 316.019 222.017 316.094 221.924C316.178 221.821 316.309 221.719 316.486 221.616C316.813 221.429 317.181 221.285 317.592 221.182C318.012 221.07 318.427 221.014 318.838 221.014ZM318.376 227.202C318.936 227.202 319.393 227.015 319.748 226.642C320.112 226.259 320.294 225.769 320.294 225.172V224.766H320.042C319.221 224.766 318.595 224.803 318.166 224.878C317.737 224.943 317.429 225.06 317.242 225.228C317.065 225.387 316.976 225.625 316.976 225.942C316.976 226.306 317.107 226.609 317.368 226.852C317.639 227.085 317.975 227.202 318.376 227.202ZM326.626 227.174C326.952 227.202 327.116 227.351 327.116 227.622C327.116 227.781 327.055 227.902 326.934 227.986C326.822 228.061 326.649 228.089 326.416 228.07L326.038 228.042C325.291 227.986 324.74 227.762 324.386 227.37C324.031 226.978 323.854 226.385 323.854 225.592V222.078H322.916C322.757 222.078 322.631 222.041 322.538 221.966C322.454 221.882 322.412 221.775 322.412 221.644C322.412 221.504 322.454 221.392 322.538 221.308C322.631 221.224 322.757 221.182 322.916 221.182H323.854V219.6C323.854 219.423 323.905 219.287 324.008 219.194C324.11 219.091 324.25 219.04 324.428 219.04C324.596 219.04 324.731 219.091 324.834 219.194C324.936 219.287 324.988 219.423 324.988 219.6V221.182H326.542C326.691 221.182 326.808 221.224 326.892 221.308C326.985 221.392 327.032 221.504 327.032 221.644C327.032 221.775 326.985 221.882 326.892 221.966C326.808 222.041 326.691 222.078 326.542 222.078H324.988V225.648C324.988 226.161 325.09 226.535 325.296 226.768C325.51 226.992 325.828 227.118 326.248 227.146L326.626 227.174ZM331.425 227.174C331.751 227.202 331.915 227.351 331.915 227.622C331.915 227.781 331.854 227.902 331.733 227.986C331.621 228.061 331.448 228.089 331.215 228.07L330.837 228.042C330.09 227.986 329.539 227.762 329.185 227.37C328.83 226.978 328.653 226.385 328.653 225.592V222.078H327.715C327.556 222.078 327.43 222.041 327.337 221.966C327.253 221.882 327.211 221.775 327.211 221.644C327.211 221.504 327.253 221.392 327.337 221.308C327.43 221.224 327.556 221.182 327.715 221.182H328.653V219.6C328.653 219.423 328.704 219.287 328.807 219.194C328.909 219.091 329.049 219.04 329.227 219.04C329.395 219.04 329.53 219.091 329.633 219.194C329.735 219.287 329.787 219.423 329.787 219.6V221.182H331.341C331.49 221.182 331.607 221.224 331.691 221.308C331.784 221.392 331.831 221.504 331.831 221.644C331.831 221.775 331.784 221.882 331.691 221.966C331.607 222.041 331.49 222.078 331.341 222.078H329.787V225.648C329.787 226.161 329.889 226.535 330.095 226.768C330.309 226.992 330.627 227.118 331.047 227.146L331.425 227.174ZM336.406 221.042C336.798 221.014 336.994 221.173 336.994 221.518C336.994 221.667 336.952 221.789 336.868 221.882C336.784 221.966 336.64 222.017 336.434 222.036L336.014 222.078C335.389 222.134 334.922 222.358 334.614 222.75C334.316 223.133 334.166 223.585 334.166 224.108V227.51C334.166 227.697 334.115 227.837 334.012 227.93C333.91 228.023 333.774 228.07 333.606 228.07C333.438 228.07 333.298 228.023 333.186 227.93C333.084 227.827 333.032 227.687 333.032 227.51V221.602C333.032 221.425 333.088 221.289 333.2 221.196C333.312 221.093 333.448 221.042 333.606 221.042C333.756 221.042 333.882 221.093 333.984 221.196C334.087 221.289 334.138 221.42 334.138 221.588V222.372C334.334 221.961 334.61 221.649 334.964 221.434C335.328 221.219 335.744 221.093 336.21 221.056L336.406 221.042ZM340.699 221.014C342.407 221.014 343.261 221.91 343.261 223.702V227.51C343.261 227.678 343.21 227.813 343.107 227.916C343.014 228.019 342.883 228.07 342.715 228.07C342.547 228.07 342.412 228.019 342.309 227.916C342.207 227.813 342.155 227.678 342.155 227.51V226.838C341.978 227.239 341.707 227.552 341.343 227.776C340.979 227.991 340.559 228.098 340.083 228.098C339.645 228.098 339.239 228.009 338.865 227.832C338.501 227.655 338.212 227.407 337.997 227.09C337.783 226.773 337.675 226.423 337.675 226.04C337.675 225.527 337.806 225.13 338.067 224.85C338.329 224.561 338.758 224.355 339.355 224.234C339.953 224.103 340.783 224.038 341.847 224.038H342.155V223.576C342.155 223.016 342.039 222.605 341.805 222.344C341.581 222.083 341.213 221.952 340.699 221.952C340.065 221.952 339.421 222.125 338.767 222.47C338.515 222.629 338.338 222.708 338.235 222.708C338.123 222.708 338.03 222.666 337.955 222.582C337.881 222.498 337.843 222.391 337.843 222.26C337.843 222.129 337.881 222.017 337.955 221.924C338.039 221.821 338.17 221.719 338.347 221.616C338.674 221.429 339.043 221.285 339.453 221.182C339.873 221.07 340.289 221.014 340.699 221.014ZM340.237 227.202C340.797 227.202 341.255 227.015 341.609 226.642C341.973 226.259 342.155 225.769 342.155 225.172V224.766H341.903C341.082 224.766 340.457 224.803 340.027 224.878C339.598 224.943 339.29 225.06 339.103 225.228C338.926 225.387 338.837 225.625 338.837 225.942C338.837 226.306 338.968 226.609 339.229 226.852C339.5 227.085 339.836 227.202 340.237 227.202ZM348.151 228.098C347.516 228.098 346.952 227.953 346.457 227.664C345.972 227.375 345.594 226.964 345.323 226.432C345.062 225.9 344.931 225.284 344.931 224.584C344.931 223.884 345.066 223.263 345.337 222.722C345.617 222.181 346.004 221.761 346.499 221.462C346.994 221.163 347.563 221.014 348.207 221.014C348.562 221.014 348.912 221.065 349.257 221.168C349.612 221.261 349.92 221.401 350.181 221.588C350.349 221.7 350.466 221.812 350.531 221.924C350.606 222.027 350.643 222.143 350.643 222.274C350.643 222.405 350.606 222.512 350.531 222.596C350.466 222.68 350.377 222.722 350.265 222.722C350.2 222.722 350.13 222.703 350.055 222.666C349.98 222.629 349.915 222.591 349.859 222.554C349.812 222.517 349.78 222.493 349.761 222.484C349.518 222.325 349.285 222.199 349.061 222.106C348.846 222.013 348.58 221.966 348.263 221.966C347.582 221.966 347.05 222.199 346.667 222.666C346.294 223.123 346.107 223.763 346.107 224.584C346.107 225.405 346.294 226.04 346.667 226.488C347.05 226.936 347.582 227.16 348.263 227.16C348.58 227.16 348.851 227.113 349.075 227.02C349.308 226.927 349.542 226.801 349.775 226.642C349.878 226.577 349.976 226.521 350.069 226.474C350.162 226.427 350.242 226.404 350.307 226.404C350.41 226.404 350.494 226.446 350.559 226.53C350.634 226.614 350.671 226.721 350.671 226.852C350.671 226.973 350.638 227.085 350.573 227.188C350.508 227.281 350.386 227.389 350.209 227.51C349.948 227.687 349.63 227.832 349.257 227.944C348.893 228.047 348.524 228.098 348.151 228.098ZM355.2 227.174C355.527 227.202 355.69 227.351 355.69 227.622C355.69 227.781 355.629 227.902 355.508 227.986C355.396 228.061 355.223 228.089 354.99 228.07L354.612 228.042C353.865 227.986 353.315 227.762 352.96 227.37C352.605 226.978 352.428 226.385 352.428 225.592V222.078H351.49C351.331 222.078 351.205 222.041 351.112 221.966C351.028 221.882 350.986 221.775 350.986 221.644C350.986 221.504 351.028 221.392 351.112 221.308C351.205 221.224 351.331 221.182 351.49 221.182H352.428V219.6C352.428 219.423 352.479 219.287 352.582 219.194C352.685 219.091 352.825 219.04 353.002 219.04C353.17 219.04 353.305 219.091 353.408 219.194C353.511 219.287 353.562 219.423 353.562 219.6V221.182H355.116C355.265 221.182 355.382 221.224 355.466 221.308C355.559 221.392 355.606 221.504 355.606 221.644C355.606 221.775 355.559 221.882 355.466 221.966C355.382 222.041 355.265 222.078 355.116 222.078H353.562V225.648C353.562 226.161 353.665 226.535 353.87 226.768C354.085 226.992 354.402 227.118 354.822 227.146L355.2 227.174ZM357.382 228.07C357.214 228.07 357.074 228.023 356.962 227.93C356.859 227.827 356.808 227.687 356.808 227.51V221.602C356.808 221.425 356.859 221.289 356.962 221.196C357.074 221.093 357.214 221.042 357.382 221.042C357.55 221.042 357.685 221.093 357.788 221.196C357.89 221.289 357.942 221.425 357.942 221.602V227.51C357.942 227.697 357.89 227.837 357.788 227.93C357.685 228.023 357.55 228.07 357.382 228.07ZM357.382 219.572C357.158 219.572 356.976 219.507 356.836 219.376C356.696 219.245 356.626 219.073 356.626 218.858C356.626 218.653 356.696 218.485 356.836 218.354C356.976 218.223 357.158 218.158 357.382 218.158C357.606 218.158 357.788 218.223 357.928 218.354C358.068 218.485 358.138 218.653 358.138 218.858C358.138 219.073 358.068 219.245 357.928 219.376C357.788 219.507 357.606 219.572 357.382 219.572ZM364.976 221.392C365.078 221.168 365.242 221.056 365.466 221.056C365.606 221.056 365.732 221.103 365.844 221.196C365.956 221.289 366.012 221.406 366.012 221.546C366.012 221.63 365.993 221.705 365.956 221.77L363.226 227.65C363.17 227.771 363.086 227.869 362.974 227.944C362.862 228.009 362.74 228.042 362.61 228.042C362.488 228.042 362.372 228.009 362.26 227.944C362.148 227.869 362.059 227.771 361.994 227.65L359.278 221.77C359.24 221.705 359.222 221.635 359.222 221.56C359.222 221.42 359.282 221.299 359.404 221.196C359.534 221.093 359.674 221.042 359.824 221.042C359.917 221.042 360.006 221.07 360.09 221.126C360.183 221.182 360.253 221.261 360.3 221.364L362.638 226.614L364.976 221.392ZM372.449 226.418C372.552 226.418 372.64 226.46 372.715 226.544C372.79 226.628 372.827 226.735 372.827 226.866C372.827 227.099 372.664 227.314 372.337 227.51C372.001 227.706 371.646 227.855 371.273 227.958C370.9 228.051 370.536 228.098 370.181 228.098C369.126 228.098 368.291 227.785 367.675 227.16C367.068 226.535 366.765 225.671 366.765 224.57C366.765 223.87 366.9 223.254 367.171 222.722C367.442 222.181 367.82 221.761 368.305 221.462C368.8 221.163 369.36 221.014 369.985 221.014C370.872 221.014 371.576 221.303 372.099 221.882C372.622 222.461 372.883 223.245 372.883 224.234C372.883 224.421 372.846 224.556 372.771 224.64C372.696 224.724 372.575 224.766 372.407 224.766H367.899C367.983 226.371 368.744 227.174 370.181 227.174C370.545 227.174 370.858 227.127 371.119 227.034C371.38 226.931 371.66 226.796 371.959 226.628C372.202 226.488 372.365 226.418 372.449 226.418ZM369.999 221.896C369.402 221.896 368.921 222.083 368.557 222.456C368.202 222.829 367.992 223.357 367.927 224.038H371.889C371.87 223.347 371.698 222.82 371.371 222.456C371.044 222.083 370.587 221.896 369.999 221.896ZM383.637 218.06C383.815 218.06 383.955 218.111 384.057 218.214C384.16 218.317 384.211 218.447 384.211 218.606V227.51C384.211 227.678 384.16 227.813 384.057 227.916C383.955 228.019 383.815 228.07 383.637 228.07C383.46 228.07 383.32 228.019 383.217 227.916C383.124 227.813 383.077 227.678 383.077 227.51V226.754C382.872 227.183 382.569 227.515 382.167 227.748C381.775 227.981 381.313 228.098 380.781 228.098C380.184 228.098 379.657 227.949 379.199 227.65C378.742 227.351 378.387 226.936 378.135 226.404C377.883 225.863 377.757 225.237 377.757 224.528C377.757 223.828 377.883 223.212 378.135 222.68C378.387 222.148 378.742 221.737 379.199 221.448C379.657 221.159 380.184 221.014 380.781 221.014C381.313 221.014 381.775 221.131 382.167 221.364C382.569 221.597 382.872 221.929 383.077 222.358V218.606C383.077 218.438 383.124 218.307 383.217 218.214C383.32 218.111 383.46 218.06 383.637 218.06ZM381.005 227.16C381.668 227.16 382.177 226.936 382.531 226.488C382.895 226.031 383.077 225.387 383.077 224.556C383.077 223.725 382.895 223.086 382.531 222.638C382.177 222.19 381.668 221.966 381.005 221.966C380.343 221.966 379.825 222.19 379.451 222.638C379.087 223.086 378.905 223.716 378.905 224.528C378.905 225.359 379.087 226.007 379.451 226.474C379.825 226.931 380.343 227.16 381.005 227.16ZM391.59 226.418C391.692 226.418 391.781 226.46 391.856 226.544C391.93 226.628 391.968 226.735 391.968 226.866C391.968 227.099 391.804 227.314 391.478 227.51C391.142 227.706 390.787 227.855 390.414 227.958C390.04 228.051 389.676 228.098 389.322 228.098C388.267 228.098 387.432 227.785 386.816 227.16C386.209 226.535 385.906 225.671 385.906 224.57C385.906 223.87 386.041 223.254 386.312 222.722C386.582 222.181 386.96 221.761 387.446 221.462C387.94 221.163 388.5 221.014 389.126 221.014C390.012 221.014 390.717 221.303 391.24 221.882C391.762 222.461 392.024 223.245 392.024 224.234C392.024 224.421 391.986 224.556 391.912 224.64C391.837 224.724 391.716 224.766 391.548 224.766H387.04C387.124 226.371 387.884 227.174 389.322 227.174C389.686 227.174 389.998 227.127 390.26 227.034C390.521 226.931 390.801 226.796 391.1 226.628C391.342 226.488 391.506 226.418 391.59 226.418ZM389.14 221.896C388.542 221.896 388.062 222.083 387.698 222.456C387.343 222.829 387.133 223.357 387.068 224.038H391.03C391.011 223.347 390.838 222.82 390.512 222.456C390.185 222.083 389.728 221.896 389.14 221.896ZM395.991 228.098C395.561 228.098 395.151 228.047 394.759 227.944C394.376 227.841 394.035 227.697 393.737 227.51C393.569 227.398 393.447 227.295 393.373 227.202C393.307 227.099 393.275 226.978 393.275 226.838C393.275 226.717 393.307 226.619 393.373 226.544C393.447 226.46 393.541 226.418 393.653 226.418C393.765 226.418 393.928 226.488 394.143 226.628C394.423 226.796 394.698 226.931 394.969 227.034C395.249 227.127 395.594 227.174 396.005 227.174C396.509 227.174 396.901 227.085 397.181 226.908C397.461 226.731 397.601 226.474 397.601 226.138C397.601 225.933 397.549 225.769 397.447 225.648C397.344 225.517 397.167 225.405 396.915 225.312C396.663 225.209 396.294 225.107 395.809 225.004C394.987 224.827 394.399 224.589 394.045 224.29C393.69 223.991 393.513 223.585 393.513 223.072C393.513 222.671 393.625 222.316 393.849 222.008C394.073 221.7 394.381 221.457 394.773 221.28C395.174 221.103 395.627 221.014 396.131 221.014C396.495 221.014 396.845 221.065 397.181 221.168C397.526 221.261 397.829 221.397 398.091 221.574C398.408 221.798 398.567 222.031 398.567 222.274C398.567 222.395 398.529 222.498 398.455 222.582C398.38 222.666 398.291 222.708 398.189 222.708C398.077 222.708 397.909 222.629 397.685 222.47C397.423 222.302 397.176 222.171 396.943 222.078C396.709 221.985 396.42 221.938 396.075 221.938C395.636 221.938 395.281 222.036 395.011 222.232C394.749 222.428 394.619 222.689 394.619 223.016C394.619 223.221 394.665 223.389 394.759 223.52C394.861 223.641 395.025 223.753 395.249 223.856C395.482 223.949 395.813 224.043 396.243 224.136C396.877 224.276 397.367 224.43 397.713 224.598C398.067 224.766 398.319 224.971 398.469 225.214C398.618 225.457 398.693 225.765 398.693 226.138C398.693 226.726 398.445 227.202 397.951 227.566C397.456 227.921 396.803 228.098 395.991 228.098ZM400.995 228.07C400.827 228.07 400.687 228.023 400.575 227.93C400.472 227.827 400.421 227.687 400.421 227.51V221.602C400.421 221.425 400.472 221.289 400.575 221.196C400.687 221.093 400.827 221.042 400.995 221.042C401.163 221.042 401.298 221.093 401.401 221.196C401.504 221.289 401.555 221.425 401.555 221.602V227.51C401.555 227.697 401.504 227.837 401.401 227.93C401.298 228.023 401.163 228.07 400.995 228.07ZM400.995 219.572C400.771 219.572 400.589 219.507 400.449 219.376C400.309 219.245 400.239 219.073 400.239 218.858C400.239 218.653 400.309 218.485 400.449 218.354C400.589 218.223 400.771 218.158 400.995 218.158C401.219 218.158 401.401 218.223 401.541 218.354C401.681 218.485 401.751 218.653 401.751 218.858C401.751 219.073 401.681 219.245 401.541 219.376C401.401 219.507 401.219 219.572 400.995 219.572ZM409.205 221.042C409.382 221.042 409.522 221.093 409.625 221.196C409.728 221.299 409.779 221.434 409.779 221.602V227.538C409.779 228.555 409.518 229.321 408.995 229.834C408.472 230.357 407.698 230.618 406.671 230.618C405.672 230.618 404.842 230.422 404.179 230.03C403.843 229.843 403.675 229.629 403.675 229.386C403.675 229.255 403.708 229.148 403.773 229.064C403.848 228.98 403.941 228.938 404.053 228.938C404.146 228.938 404.314 229.003 404.557 229.134C404.884 229.302 405.206 229.437 405.523 229.54C405.84 229.643 406.218 229.694 406.657 229.694C407.32 229.694 407.819 229.517 408.155 229.162C408.491 228.817 408.659 228.308 408.659 227.636V226.432C408.463 226.871 408.16 227.207 407.749 227.44C407.348 227.673 406.872 227.79 406.321 227.79C405.724 227.79 405.192 227.65 404.725 227.37C404.268 227.09 403.908 226.693 403.647 226.18C403.395 225.667 403.269 225.074 403.269 224.402C403.269 223.73 403.395 223.137 403.647 222.624C403.908 222.111 404.268 221.714 404.725 221.434C405.192 221.154 405.724 221.014 406.321 221.014C406.862 221.014 407.334 221.131 407.735 221.364C408.136 221.597 408.44 221.929 408.645 222.358V221.602C408.645 221.434 408.692 221.299 408.785 221.196C408.888 221.093 409.028 221.042 409.205 221.042ZM406.545 226.852C407.198 226.852 407.712 226.637 408.085 226.208C408.458 225.769 408.645 225.167 408.645 224.402C408.645 223.646 408.458 223.053 408.085 222.624C407.721 222.185 407.208 221.966 406.545 221.966C405.882 221.966 405.36 222.185 404.977 222.624C404.604 223.053 404.417 223.646 404.417 224.402C404.417 225.167 404.604 225.769 404.977 226.208C405.36 226.637 405.882 226.852 406.545 226.852ZM415.308 221.014C416.941 221.014 417.758 221.915 417.758 223.716V227.51C417.758 227.687 417.707 227.827 417.604 227.93C417.511 228.023 417.375 228.07 417.198 228.07C417.021 228.07 416.881 228.023 416.778 227.93C416.675 227.827 416.624 227.687 416.624 227.51V223.786C416.624 223.151 416.498 222.689 416.246 222.4C416.003 222.111 415.611 221.966 415.07 221.966C414.445 221.966 413.945 222.157 413.572 222.54C413.199 222.923 413.012 223.441 413.012 224.094V227.51C413.012 227.687 412.961 227.827 412.858 227.93C412.765 228.023 412.629 228.07 412.452 228.07C412.275 228.07 412.135 228.023 412.032 227.93C411.929 227.827 411.878 227.687 411.878 227.51V221.602C411.878 221.434 411.929 221.299 412.032 221.196C412.135 221.093 412.275 221.042 412.452 221.042C412.62 221.042 412.751 221.093 412.844 221.196C412.947 221.299 412.998 221.429 412.998 221.588V222.302C413.222 221.882 413.535 221.565 413.936 221.35C414.337 221.126 414.795 221.014 415.308 221.014ZM420.395 228.07C420.171 228.07 419.984 228 419.835 227.86C419.686 227.711 419.611 227.519 419.611 227.286C419.611 227.053 419.686 226.861 419.835 226.712C419.984 226.563 420.171 226.488 420.395 226.488C420.61 226.488 420.787 226.563 420.927 226.712C421.076 226.861 421.151 227.053 421.151 227.286C421.151 227.519 421.076 227.711 420.927 227.86C420.787 228 420.61 228.07 420.395 228.07Z" fill="#282A30" fill-opacity="0.4"/>
<defs>
<filter id="filter0_d_27_19" x="0" y="0" width="649" height="399" filterUnits="userSpaceOnUse" color-interpolation-filters="sRGB">
<feFlood flood-opacity="0" result="BackgroundImageFix"/>
<feColorMatrix in="SourceAlpha" type="matrix" values="0 0 0 0 0 0 0 0 0 0 0 0 0 0 0 0 0 0 127 0" result="hardAlpha"/>
<feOffset dx="20" dy="4"/>
<feGaussianBlur stdDeviation="50"/>
<feColorMatrix type="matrix" values="0 0 0 0 0 0 0 0 0 0 0 0 0 0 0 0 0 0 0.1 0"/>
<feBlend mode="normal" in2="BackgroundImageFix" result="effect1_dropShadow_27_19"/>
<feBlend mode="normal" in="SourceGraphic" in2="effect1_dropShadow_27_19" result="shape"/>
</filter>
</defs>
</svg>
